<svg width="36" height="36" viewBox="0 0 36 36" fill="none" xmlns="http://www.w3.org/2000/svg">
<g clip-path="url(#clip0_806_7853)">
<path d="M18 0C8.05982 0 0 8.05982 0 18C0 27.9402 8.05982 36 18 36C27.9402 36 36 27.9402 36 18C36 8.05982 27.9402 0 18 0ZM18 32.9464C9.74732 32.9464 3.05357 26.2527 3.05357 18C3.05357 9.74732 9.74732 3.05357 18 3.05357C26.2527 3.05357 32.9464 9.74732 32.9464 18C32.9464 26.2527 26.2527 32.9464 18 32.9464Z" fill="black" fill-opacity="0.85"/>
<path d="M22.4833 10.1519C21.2779 9.09517 19.6869 8.5166 17.9994 8.5166C16.3119 8.5166 14.7208 9.09919 13.5154 10.1519C12.2619 11.2487 11.5708 12.7233 11.5708 14.3023V14.6077C11.5708 14.7845 11.7154 14.9291 11.8922 14.9291H13.8208C13.9976 14.9291 14.1422 14.7845 14.1422 14.6077V14.3023C14.1422 12.5304 15.8739 11.088 17.9994 11.088C20.1248 11.088 21.8565 12.5304 21.8565 14.3023C21.8565 15.5519 20.9726 16.697 19.6025 17.2233C18.7507 17.5487 18.0275 18.1193 17.5092 18.8666C16.9829 19.63 16.7096 20.5461 16.7096 21.4742V22.338C16.7096 22.5148 16.8543 22.6595 17.0311 22.6595H18.9596C19.1364 22.6595 19.2811 22.5148 19.2811 22.338V21.426C19.2831 21.0359 19.4027 20.6556 19.6242 20.3345C19.8456 20.0134 20.1587 19.7665 20.5226 19.626C22.8931 18.7139 24.4239 16.6246 24.4239 14.3023C24.4279 12.7233 23.7369 11.2487 22.4833 10.1519ZM16.3922 26.838C16.3922 27.2643 16.5616 27.6731 16.863 27.9745C17.1644 28.2759 17.5731 28.4452 17.9994 28.4452C18.4256 28.4452 18.8344 28.2759 19.1358 27.9745C19.4372 27.6731 19.6065 27.2643 19.6065 26.838C19.6065 26.4118 19.4372 26.003 19.1358 25.7016C18.8344 25.4002 18.4256 25.2309 17.9994 25.2309C17.5731 25.2309 17.1644 25.4002 16.863 25.7016C16.5616 26.003 16.3922 26.4118 16.3922 26.838Z" fill="black" fill-opacity="0.85"/>
</g>
<defs>
<clipPath id="clip0_806_7853">
<rect width="36" height="36" fill="white"/>
</clipPath>
</defs>
</svg>
