<svg width="36" height="36" viewBox="0 0 36 36" fill="none" xmlns="http://www.w3.org/2000/svg">
<g clip-path="url(#clip0_806_7872)">
<path d="M18 0C8.05982 0 0 8.05982 0 18C0 27.9402 8.05982 36 18 36C27.9402 36 36 27.9402 36 18C36 8.05982 27.9402 0 18 0ZM18 32.9464C9.74732 32.9464 3.05357 26.2527 3.05357 18C3.05357 9.74732 9.74732 3.05357 18 3.05357C26.2527 3.05357 32.9464 9.74732 32.9464 18C32.9464 26.2527 26.2527 32.9464 18 32.9464ZM14.4643 11.5714H12.5357C12.3589 11.5714 12.2143 11.7161 12.2143 11.8929V24.1071C12.2143 24.2839 12.3589 24.4286 12.5357 24.4286H14.4643C14.6411 24.4286 14.7857 24.2839 14.7857 24.1071V11.8929C14.7857 11.7161 14.6411 11.5714 14.4643 11.5714ZM23.4643 11.5714H21.5357C21.3589 11.5714 21.2143 11.7161 21.2143 11.8929V24.1071C21.2143 24.2839 21.3589 24.4286 21.5357 24.4286H23.4643C23.6411 24.4286 23.7857 24.2839 23.7857 24.1071V11.8929C23.7857 11.7161 23.6411 11.5714 23.4643 11.5714Z" fill="black" fill-opacity="0.85"/>
</g>
<defs>
<clipPath id="clip0_806_7872">
<rect width="36" height="36" fill="white"/>
</clipPath>
</defs>
</svg>
