<svg width="36" height="36" viewBox="0 0 36 36" fill="none" xmlns="http://www.w3.org/2000/svg">
<g clip-path="url(#clip0_806_7900)">
<path d="M18 0C8.05982 0 0 8.05982 0 18C0 27.9402 8.05982 36 18 36C27.9402 36 36 27.9402 36 18C36 8.05982 27.9402 0 18 0ZM18 32.9464C9.74732 32.9464 3.05357 26.2527 3.05357 18C3.05357 9.74732 9.74732 3.05357 18 3.05357C26.2527 3.05357 32.9464 9.74732 32.9464 18C32.9464 26.2527 26.2527 32.9464 18 32.9464Z" fill="black" fill-opacity="0.85"/>
<path d="M16.0708 10.9286C16.0708 11.4401 16.274 11.9306 16.6357 12.2923C16.9973 12.654 17.4879 12.8571 17.9994 12.8571C18.5109 12.8571 19.0014 12.654 19.3631 12.2923C19.7248 11.9306 19.9279 11.4401 19.9279 10.9286C19.9279 10.4171 19.7248 9.92654 19.3631 9.56487C19.0014 9.20319 18.5109 9 17.9994 9C17.4879 9 16.9973 9.20319 16.6357 9.56487C16.274 9.92654 16.0708 10.4171 16.0708 10.9286ZM18.9637 15.4286H17.0351C16.8583 15.4286 16.7137 15.5732 16.7137 15.75V26.6786C16.7137 26.8554 16.8583 27 17.0351 27H18.9637C19.1404 27 19.2851 26.8554 19.2851 26.6786V15.75C19.2851 15.5732 19.1404 15.4286 18.9637 15.4286Z" fill="black" fill-opacity="0.85"/>
</g>
<defs>
<clipPath id="clip0_806_7900">
<rect width="36" height="36" fill="white"/>
</clipPath>
</defs>
</svg>
