<svg width="36" height="36" viewBox="0 0 36 36" fill="none" xmlns="http://www.w3.org/2000/svg">
<path d="M14.8295 23.8528C14.9478 24.0179 15.1037 24.1524 15.2843 24.2452C15.4649 24.338 15.665 24.3864 15.8681 24.3864C16.0712 24.3864 16.2713 24.338 16.4519 24.2452C16.6326 24.1524 16.7885 24.0179 16.9067 23.8528L25.3683 12.1207C25.521 11.9077 25.3683 11.6104 25.1072 11.6104H23.2228C22.813 11.6104 22.4232 11.8073 22.1822 12.1448L15.8701 20.9037L13.0094 16.9341C12.7683 16.6006 12.3826 16.3997 11.9688 16.3997H10.0844C9.82324 16.3997 9.67056 16.697 9.82324 16.91L14.8295 23.8528Z" fill="black" fill-opacity="0.85"/>
<path d="M32.7863 1.92493H3.2149C2.50374 1.92493 1.92918 2.49948 1.92918 3.21064V32.7821C1.92918 33.4932 2.50374 34.0678 3.2149 34.0678H32.7863C33.4975 34.0678 34.072 33.4932 34.072 32.7821V3.21064C34.072 2.49948 33.4975 1.92493 32.7863 1.92493ZM31.1792 31.1749H4.82204V4.81778H31.1792V31.1749Z" fill="black" fill-opacity="0.85"/>
</svg>
