<svg width="36" height="36" viewBox="0 0 36 36" fill="none" xmlns="http://www.w3.org/2000/svg">
<path d="M10.6068 19.2876H16.714V25.3947C16.714 25.5715 16.8586 25.7161 17.0354 25.7161H18.964C19.1408 25.7161 19.2854 25.5715 19.2854 25.3947V19.2876H25.3925C25.5693 19.2876 25.714 19.1429 25.714 18.9661V17.0376C25.714 16.8608 25.5693 16.7161 25.3925 16.7161H19.2854V10.609C19.2854 10.4322 19.1408 10.2876 18.964 10.2876H17.0354C16.8586 10.2876 16.714 10.4322 16.714 10.609V16.7161H10.6068C10.43 16.7161 10.2854 16.8608 10.2854 17.0376V18.9661C10.2854 19.1429 10.43 19.2876 10.6068 19.2876Z" fill="black" fill-opacity="0.85"/>
<path d="M32.7863 1.9292H3.21488C2.50372 1.9292 1.92917 2.50375 1.92917 3.21491V32.7863C1.92917 33.4975 2.50372 34.0721 3.21488 34.0721H32.7863C33.4975 34.0721 34.072 33.4975 34.072 32.7863V3.21491C34.072 2.50375 33.4975 1.9292 32.7863 1.9292ZM31.1792 31.1792H4.82203V4.82206H31.1792V31.1792Z" fill="black" fill-opacity="0.85"/>
</svg>
