<svg width="36" height="36" viewBox="0 0 36 36" fill="none" xmlns="http://www.w3.org/2000/svg">
<path d="M10.6069 19.2839H25.3926C25.5694 19.2839 25.714 19.1393 25.714 18.9625V17.0339C25.714 16.8571 25.5694 16.7125 25.3926 16.7125H10.6069C10.4301 16.7125 10.2854 16.8571 10.2854 17.0339V18.9625C10.2854 19.1393 10.4301 19.2839 10.6069 19.2839Z" fill="black" fill-opacity="0.85"/>
<path d="M32.7863 1.9292H3.21491C2.50375 1.9292 1.9292 2.50375 1.9292 3.21491V32.7863C1.9292 33.4975 2.50375 34.0721 3.21491 34.0721H32.7863C33.4975 34.0721 34.0721 33.4975 34.0721 32.7863V3.21491C34.0721 2.50375 33.4975 1.9292 32.7863 1.9292ZM31.1792 31.1792H4.82206V4.82206H31.1792V31.1792Z" fill="black" fill-opacity="0.85"/>
</svg>
