<svg width="36" height="36" viewBox="0 0 36 36" fill="none" xmlns="http://www.w3.org/2000/svg">
<g clip-path="url(#clip0_806_7957)">
<path d="M18 0C8.05982 0 0 8.05982 0 18C0 27.9402 8.05982 36 18 36C27.9402 36 36 27.9402 36 18C36 8.05982 27.9402 0 18 0ZM18 32.9464C9.74732 32.9464 3.05357 26.2527 3.05357 18C3.05357 14.4241 4.31116 11.1375 6.40848 8.56607L27.4339 29.5915C24.8625 31.6888 21.5759 32.9464 18 32.9464ZM29.5915 27.4339L8.56607 6.40848C11.1375 4.31116 14.4241 3.05357 18 3.05357C26.2527 3.05357 32.9464 9.74732 32.9464 18C32.9464 21.5759 31.6888 24.8625 29.5915 27.4339Z" fill="black" fill-opacity="0.85"/>
</g>
<defs>
<clipPath id="clip0_806_7957">
<rect width="36" height="36" fill="white"/>
</clipPath>
</defs>
</svg>
