<svg width="36" height="36" viewBox="0 0 36 36" fill="none" xmlns="http://www.w3.org/2000/svg">
<g clip-path="url(#clip0_806_7881)">
<path d="M25.3925 16.7124H10.6068C10.43 16.7124 10.2854 16.857 10.2854 17.0338V18.9624C10.2854 19.1392 10.43 19.2838 10.6068 19.2838H25.3925C25.5693 19.2838 25.714 19.1392 25.714 18.9624V17.0338C25.714 16.857 25.5693 16.7124 25.3925 16.7124Z" fill="black" fill-opacity="0.85"/>
<path d="M18 0C8.05982 0 0 8.05982 0 18C0 27.9402 8.05982 36 18 36C27.9402 36 36 27.9402 36 18C36 8.05982 27.9402 0 18 0ZM18 32.9464C9.74732 32.9464 3.05357 26.2527 3.05357 18C3.05357 9.74732 9.74732 3.05357 18 3.05357C26.2527 3.05357 32.9464 9.74732 32.9464 18C32.9464 26.2527 26.2527 32.9464 18 32.9464Z" fill="black" fill-opacity="0.85"/>
</g>
<defs>
<clipPath id="clip0_806_7881">
<rect width="36" height="36" fill="white"/>
</clipPath>
</defs>
</svg>
