<svg width="36" height="36" viewBox="0 0 36 36" fill="none" xmlns="http://www.w3.org/2000/svg">
<path d="M19.205 3.5376H16.7943C16.58 3.5376 16.4729 3.64474 16.4729 3.85903V16.4751H4.50063C4.28634 16.4751 4.1792 16.5822 4.1792 16.7965V19.2072C4.1792 19.4215 4.28634 19.5287 4.50063 19.5287H16.4729V32.1447C16.4729 32.359 16.58 32.4662 16.7943 32.4662H19.205C19.4193 32.4662 19.5265 32.359 19.5265 32.1447V19.5287H31.5006C31.7149 19.5287 31.8221 19.4215 31.8221 19.2072V16.7965C31.8221 16.5822 31.7149 16.4751 31.5006 16.4751H19.5265V3.85903C19.5265 3.64474 19.4193 3.5376 19.205 3.5376Z" fill="black" fill-opacity="0.85"/>
</svg>
