<svg width="36" height="36" viewBox="0 0 36 36" fill="none" xmlns="http://www.w3.org/2000/svg">
<path d="M15.4281 29.7315C15.4281 30.4135 15.699 31.0676 16.1813 31.5498C16.6635 32.032 17.3176 32.3029 17.9995 32.3029C18.6815 32.3029 19.3356 32.032 19.8178 31.5498C20.3001 31.0676 20.571 30.4135 20.571 29.7315C20.571 29.0495 20.3001 28.3955 19.8178 27.9132C19.3356 27.431 18.6815 27.1601 17.9995 27.1601C17.3176 27.1601 16.6635 27.431 16.1813 27.9132C15.699 28.3955 15.4281 29.0495 15.4281 29.7315ZM16.7138 22.9815H19.2853C19.462 22.9815 19.6067 22.8369 19.6067 22.6601V4.01723C19.6067 3.84044 19.462 3.6958 19.2853 3.6958H16.7138C16.537 3.6958 16.3924 3.84044 16.3924 4.01723V22.6601C16.3924 22.8369 16.537 22.9815 16.7138 22.9815Z" fill="black" fill-opacity="0.85"/>
</svg>
