<svg width="36" height="36" viewBox="0 0 36 36" fill="none" xmlns="http://www.w3.org/2000/svg">
<path d="M11.6509 24.3872H14.0174C14.2063 24.3872 14.3871 24.3028 14.5116 24.1582L17.9991 19.9997L21.4866 24.1582C21.6071 24.3028 21.7879 24.3872 21.9808 24.3872H24.3473C24.6205 24.3872 24.7692 24.0698 24.5924 23.8609L19.6786 17.9988L24.5964 12.1367C24.7732 11.9278 24.6246 11.6104 24.3513 11.6104H21.9848C21.796 11.6104 21.6152 11.6948 21.4906 11.8394L17.9991 15.9979L14.5116 11.8394C14.3911 11.6948 14.2103 11.6104 14.0174 11.6104H11.6509C11.3777 11.6104 11.229 11.9278 11.4058 12.1367L16.3196 17.9988L11.4058 23.8609C11.3662 23.9074 11.3408 23.9644 11.3326 24.025C11.3244 24.0855 11.3338 24.1472 11.3596 24.2026C11.3854 24.258 11.4265 24.3049 11.4782 24.3376C11.5298 24.3703 11.5898 24.3875 11.6509 24.3872Z" fill="black" fill-opacity="0.85"/>
<path d="M32.7863 1.9292H3.21491C2.50375 1.9292 1.9292 2.50375 1.9292 3.21491V32.7863C1.9292 33.4975 2.50375 34.0721 3.21491 34.0721H32.7863C33.4975 34.0721 34.0721 33.4975 34.0721 32.7863V3.21491C34.0721 2.50375 33.4975 1.9292 32.7863 1.9292ZM31.1792 31.1792H4.82206V4.82206H31.1792V31.1792Z" fill="black" fill-opacity="0.85"/>
</svg>
