<svg width="36" height="36" viewBox="0 0 36 36" fill="none" xmlns="http://www.w3.org/2000/svg">
<path d="M15.4292 6.42983C15.4292 7.11181 15.7001 7.76586 16.1824 8.2481C16.6646 8.73034 17.3186 9.00126 18.0006 9.00126C18.6826 9.00126 19.3367 8.73034 19.8189 8.2481C20.3011 7.76586 20.5721 7.11181 20.5721 6.42983C20.5721 5.74784 20.3011 5.09379 19.8189 4.61155C19.3367 4.12932 18.6826 3.8584 18.0006 3.8584C17.3186 3.8584 16.6646 4.12932 16.1824 4.61155C15.7001 5.09379 15.4292 5.74784 15.4292 6.42983ZM19.2863 13.1798H16.7149C16.5381 13.1798 16.3935 13.3245 16.3935 13.5013V32.1441C16.3935 32.3209 16.5381 32.4655 16.7149 32.4655H19.2863C19.4631 32.4655 19.6078 32.3209 19.6078 32.1441V13.5013C19.6078 13.3245 19.4631 13.1798 19.2863 13.1798Z" fill="black" fill-opacity="0.85"/>
</svg>
