<svg width="36" height="36" viewBox="0 0 36 36" fill="none" xmlns="http://www.w3.org/2000/svg">
<g clip-path="url(#clip0_806_7934)">
<path d="M25.5133 11.6104H23.6289C23.2191 11.6104 22.8293 11.8072 22.5883 12.1447L16.2722 20.9037L13.4115 16.934C13.1704 16.6005 12.7847 16.3996 12.3709 16.3996H10.4865C10.2253 16.3996 10.0726 16.697 10.2253 16.9099L15.2316 23.8528C15.3498 24.0178 15.5058 24.1523 15.6864 24.2451C15.867 24.3379 16.0671 24.3863 16.2702 24.3863C16.4733 24.3863 16.6734 24.3379 16.854 24.2451C17.0346 24.1523 17.1905 24.0178 17.3088 23.8528L25.7704 12.1206C25.9271 11.9077 25.7744 11.6104 25.5133 11.6104Z" fill="black" fill-opacity="0.85"/>
<path d="M18 0C8.05982 0 0 8.05982 0 18C0 27.9402 8.05982 36 18 36C27.9402 36 36 27.9402 36 18C36 8.05982 27.9402 0 18 0ZM18 32.9464C9.74732 32.9464 3.05357 26.2527 3.05357 18C3.05357 9.74732 9.74732 3.05357 18 3.05357C26.2527 3.05357 32.9464 9.74732 32.9464 18C32.9464 26.2527 26.2527 32.9464 18 32.9464Z" fill="black" fill-opacity="0.85"/>
</g>
<defs>
<clipPath id="clip0_806_7934">
<rect width="36" height="36" fill="white"/>
</clipPath>
</defs>
</svg>
