<svg width="36" height="36" viewBox="0 0 36 36" fill="none" xmlns="http://www.w3.org/2000/svg">
<g clip-path="url(#clip0_806_7919)">
<path d="M24.9664 11.6461C24.9664 11.4694 24.8218 11.3247 24.645 11.3247L21.9932 11.3368L17.9994 16.0979L14.0097 11.3408L11.3539 11.3287C11.1771 11.3287 11.0325 11.4694 11.0325 11.6502C11.0325 11.7265 11.0606 11.7988 11.1088 11.8591L16.336 18.0868L11.1088 24.3104C11.0603 24.3693 11.0333 24.443 11.0325 24.5194C11.0325 24.6961 11.1771 24.8408 11.3539 24.8408L14.0097 24.8287L17.9994 20.0676L21.9892 24.8247L24.641 24.8368C24.8177 24.8368 24.9624 24.6961 24.9624 24.5153C24.9624 24.439 24.9343 24.3667 24.886 24.3064L19.6668 18.0827L24.8941 11.8551C24.9423 11.7988 24.9664 11.7225 24.9664 11.6461Z" fill="black" fill-opacity="0.85"/>
<path d="M18 0C8.05982 0 0 8.05982 0 18C0 27.9402 8.05982 36 18 36C27.9402 36 36 27.9402 36 18C36 8.05982 27.9402 0 18 0ZM18 32.9464C9.74732 32.9464 3.05357 26.2527 3.05357 18C3.05357 9.74732 9.74732 3.05357 18 3.05357C26.2527 3.05357 32.9464 9.74732 32.9464 18C32.9464 26.2527 26.2527 32.9464 18 32.9464Z" fill="black" fill-opacity="0.85"/>
</g>
<defs>
<clipPath id="clip0_806_7919">
<rect width="36" height="36" fill="white"/>
</clipPath>
</defs>
</svg>
