<svg width="36" height="36" viewBox="0 0 36 36" fill="none" xmlns="http://www.w3.org/2000/svg">
<path d="M28.1245 8.71599C27.562 7.48652 26.7625 6.38161 25.742 5.43742C23.6687 3.51286 20.9165 2.45215 17.9995 2.45215C15.0826 2.45215 12.3303 3.51286 10.2571 5.4334C9.2366 6.38161 8.43704 7.48251 7.87454 8.71599C7.28794 10.0017 6.99062 11.3638 6.99062 12.77V13.8548C6.99062 14.1039 7.19151 14.3048 7.44062 14.3048H9.61026C9.85937 14.3048 10.0603 14.1039 10.0603 13.8548V12.77C10.0603 8.77224 13.6201 5.52179 17.9995 5.52179C22.379 5.52179 25.9388 8.77224 25.9388 12.77C25.9388 14.4093 25.3562 15.9521 24.2513 17.2379C23.1585 18.5115 21.6156 19.4236 19.908 19.8093C18.9317 20.0303 18.0518 20.5807 17.429 21.3682C16.8084 22.153 16.4702 23.1239 16.4687 24.1245V25.3861C16.4687 25.6352 16.6696 25.8361 16.9187 25.8361H19.0884C19.3375 25.8361 19.5384 25.6352 19.5384 25.3861V24.1245C19.5384 23.4937 19.9763 22.9392 20.583 22.8026C22.9295 22.2722 25.0589 21.0066 26.5817 19.2388C27.3491 18.3428 27.9478 17.3463 28.3616 16.2655C28.7915 15.1446 29.0085 13.9673 29.0085 12.77C29.0085 11.3638 28.7112 9.99768 28.1245 8.71599ZM17.9995 29.0504C16.758 29.0504 15.7495 30.0588 15.7495 31.3004C15.7495 32.5419 16.758 33.5504 17.9995 33.5504C19.2411 33.5504 20.2495 32.5419 20.2495 31.3004C20.2495 30.0588 19.2411 29.0504 17.9995 29.0504Z" fill="black" fill-opacity="0.85"/>
</svg>
