<svg width="36" height="36" viewBox="0 0 36 36" fill="none" xmlns="http://www.w3.org/2000/svg">
<g clip-path="url(#clip0_806_7863)">
<path d="M25.3925 16.7162H19.2854V10.609C19.2854 10.4322 19.1408 10.2876 18.964 10.2876H17.0354C16.8586 10.2876 16.714 10.4322 16.714 10.609V16.7162H10.6068C10.43 16.7162 10.2854 16.8608 10.2854 17.0376V18.9662C10.2854 19.143 10.43 19.2876 10.6068 19.2876H16.714V25.3947C16.714 25.5715 16.8586 25.7162 17.0354 25.7162H18.964C19.1408 25.7162 19.2854 25.5715 19.2854 25.3947V19.2876H25.3925C25.5693 19.2876 25.714 19.143 25.714 18.9662V17.0376C25.714 16.8608 25.5693 16.7162 25.3925 16.7162Z" fill="black" fill-opacity="0.85"/>
<path d="M18 0C8.05982 0 0 8.05982 0 18C0 27.9402 8.05982 36 18 36C27.9402 36 36 27.9402 36 18C36 8.05982 27.9402 0 18 0ZM18 32.9464C9.74732 32.9464 3.05357 26.2527 3.05357 18C3.05357 9.74732 9.74732 3.05357 18 3.05357C26.2527 3.05357 32.9464 9.74732 32.9464 18C32.9464 26.2527 26.2527 32.9464 18 32.9464Z" fill="black" fill-opacity="0.85"/>
</g>
<defs>
<clipPath id="clip0_806_7863">
<rect width="36" height="36" fill="white"/>
</clipPath>
</defs>
</svg>
