<svg width="36" height="36" viewBox="0 0 36 36" fill="none" xmlns="http://www.w3.org/2000/svg">
<g clip-path="url(#clip0_806_7944)">
<path d="M18 0C8.05982 0 0 8.05982 0 18C0 27.9402 8.05982 36 18 36C27.9402 36 36 27.9402 36 18C36 8.05982 27.9402 0 18 0ZM18 32.9464C9.74732 32.9464 3.05357 26.2527 3.05357 18C3.05357 9.74732 9.74732 3.05357 18 3.05357C26.2527 3.05357 32.9464 9.74732 32.9464 18C32.9464 26.2527 26.2527 32.9464 18 32.9464Z" fill="black" fill-opacity="0.85"/>
<path d="M25.0195 23.0828L19.29 18.9404V8.99623C19.29 8.81945 19.1454 8.6748 18.9686 8.6748H17.036C16.8592 8.6748 16.7146 8.81945 16.7146 8.99623V20.0614C16.7146 20.1659 16.7628 20.2623 16.8472 20.3226L23.4927 25.1681C23.6374 25.2726 23.8383 25.2404 23.9427 25.0998L25.0918 23.5328C25.1963 23.3842 25.1642 23.1833 25.0195 23.0828Z" fill="black" fill-opacity="0.85"/>
</g>
<defs>
<clipPath id="clip0_806_7944">
<rect width="36" height="36" fill="white"/>
</clipPath>
</defs>
</svg>
