<svg width="36" height="36" viewBox="0 0 36 36" fill="none" xmlns="http://www.w3.org/2000/svg">
<g clip-path="url(#clip0_806_7953)">
<path d="M16.0703 25.0714C16.0703 25.5829 16.2735 26.0734 16.6351 26.4351C16.9968 26.7967 17.4874 26.9999 17.9988 26.9999C18.5103 26.9999 19.0009 26.7967 19.3625 26.4351C19.7242 26.0734 19.9274 25.5829 19.9274 25.0714C19.9274 24.5599 19.7242 24.0693 19.3625 23.7077C19.0009 23.346 18.5103 23.1428 17.9988 23.1428C17.4874 23.1428 16.9968 23.346 16.6351 23.7077C16.2735 24.0693 16.0703 24.5599 16.0703 25.0714ZM18.9631 20.5714C19.1399 20.5714 19.2846 20.4267 19.2846 20.2499V9.32137C19.2846 9.14458 19.1399 8.99994 18.9631 8.99994H17.0346C16.8578 8.99994 16.7131 9.14458 16.7131 9.32137V20.2499C16.7131 20.4267 16.8578 20.5714 17.0346 20.5714H18.9631ZM35.0346 13.0178H32.652C32.5475 13.0178 32.4511 13.066 32.3908 13.1504L28.1118 19.0486L26.1069 16.2843C26.0771 16.2429 26.0379 16.2093 25.9925 16.1862C25.947 16.1631 25.8967 16.1513 25.8457 16.1517H23.4631C23.202 16.1517 23.0493 16.449 23.202 16.662L27.5895 22.7169C27.6495 22.7991 27.7281 22.866 27.8189 22.9121C27.9096 22.9581 28.01 22.9822 28.1118 22.9822C28.2136 22.9822 28.3139 22.9581 28.4047 22.9121C28.4955 22.866 28.5741 22.7991 28.6341 22.7169L35.2957 13.5281C35.4484 13.3151 35.2957 13.0178 35.0346 13.0178ZM33.2667 25.3124H30.6872C30.4663 25.3124 30.2613 25.429 30.1408 25.6138C29.5705 26.5198 28.8993 27.3582 28.1399 28.1129C26.8347 29.4191 25.2888 30.4601 23.5877 31.1785C21.8241 31.9223 19.9289 32.3035 18.0149 32.2995C16.0823 32.2995 14.206 31.9218 12.4421 31.1785C10.741 30.4601 9.19516 29.4191 7.88991 28.1129C6.58044 26.811 5.53772 25.2661 4.82027 23.5647C4.07295 21.8048 3.69527 19.9285 3.69527 17.9999C3.69527 16.0714 4.07295 14.195 4.82027 12.4352C5.53947 10.7316 6.57206 9.20083 7.88991 7.88699C9.20777 6.57315 10.7386 5.54056 12.4421 4.82137C14.2057 4.07759 16.1009 3.69636 18.0149 3.70039C19.9475 3.70039 21.8238 4.07806 23.5877 4.82137C25.2913 5.54056 26.8221 6.57315 28.1399 7.88699C28.9033 8.65038 29.5703 9.4861 30.1408 10.3861C30.2573 10.5749 30.4663 10.6874 30.6872 10.6874H33.2667C33.5078 10.6874 33.6604 10.4343 33.556 10.2214C30.7274 4.60039 24.9377 0.723153 18.2279 0.642796C8.63322 0.530296 0.661791 8.37717 0.641701 17.9678C0.621612 27.5665 8.40822 35.3571 18.0149 35.3571C24.8131 35.3571 30.6953 31.4598 33.552 25.7785C33.5766 25.7296 33.5883 25.6753 33.5861 25.6206C33.5838 25.5659 33.5676 25.5127 33.5391 25.4661C33.5105 25.4194 33.4705 25.3808 33.4228 25.3539C33.3752 25.327 33.3214 25.3127 33.2667 25.3124Z" fill="black" fill-opacity="0.85"/>
</g>
<defs>
<clipPath id="clip0_806_7953">
<rect width="36" height="36" fill="white"/>
</clipPath>
</defs>
</svg>
