<svg width="36" height="36" viewBox="0 0 36 36" fill="none" xmlns="http://www.w3.org/2000/svg">
<path d="M27.8926 31.14C31.6533 28.199 34.0721 23.6186 34.0721 18.4758C34.0721 9.60031 26.9002 2.42039 18.0247 2.40834C9.13723 2.39629 1.9292 9.59227 1.9292 18.4758C1.9292 23.5061 4.23947 27.9941 7.85956 30.9391C8.00018 31.0516 8.20509 31.0275 8.31759 30.8869L9.90063 28.8579C10.0091 28.7213 9.985 28.5244 9.85241 28.4119C9.52697 28.1467 9.21357 27.8615 8.91223 27.5601C7.73749 26.3895 6.8014 25.0017 6.15599 23.474C5.48099 21.8949 5.14349 20.2115 5.14349 18.4758C5.14349 16.74 5.48099 15.0566 6.15197 13.4735C6.79884 11.9427 7.72697 10.5686 8.90822 9.38736C10.0895 8.20611 11.4636 7.27798 12.9944 6.63111C14.5814 5.96013 16.2649 5.62263 18.0006 5.62263C19.7363 5.62263 21.4198 5.96013 23.0029 6.63111C24.5337 7.27798 25.9078 8.20611 27.089 9.38736C28.2703 10.5686 29.1984 11.9427 29.8453 13.4735C30.5163 15.0566 30.8538 16.74 30.8538 18.4758C30.8538 20.2115 30.5163 21.8949 29.8453 23.478C29.1999 25.0057 28.2638 26.3935 27.089 27.5641C26.7154 27.9378 26.3216 28.2874 25.9118 28.6088L24.2765 26.5155C24.2395 26.4676 24.1897 26.4312 24.1329 26.4104C24.0761 26.3895 24.0146 26.3852 23.9554 26.3978C23.8962 26.4104 23.8418 26.4394 23.7984 26.4815C23.755 26.5237 23.7243 26.5772 23.71 26.636L22.1189 33.153C22.0707 33.3539 22.2234 33.5508 22.4283 33.5508L29.1381 33.5829C29.4073 33.5829 29.56 33.2735 29.3913 33.0646L27.8926 31.14Z" fill="black" fill-opacity="0.85"/>
</svg>
