<svg width="36" height="36" viewBox="0 0 36 36" fill="none" xmlns="http://www.w3.org/2000/svg">
<path d="M23.4661 3.8584H1.60897C1.43218 3.8584 1.28754 4.00304 1.28754 4.17983V9.32268C1.28754 9.49947 1.43218 9.64411 1.60897 9.64411H3.85897C4.03575 9.64411 4.18039 9.49947 4.18039 9.32268V6.75126H10.9304V29.2513H7.23397C7.05718 29.2513 6.91254 29.3959 6.91254 29.5727V31.8227C6.91254 31.9995 7.05718 32.1441 7.23397 32.1441H17.8411C18.0179 32.1441 18.1625 31.9995 18.1625 31.8227V29.5727C18.1625 29.3959 18.0179 29.2513 17.8411 29.2513H14.1447V6.75126H20.8947V9.32268C20.8947 9.49947 21.0393 9.64411 21.2161 9.64411H23.4661C23.6429 9.64411 23.7875 9.49947 23.7875 9.32268V4.17983C23.7875 4.00304 23.6429 3.8584 23.4661 3.8584ZM34.4268 25.7959H31.8233V10.2066H34.4268C34.6679 10.2066 34.8045 9.92536 34.6558 9.73652L30.6058 4.60974C30.579 4.57505 30.5446 4.54696 30.5053 4.52763C30.4659 4.50831 30.4227 4.49826 30.3788 4.49826C30.335 4.49826 30.2917 4.50831 30.2524 4.52763C30.213 4.54696 30.1786 4.57505 30.1518 4.60974L26.1018 9.73652C26.0681 9.77942 26.0471 9.83095 26.0413 9.88522C26.0355 9.93948 26.0451 9.99429 26.069 10.0433C26.0929 10.0924 26.1301 10.1337 26.1764 10.1626C26.2228 10.1915 26.2763 10.2067 26.3308 10.2066H28.9304V25.7959H26.3268C26.0858 25.7959 25.9491 26.0772 26.0978 26.266L30.1478 31.3888C30.2643 31.5374 30.4893 31.5374 30.6018 31.3888L34.6518 26.266C34.6858 26.2235 34.7072 26.1723 34.7134 26.1182C34.7196 26.0641 34.7104 26.0094 34.6869 25.9603C34.6634 25.9112 34.6266 25.8697 34.5806 25.8406C34.5345 25.8116 34.4813 25.7961 34.4268 25.7959Z" fill="black" fill-opacity="0.85"/>
</svg>
