<svg width="36" height="36" viewBox="0 0 36 36" fill="none" xmlns="http://www.w3.org/2000/svg">
<g clip-path="url(#clip0_806_7989)">
<path d="M16.5537 13.4638C16.5537 13.3071 16.4292 13.1786 16.2725 13.1786H14.585C14.4323 13.1786 14.3037 13.3071 14.3037 13.4638V16.875H10.9086C10.7439 16.875 10.6073 16.9996 10.6073 17.1562V18.8438C10.6073 18.9964 10.7439 19.125 10.9086 19.125H14.3037V22.5362C14.3037 22.6929 14.4323 22.8214 14.585 22.8214H16.2725C16.4292 22.8214 16.5537 22.6929 16.5537 22.5362V19.125H19.9488C20.1135 19.125 20.2502 18.9964 20.2502 18.8438V17.1562C20.2502 16.9996 20.1135 16.875 19.9488 16.875H16.5537V13.4638ZM19.9488 25.7143H10.9086C10.7439 25.7143 10.6073 25.8429 10.6073 25.9955V27.683C10.6073 27.8357 10.7439 27.9643 10.9086 27.9643H19.9488C20.1135 27.9643 20.2502 27.8357 20.2502 27.683V25.9955C20.2502 25.8429 20.1135 25.7143 19.9488 25.7143ZM19.6635 5.52054C19.4225 5.27946 19.097 5.14286 18.7555 5.14286H5.14301C4.43185 5.14286 3.85729 5.71741 3.85729 6.42857V34.7143C3.85729 35.4254 4.43185 36 5.14301 36H25.7144C26.4256 36 27.0002 35.4254 27.0002 34.7143V13.3915C27.0002 13.05 26.8635 12.7246 26.6225 12.4835L19.6635 5.52054ZM24.1073 33.1071H6.75015V8.03571H18.0885L24.1073 14.0545V33.1071ZM31.7493 9.74732L21.9899 0.357589C21.7488 0.128571 21.4314 0 21.0979 0H9.32158C9.14479 0 9.00015 0.144643 9.00015 0.321429V2.57143C9.00015 2.74821 9.14479 2.89286 9.32158 2.89286H20.451L29.2502 11.3545V30.5357C29.2502 30.7125 29.3948 30.8571 29.5716 30.8571H31.8216C31.9984 30.8571 32.143 30.7125 32.143 30.5357V10.6714C32.143 10.3219 32.0024 9.98839 31.7493 9.74732Z" fill="black" fill-opacity="0.85"/>
</g>
<defs>
<clipPath id="clip0_806_7989">
<rect width="36" height="36" fill="white"/>
</clipPath>
</defs>
</svg>
