<svg width="36" height="36" viewBox="0 0 36 36" fill="none" xmlns="http://www.w3.org/2000/svg">
<path d="M34.3925 14.1441H22.1783C22.0015 14.1441 21.8568 14.2888 21.8568 14.4655V18.9655C21.8568 19.1423 22.0015 19.287 22.1783 19.287H24.1068C24.2836 19.287 24.4283 19.1423 24.4283 18.9655V16.7155H26.839V29.5727H24.9908C24.814 29.5727 24.6693 29.7173 24.6693 29.8941V31.8227C24.6693 31.9995 24.814 32.1441 24.9908 32.1441H31.58C31.7568 32.1441 31.9015 31.9995 31.9015 31.8227V29.8941C31.9015 29.7173 31.7568 29.5727 31.58 29.5727H29.7318V16.7155H32.1425V18.9655C32.1425 19.1423 32.2872 19.287 32.464 19.287H34.3925C34.5693 19.287 34.714 19.1423 34.714 18.9655V14.4655C34.714 14.2888 34.5693 14.1441 34.3925 14.1441ZM23.7854 9.32268V4.17983C23.7854 4.00304 23.6408 3.8584 23.464 3.8584H1.60683C1.43004 3.8584 1.2854 4.00304 1.2854 4.17983V9.32268C1.2854 9.49947 1.43004 9.64411 1.60683 9.64411H3.85683C4.03361 9.64411 4.17826 9.49947 4.17826 9.32268V6.75126H10.9283V29.2513H7.23183C7.05504 29.2513 6.9104 29.3959 6.9104 29.5727V31.8227C6.9104 31.9995 7.05504 32.1441 7.23183 32.1441H17.839C18.0158 32.1441 18.1604 31.9995 18.1604 31.8227V29.5727C18.1604 29.3959 18.0158 29.2513 17.839 29.2513H14.1425V6.75126H20.8925V9.32268C20.8925 9.49947 21.0372 9.64411 21.214 9.64411H23.464C23.6408 9.64411 23.7854 9.49947 23.7854 9.32268Z" fill="black" fill-opacity="0.85"/>
</svg>
