<svg width="36" height="36" viewBox="0 0 36 36" fill="none" xmlns="http://www.w3.org/2000/svg">
<path d="M20.2148 17.9976L33.0117 5.16859C33.2126 4.9677 33.0719 4.61815 32.7867 4.61815H29.1505C29.0661 4.61815 28.9817 4.65029 28.9255 4.71056L17.9447 15.7195L14.3206 12.0833C14.8228 11.1954 15.1121 10.1708 15.1121 9.07797C15.1121 5.70699 12.3759 2.97083 9.00496 2.97083C5.63398 2.97083 2.89782 5.70699 2.89782 9.07797C2.89782 12.449 5.63398 15.1851 9.00496 15.1851C10.1179 15.1851 11.1585 14.8878 12.0545 14.3695L15.6706 17.9976L12.0505 21.6257C11.1237 21.0896 10.0716 20.8082 9.00094 20.8101C5.62996 20.8101 2.8938 23.5463 2.8938 26.9173C2.8938 30.2882 5.62996 33.0244 9.00094 33.0244C12.3719 33.0244 15.1081 30.2882 15.1081 26.9173C15.1081 25.8244 14.8188 24.7998 14.3166 23.9119L17.9407 20.2757L28.9215 31.2847C28.9817 31.3449 29.0621 31.3771 29.1465 31.3771H32.7867C33.0719 31.3771 33.2166 31.0315 33.0117 30.8266L20.2148 17.9976ZM9.00094 12.2923C7.22907 12.2923 5.78666 10.8498 5.78666 9.07797C5.78666 7.30609 7.22907 5.86368 9.00094 5.86368C10.7728 5.86368 12.2152 7.30609 12.2152 9.07797C12.2152 10.8498 10.7728 12.2923 9.00094 12.2923ZM9.00094 30.1315C7.22907 30.1315 5.78666 28.6891 5.78666 26.9173C5.78666 25.1454 7.22907 23.703 9.00094 23.703C10.7728 23.703 12.2152 25.1454 12.2152 26.9173C12.2152 28.6891 10.7728 30.1315 9.00094 30.1315Z" fill="black" fill-opacity="0.85"/>
</svg>
