<svg width="36" height="36" viewBox="0 0 36 36" fill="none" xmlns="http://www.w3.org/2000/svg">
<path d="M34.3947 27.9668H10.9304C10.7536 27.9668 10.609 28.1114 10.609 28.2882V30.5382C10.609 30.715 10.7536 30.8597 10.9304 30.8597H34.3947C34.5715 30.8597 34.7161 30.715 34.7161 30.5382V28.2882C34.7161 28.1114 34.5715 27.9668 34.3947 27.9668ZM34.3947 5.14537H10.9304C10.7536 5.14537 10.609 5.29001 10.609 5.4668V7.7168C10.609 7.89358 10.7536 8.03823 10.9304 8.03823H34.3947C34.5715 8.03823 34.7161 7.89358 34.7161 7.7168V5.4668C34.7161 5.29001 34.5715 5.14537 34.3947 5.14537ZM34.3947 16.5561H10.9304C10.7536 16.5561 10.609 16.7007 10.609 16.8775V19.1275C10.609 19.3043 10.7536 19.4489 10.9304 19.4489H34.3947C34.5715 19.4489 34.7161 19.3043 34.7161 19.1275V16.8775C34.7161 16.7007 34.5715 16.5561 34.3947 16.5561ZM6.10897 26.0382H1.44825C1.35986 26.0382 1.28754 26.1105 1.28754 26.1989V27.565C1.28754 27.6534 1.35986 27.7257 1.44825 27.7257H4.35718V28.5494H2.9228C2.83441 28.5494 2.76209 28.6217 2.76209 28.7101V30.0762C2.76209 30.1646 2.83441 30.2369 2.9228 30.2369H4.35718V31.1007H1.44825C1.35986 31.1007 1.28754 31.173 1.28754 31.2614V32.6275C1.28754 32.7159 1.35986 32.7882 1.44825 32.7882H6.10897C6.19736 32.7882 6.26968 32.7159 6.26968 32.6275V26.1989C6.26968 26.1105 6.19736 26.0382 6.10897 26.0382ZM1.44825 4.98465H2.97504V9.80608C2.97504 9.89448 3.04736 9.9668 3.13575 9.9668H4.74289C4.83129 9.9668 4.90361 9.89448 4.90361 9.80608V3.53823C4.90361 3.36144 4.75897 3.2168 4.58218 3.2168H1.44825C1.35986 3.2168 1.28754 3.28912 1.28754 3.37751V4.82394C1.28754 4.91233 1.35986 4.98465 1.44825 4.98465ZM6.10897 14.6275H1.44825C1.35986 14.6275 1.28754 14.6998 1.28754 14.7882V16.2347C1.28754 16.323 1.35986 16.3954 1.44825 16.3954H4.19647L1.37191 19.5172C1.31864 19.5771 1.28869 19.6541 1.28754 19.7342V21.2168C1.28754 21.3052 1.35986 21.3775 1.44825 21.3775H6.10897C6.19736 21.3775 6.26968 21.3052 6.26968 21.2168V19.7704C6.26968 19.682 6.19736 19.6097 6.10897 19.6097H3.36075L6.1853 16.4878C6.23858 16.4279 6.26853 16.3509 6.26968 16.2708V14.7882C6.26968 14.6998 6.19736 14.6275 6.10897 14.6275Z" fill="black" fill-opacity="0.85"/>
</svg>
