<svg width="36" height="36" viewBox="0 0 36 36" fill="none" xmlns="http://www.w3.org/2000/svg">
<path d="M17.9765 2.40834C9.10107 2.42039 1.9292 9.60031 1.9292 18.4758C1.9292 23.6186 4.34795 28.199 8.10866 31.14L6.60197 33.0686C6.43724 33.2816 6.58991 33.5909 6.85509 33.5869L13.5649 33.5548C13.7738 33.5548 13.9265 33.3579 13.8743 33.157L12.2872 26.636C12.2729 26.5772 12.2423 26.5237 12.1989 26.4815C12.1555 26.4394 12.101 26.4104 12.0418 26.3978C11.9827 26.3852 11.9211 26.3895 11.8643 26.4104C11.8075 26.4312 11.7577 26.4676 11.7207 26.5155L10.0855 28.6088C9.67563 28.2874 9.28188 27.9378 8.90822 27.5641C7.73348 26.3935 6.79738 25.0057 6.15197 23.478C5.48099 21.8949 5.14349 20.2115 5.14349 18.4758C5.14349 16.74 5.48099 15.0566 6.15197 13.4735C6.79884 11.9427 7.72697 10.5686 8.90822 9.38736C10.0895 8.20611 11.4636 7.27798 12.9944 6.63111C14.5814 5.96013 16.2649 5.62263 18.0006 5.62263C19.7363 5.62263 21.4198 5.96013 23.0029 6.63111C24.5337 7.27798 25.9078 8.20611 27.089 9.38736C28.2703 10.5686 29.1984 11.9427 29.8453 13.4735C30.5163 15.0566 30.8538 16.74 30.8538 18.4758C30.8538 20.2115 30.5163 21.8949 29.8453 23.478C29.1999 25.0057 28.2638 26.3935 27.089 27.5641C26.7877 27.8655 26.4743 28.1467 26.1488 28.4159C26.0836 28.4689 26.042 28.5455 26.033 28.629C26.0239 28.7125 26.0482 28.7962 26.1006 28.8619L27.6837 30.8909C27.7962 31.0316 28.0011 31.0557 28.1417 30.9432C31.7618 27.9941 34.0721 23.5061 34.0721 18.4758C34.0721 9.59227 26.864 2.39629 17.9765 2.40834Z" fill="black" fill-opacity="0.85"/>
</svg>
