<svg width="36" height="36" viewBox="0 0 36 36" fill="none" xmlns="http://www.w3.org/2000/svg">
<g clip-path="url(#clip0_806_8026)">
<path d="M35.6786 16.4756H20.3263C19.9246 16.3952 19.5027 16.3149 19.0567 16.2345C18.4179 16.118 18.1647 16.0698 17.8192 16.0015C15.758 15.5997 14.5165 15.1979 13.5281 14.6274C12.1179 13.8037 11.4308 12.6868 11.4308 11.2082C11.4308 9.72159 12.0415 8.4881 13.1987 7.6323C14.3397 6.78855 15.9629 6.34257 17.8915 6.34257C20.0933 6.34257 21.7929 6.92114 22.946 8.06221C23.5326 8.64078 23.9625 9.35194 24.2237 10.1756C24.2759 10.3403 24.3362 10.5774 24.3964 10.8908C24.4326 11.0836 24.6054 11.2202 24.7942 11.2202H27.7192C27.9442 11.2202 28.125 11.0354 28.125 10.8144V10.7743C28.0969 10.5011 28.0728 10.2881 28.0446 10.1314C27.7513 8.38364 26.9196 6.84882 25.646 5.69971C23.8621 4.07248 21.2384 3.21667 18.0643 3.21667C15.1594 3.21667 12.5437 3.94391 10.6996 5.26176C9.67098 6.00105 8.87545 6.91712 8.34509 7.98185C7.80268 9.07069 7.52946 10.3283 7.52946 11.7144C7.52946 12.8997 7.75848 13.9042 8.22455 14.7881C8.55804 15.4189 9.01205 15.9734 9.59464 16.4756H0.321429C0.144643 16.4756 0 16.6202 0 16.797V19.2077C0 19.3845 0.144643 19.5292 0.321429 19.5292H17.7268C17.8112 19.5452 17.8835 19.5613 17.9638 19.5774C19.2054 19.8265 19.9527 19.9952 20.6397 20.1881C21.5638 20.4493 22.271 20.7225 22.8576 21.0519C24.296 21.8636 24.9991 23.0287 24.9991 24.6278C24.9991 26.0461 24.3763 27.3118 23.2473 28.1957C22.0219 29.156 20.2098 29.6582 18.004 29.6582C16.2482 29.6582 14.7616 29.3167 13.5763 28.6537C12.4071 27.9988 11.6036 27.0546 11.1777 25.8613C11.1455 25.7729 11.1094 25.6524 11.0692 25.4997C11.021 25.3229 10.8562 25.1984 10.6795 25.1984H7.47723C7.25223 25.1984 7.07143 25.3832 7.07143 25.6042V25.6444C7.07946 25.7368 7.0875 25.8131 7.09554 25.8734C7.3567 27.8341 8.31295 29.4412 9.93616 30.6466C11.8286 32.0448 14.4924 32.7841 17.6424 32.7841C21.0254 32.7841 23.8621 31.9886 25.8469 30.4819C26.8513 29.7225 27.6228 28.7863 28.1411 27.7095C28.6634 26.6207 28.9326 25.3832 28.9326 24.0332C28.9326 22.7555 28.6996 21.6868 28.2174 20.7627C27.9844 20.3127 27.6911 19.8988 27.3415 19.5252H35.6786C35.8554 19.5252 36 19.3805 36 19.2037V16.793C35.9989 16.7085 35.9646 16.6277 35.9044 16.5683C35.8443 16.5089 35.7631 16.4756 35.6786 16.4756Z" fill="black" fill-opacity="0.85"/>
</g>
<defs>
<clipPath id="clip0_806_8026">
<rect width="36" height="36" fill="white"/>
</clipPath>
</defs>
</svg>
