<svg width="36" height="36" viewBox="0 0 36 36" fill="none" xmlns="http://www.w3.org/2000/svg">
<path d="M13.3388 3.05106H11.0888C10.912 3.05106 10.7674 3.1957 10.7674 3.37249V5.62249C10.7674 5.79927 10.912 5.94392 11.0888 5.94392H13.3388C13.5156 5.94392 13.6603 5.79927 13.6603 5.62249V3.37249C13.6603 3.1957 13.5156 3.05106 13.3388 3.05106ZM11.571 30.5332H9.32097C9.14419 30.5332 8.99955 30.6778 8.99955 30.8546V33.1046C8.99955 33.2814 9.14419 33.4261 9.32097 33.4261H11.571C11.7478 33.4261 11.8924 33.2814 11.8924 33.1046V30.8546C11.8924 30.6778 11.7478 30.5332 11.571 30.5332ZM32.6245 22.3368H30.3745C30.1978 22.3368 30.0531 22.4814 30.0531 22.6582V24.9082C30.0531 25.085 30.1978 25.2296 30.3745 25.2296H32.6245C32.8013 25.2296 32.946 25.085 32.946 24.9082V22.6582C32.946 22.4814 32.8013 22.3368 32.6245 22.3368ZM5.1424 11.2475H2.8924C2.71562 11.2475 2.57097 11.3921 2.57097 11.5689V13.8189C2.57097 13.9957 2.71562 14.1403 2.8924 14.1403H5.1424C5.31919 14.1403 5.46383 13.9957 5.46383 13.8189V11.5689C5.46383 11.3921 5.31919 11.2475 5.1424 11.2475ZM5.1424 17.6761H2.8924C2.71562 17.6761 2.57097 17.8207 2.57097 17.9975V20.2475C2.57097 20.4243 2.71562 20.5689 2.8924 20.5689H5.1424C5.31919 20.5689 5.46383 20.4243 5.46383 20.2475V17.9975C5.46383 17.8207 5.31919 17.6761 5.1424 17.6761ZM5.1424 24.1046H2.8924C2.71562 24.1046 2.57097 24.2493 2.57097 24.4261V26.6761C2.57097 26.8528 2.71562 26.9975 2.8924 26.9975H5.1424C5.31919 26.9975 5.46383 26.8528 5.46383 26.6761V24.4261C5.46383 24.2493 5.31919 24.1046 5.1424 24.1046ZM5.1424 30.5332H2.8924C2.71562 30.5332 2.57097 30.6778 2.57097 30.8546V33.1046C2.57097 33.2814 2.71562 33.4261 2.8924 33.4261H5.1424C5.31919 33.4261 5.46383 33.2814 5.46383 33.1046V30.8546C5.46383 30.6778 5.31919 30.5332 5.1424 30.5332ZM17.9995 30.5332H15.7495C15.5728 30.5332 15.4281 30.6778 15.4281 30.8546V33.1046C15.4281 33.2814 15.5728 33.4261 15.7495 33.4261H17.9995C18.1763 33.4261 18.321 33.2814 18.321 33.1046V30.8546C18.321 30.6778 18.1763 30.5332 17.9995 30.5332ZM24.4281 30.5332H22.1781C22.0013 30.5332 21.8567 30.6778 21.8567 30.8546V33.1046C21.8567 33.2814 22.0013 33.4261 22.1781 33.4261H24.4281C24.6049 33.4261 24.7495 33.2814 24.7495 33.1046V30.8546C24.7495 30.6778 24.6049 30.5332 24.4281 30.5332ZM30.0531 19.1225C30.0531 19.2993 30.1978 19.4439 30.3745 19.4439H32.6245C32.8013 19.4439 32.946 19.2993 32.946 19.1225V12.2921C32.946 7.18945 28.8076 3.05106 23.7049 3.05106H16.8745C16.6978 3.05106 16.5531 3.1957 16.5531 3.37249V5.62249C16.5531 5.79927 16.6978 5.94392 16.8745 5.94392H23.7049C27.2125 5.94392 30.0531 8.78454 30.0531 12.2921V19.1225ZM6.91026 1.2832H1.12454C0.947759 1.2832 0.803116 1.42785 0.803116 1.60463V7.39035C0.803116 7.56713 0.947759 7.71177 1.12454 7.71177H6.91026C7.08704 7.71177 7.23169 7.56713 7.23169 7.39035V1.60463C7.23169 1.42785 7.08704 1.2832 6.91026 1.2832ZM4.98169 5.36535C4.98169 5.41758 4.93749 5.46177 4.88526 5.46177H3.14954C3.09731 5.46177 3.05312 5.41758 3.05312 5.36535V3.62963C3.05312 3.5774 3.09731 3.5332 3.14954 3.5332H4.88526C4.93749 3.5332 4.98169 3.5774 4.98169 3.62963V5.36535ZM34.3924 28.7653H28.6067C28.4299 28.7653 28.2853 28.91 28.2853 29.0868V34.8725C28.2853 35.0493 28.4299 35.1939 28.6067 35.1939H34.3924C34.5692 35.1939 34.7138 35.0493 34.7138 34.8725V29.0868C34.7138 28.91 34.5692 28.7653 34.3924 28.7653ZM32.4638 32.8475C32.4638 32.8997 32.4196 32.9439 32.3674 32.9439H30.6317C30.5795 32.9439 30.5353 32.8997 30.5353 32.8475V31.1118C30.5353 31.0595 30.5795 31.0153 30.6317 31.0153H32.3674C32.4196 31.0153 32.4638 31.0595 32.4638 31.1118V32.8475Z" fill="black" fill-opacity="0.85"/>
</svg>
