<svg width="36" height="36" viewBox="0 0 36 36" fill="none" xmlns="http://www.w3.org/2000/svg">
<path d="M33.9622 17.7702L28.8354 13.7242C28.7925 13.6905 28.741 13.6695 28.6867 13.6637C28.6324 13.6579 28.5776 13.6675 28.5286 13.6914C28.4795 13.7153 28.4382 13.7525 28.4093 13.7989C28.3804 13.8452 28.3652 13.8987 28.3653 13.9532V16.5528H19.4457V7.63316H22.0492C22.2903 7.63316 22.4269 7.35191 22.2782 7.16307L18.2282 2.03628C18.2014 2.00159 18.167 1.9735 18.1277 1.95418C18.0883 1.93485 18.0451 1.9248 18.0012 1.9248C17.9574 1.9248 17.9141 1.93485 17.8748 1.95418C17.8354 1.9735 17.801 2.00159 17.7742 2.03628L13.7242 7.16307C13.6905 7.20596 13.6695 7.2575 13.6637 7.31176C13.6579 7.36603 13.6675 7.42083 13.6914 7.46989C13.7153 7.51896 13.7525 7.56029 13.7989 7.58917C13.8452 7.61804 13.8987 7.63329 13.9532 7.63316H16.5528V16.5528H7.63316V13.9492C7.63316 13.7082 7.35191 13.5716 7.16307 13.7202L2.03628 17.7702C2.00159 17.797 1.9735 17.8314 1.95418 17.8708C1.93485 17.9101 1.9248 17.9534 1.9248 17.9972C1.9248 18.0411 1.93485 18.0843 1.95418 18.1237C1.9735 18.163 2.00159 18.1974 2.03628 18.2242L7.15905 22.2742C7.34789 22.4229 7.62914 22.2903 7.62914 22.0452V19.4457H16.5488V28.3653H13.9452C13.7041 28.3653 13.5675 28.6466 13.7162 28.8354L17.7662 33.9582C17.8827 34.1068 18.1077 34.1068 18.2202 33.9582L22.2702 28.8354C22.4189 28.6466 22.2863 28.3653 22.0412 28.3653H19.4457V19.4457H28.3653V22.0492C28.3653 22.2903 28.6465 22.4269 28.8354 22.2782L33.9582 18.2282C33.9927 18.2011 34.0208 18.1665 34.0402 18.127C34.0596 18.0875 34.0698 18.0442 34.0702 18.0002C34.0706 17.9562 34.0611 17.9127 34.0424 17.8729C34.0237 17.8331 33.9963 17.798 33.9622 17.7702Z" fill="black" fill-opacity="0.85"/>
</svg>
