<svg width="36" height="36" viewBox="0 0 36 36" fill="none" xmlns="http://www.w3.org/2000/svg">
<path d="M29.4914 3.8584H12.1342C11.9574 3.8584 11.8128 4.00304 11.8128 4.17983V6.75126C11.8128 6.92804 11.9574 7.07268 12.1342 7.07268H19.4146L13.1467 28.9298H6.62976C6.45298 28.9298 6.30833 29.0745 6.30833 29.2513V31.8227C6.30833 31.9995 6.45298 32.1441 6.62976 32.1441H23.9869C24.1637 32.1441 24.3083 31.9995 24.3083 31.8227V29.2513C24.3083 29.0745 24.1637 28.9298 23.9869 28.9298H16.4896L22.7574 7.07268H29.4914C29.6682 7.07268 29.8128 6.92804 29.8128 6.75126V4.17983C29.8128 4.00304 29.6682 3.8584 29.4914 3.8584Z" fill="black" fill-opacity="0.85"/>
</svg>
