<svg width="36" height="36" viewBox="0 0 36 36" fill="none" xmlns="http://www.w3.org/2000/svg">
<path d="M4.66133 4.5H2.25061C2.07383 4.5 1.92918 4.64464 1.92918 4.82143V31.1786C1.92918 31.3554 2.07383 31.5 2.25061 31.5H4.66133C4.83811 31.5 4.98276 31.3554 4.98276 31.1786V4.82143C4.98276 4.64464 4.83811 4.5 4.66133 4.5ZM33.7506 4.5H31.3399C31.1631 4.5 31.0185 4.64464 31.0185 4.82143V31.1786C31.0185 31.3554 31.1631 31.5 31.3399 31.5H33.7506C33.9274 31.5 34.072 31.3554 34.072 31.1786V4.82143C34.072 4.64464 33.9274 4.5 33.7506 4.5ZM28.9814 17.6906L23.8546 13.6446C23.8117 13.6109 23.7602 13.5899 23.7059 13.5841C23.6517 13.5783 23.5969 13.5879 23.5478 13.6118C23.4987 13.6357 23.4574 13.673 23.4285 13.7193C23.3997 13.7656 23.3844 13.8191 23.3845 13.8737V16.5536H12.6167V14.0304C12.6167 13.7893 12.3354 13.6527 12.1466 13.8013L7.01981 17.8513C6.98512 17.8781 6.95703 17.9125 6.93771 17.9519C6.91838 17.9913 6.90833 18.0345 6.90833 18.0784C6.90833 18.1222 6.91838 18.1654 6.93771 18.2048C6.95703 18.2442 6.98512 18.2786 7.01981 18.3054L12.1426 22.3554C12.3314 22.504 12.6127 22.3714 12.6127 22.1263V19.4464H23.3805V21.9696C23.3805 22.2107 23.6618 22.3473 23.8506 22.1987L28.9734 18.1487C29.1261 18.0321 29.1261 17.8071 28.9814 17.6906Z" fill="black" fill-opacity="0.85"/>
</svg>
