<svg width="36" height="36" viewBox="0 0 36 36" fill="none" xmlns="http://www.w3.org/2000/svg">
<path d="M31.1786 31.0141H4.82143C4.64464 31.0141 4.5 31.1587 4.5 31.3355V33.7462C4.5 33.923 4.64464 34.0677 4.82143 34.0677H31.1786C31.3554 34.0677 31.5 33.923 31.5 33.7462V31.3355C31.5 31.1587 31.3554 31.0141 31.1786 31.0141ZM31.1786 1.9248H4.82143C4.64464 1.9248 4.5 2.06945 4.5 2.24623V4.65695C4.5 4.83373 4.64464 4.97838 4.82143 4.97838H31.1786C31.3554 4.97838 31.5 4.83373 31.5 4.65695V2.24623C31.5 2.06945 31.3554 1.9248 31.1786 1.9248ZM21.9696 12.6123C22.2107 12.6123 22.3473 12.3311 22.1987 12.1422L18.1487 7.01543C18.1219 6.98074 18.0875 6.95265 18.0481 6.93333C18.0088 6.914 17.9655 6.90395 17.9217 6.90395C17.8778 6.90395 17.8346 6.914 17.7952 6.93333C17.7558 6.95265 17.7214 6.98074 17.6946 7.01543L13.6446 12.1422C13.6109 12.1851 13.5899 12.2366 13.5841 12.2909C13.5783 12.3452 13.5879 12.4 13.6118 12.449C13.6357 12.4981 13.673 12.5394 13.7193 12.5683C13.7656 12.5972 13.8191 12.6124 13.8737 12.6123H16.5536V23.3802H14.0304C13.7893 23.3802 13.6527 23.6614 13.8013 23.8503L17.8513 28.973C17.9679 29.1217 18.1929 29.1217 18.3054 28.973L22.3554 23.8503C22.504 23.6614 22.3714 23.3802 22.1263 23.3802H19.4464V12.6123H21.9696Z" fill="black" fill-opacity="0.85"/>
</svg>
