<svg width="36" height="36" viewBox="0 0 36 36" fill="none" xmlns="http://www.w3.org/2000/svg">
<path d="M2.25063 6.67203H22.1792C22.356 6.67203 22.5006 6.52739 22.5006 6.3506V4.1006C22.5006 3.92382 22.356 3.77917 22.1792 3.77917H2.25063C2.07384 3.77917 1.9292 3.92382 1.9292 4.1006V6.3506C1.9292 6.52739 2.07384 6.67203 2.25063 6.67203ZM2.25063 23.7077H22.1792C22.356 23.7077 22.5006 23.5631 22.5006 23.3863V21.1363C22.5006 20.9595 22.356 20.8149 22.1792 20.8149H2.25063C2.07384 20.8149 1.9292 20.9595 1.9292 21.1363V23.3863C1.9292 23.5631 2.07384 23.7077 2.25063 23.7077ZM33.7506 29.3327H2.25063C2.07384 29.3327 1.9292 29.4774 1.9292 29.6542V31.9042C1.9292 32.081 2.07384 32.2256 2.25063 32.2256H33.7506C33.9274 32.2256 34.0721 32.081 34.0721 31.9042V29.6542C34.0721 29.4774 33.9274 29.3327 33.7506 29.3327ZM33.7506 12.297H2.25063C2.07384 12.297 1.9292 12.4417 1.9292 12.6185V14.8685C1.9292 15.0452 2.07384 15.1899 2.25063 15.1899H33.7506C33.9274 15.1899 34.0721 15.0452 34.0721 14.8685V12.6185C34.0721 12.4417 33.9274 12.297 33.7506 12.297Z" fill="black" fill-opacity="0.85"/>
</svg>
