<svg width="36" height="36" viewBox="0 0 36 36" fill="none" xmlns="http://www.w3.org/2000/svg">
<path d="M30.5366 29.7345H5.4652C5.28841 29.7345 5.14377 29.8711 5.14377 30.0399V32.4827C5.14377 32.6515 5.28841 32.7881 5.4652 32.7881H30.5366C30.7134 32.7881 30.8581 32.6515 30.8581 32.4827V30.0399C30.8581 29.8711 30.7134 29.7345 30.5366 29.7345ZM18.0009 26.681C20.7893 26.681 23.4089 25.5921 25.3857 23.6194C27.3625 21.6466 28.4473 19.0229 28.4473 16.2345V3.69882C28.4473 3.43364 28.2304 3.21667 27.9652 3.21667H25.5545C25.2893 3.21667 25.0723 3.43364 25.0723 3.69882V16.2345C25.0723 20.1319 21.8982 23.306 18.0009 23.306C14.1036 23.306 10.9295 20.1319 10.9295 16.2345V3.69882C10.9295 3.43364 10.7125 3.21667 10.4473 3.21667H8.03663C7.77145 3.21667 7.55448 3.43364 7.55448 3.69882V16.2345C7.55448 19.0229 8.64332 21.6426 10.6161 23.6194C12.5889 25.5961 15.2125 26.681 18.0009 26.681Z" fill="black" fill-opacity="0.85"/>
</svg>
