<svg width="36" height="36" viewBox="0 0 36 36" fill="none" xmlns="http://www.w3.org/2000/svg">
<path d="M25.4652 16.7742C26.8152 15.3679 27.6429 13.4675 27.6429 11.3782V10.9684C27.6429 6.64516 24.1031 3.13757 19.7397 3.13757H7.85089C7.2442 3.13757 6.75 3.63177 6.75 4.23847V31.5237C6.75 32.1786 7.28036 32.709 7.93527 32.709H20.7402C25.4411 32.709 29.25 28.9242 29.25 24.2514V23.8095C29.25 20.8764 27.7473 18.2929 25.4652 16.7742ZM10.6071 6.99472H19.6353C21.9295 6.99472 23.7857 8.77864 23.7857 10.9844V11.3661C23.7857 13.5679 21.9254 15.3559 19.6353 15.3559H10.6071V6.99472ZM25.3366 24.2474C25.3366 26.7746 23.2594 28.8237 20.696 28.8237H10.6071V19.2371H20.696C23.2594 19.2371 25.3366 21.2862 25.3366 23.8135V24.2474Z" fill="black" fill-opacity="0.85"/>
</svg>
