<svg width="36" height="36" viewBox="0 0 36 36" fill="none" xmlns="http://www.w3.org/2000/svg">
<path d="M31.1621 14.8606L27.5219 3.47797C27.4983 3.4018 27.4507 3.33528 27.3863 3.28824C27.3219 3.2412 27.2441 3.21616 27.1643 3.21681H24.0545C23.8898 3.21681 23.7491 3.32127 23.6969 3.47797L20.0286 14.8606C20.0166 14.8967 20.0085 14.9369 20.0085 14.9771C20.0085 15.182 20.1773 15.3507 20.3822 15.3507H22.6482C22.817 15.3507 22.9616 15.2382 23.0099 15.0775L23.713 12.6025H27.2889L27.984 15.0735C28.0282 15.2342 28.1768 15.3467 28.3456 15.3467H30.8045C30.8447 15.3467 30.8808 15.3427 30.917 15.3306C31.0134 15.2985 31.0898 15.2342 31.138 15.1458C31.1822 15.0574 31.1902 14.957 31.1621 14.8606ZM24.0786 10.5092L25.3965 5.81235H25.6496L26.9393 10.5092H24.0786ZM29.8442 30.3132H24.6371V30.2972L29.9648 22.7074C30.009 22.6431 30.0331 22.5708 30.0331 22.4905V21.028C30.0331 20.8231 29.8643 20.6543 29.6594 20.6543H21.463C21.2581 20.6543 21.0893 20.8231 21.0893 21.028V22.7556C21.0893 22.9606 21.2581 23.1293 21.463 23.1293H26.3889V23.1454L21.0411 30.7351C20.9965 30.7986 20.9726 30.8744 20.9728 30.9521V32.4146C20.9728 32.6195 21.1416 32.7882 21.3465 32.7882H29.8402C30.0451 32.7882 30.2139 32.6195 30.2139 32.4146V30.6869C30.2144 30.638 30.2052 30.5895 30.1869 30.5442C30.1686 30.4989 30.1414 30.4577 30.107 30.4229C30.0727 30.3882 30.0317 30.3606 29.9866 30.3418C29.9415 30.3229 29.8931 30.3132 29.8442 30.3132ZM9.89557 4.14493C9.8655 4.10652 9.82709 4.07545 9.78323 4.05408C9.73937 4.03271 9.69123 4.02161 9.64244 4.02161C9.59366 4.02161 9.54551 4.03271 9.50166 4.05408C9.4578 4.07545 9.41938 4.10652 9.38932 4.14493L4.88932 9.84627C4.72057 10.0592 4.87325 10.3686 5.14244 10.3686H8.19601V31.6632C8.19601 31.84 8.34066 31.9847 8.51744 31.9847H10.7674C10.9442 31.9847 11.0889 31.84 11.0889 31.6632V10.3686H14.1424C14.4116 10.3686 14.5643 10.0552 14.3956 9.84627L9.89557 4.14493Z" fill="black" fill-opacity="0.85"/>
</svg>
