<svg width="36" height="36" viewBox="0 0 36 36" fill="none" xmlns="http://www.w3.org/2000/svg">
<path d="M33.7506 30.2106H2.2506C2.07381 30.2106 1.92917 30.3553 1.92917 30.5321V33.7464C1.92917 33.9231 2.07381 34.0678 2.2506 34.0678H33.7506C33.9274 34.0678 34.072 33.9231 34.072 33.7464V30.5321C34.072 30.3553 33.9274 30.2106 33.7506 30.2106ZM7.62247 26.9964H11.0377C11.2064 26.9964 11.3591 26.8879 11.4113 26.7231L13.5689 20.0535H22.376L24.5135 26.7231C24.5658 26.8839 24.7144 26.9964 24.8872 26.9964H28.4671C28.5113 26.9964 28.5555 26.9883 28.5957 26.9763C28.6444 26.9596 28.6892 26.9334 28.7277 26.8993C28.7662 26.8651 28.7976 26.8237 28.82 26.7774C28.8424 26.7311 28.8555 26.6808 28.8583 26.6294C28.8612 26.578 28.8539 26.5266 28.8368 26.4781L20.4756 2.19011C20.4485 2.11341 20.3985 2.04687 20.3324 1.99946C20.2663 1.95204 20.1873 1.92603 20.106 1.92493H15.9957C15.8269 1.92493 15.6783 2.02939 15.626 2.19011L7.25283 26.4781C7.23676 26.5182 7.23274 26.5624 7.23274 26.6066C7.22872 26.8196 7.40551 26.9964 7.62247 26.9964ZM17.9042 6.26019H18.0689L21.4359 16.8593H14.501L17.9042 6.26019Z" fill="black" fill-opacity="0.85"/>
</svg>
