<svg width="36" height="36" viewBox="0 0 36 36" fill="none" xmlns="http://www.w3.org/2000/svg">
<path d="M34.0726 5.14537H10.6083C10.4316 5.14537 10.2869 5.29001 10.2869 5.4668V7.7168C10.2869 7.89358 10.4316 8.03823 10.6083 8.03823H34.0726C34.2494 8.03823 34.3941 7.89358 34.3941 7.7168V5.4668C34.3941 5.29001 34.2494 5.14537 34.0726 5.14537ZM34.0726 16.5561H10.6083C10.4316 16.5561 10.2869 16.7007 10.2869 16.8775V19.1275C10.2869 19.3043 10.4316 19.4489 10.6083 19.4489H34.0726C34.2494 19.4489 34.3941 19.3043 34.3941 19.1275V16.8775C34.3941 16.7007 34.2494 16.5561 34.0726 16.5561ZM34.0726 27.9668H10.6083C10.4316 27.9668 10.2869 28.1114 10.2869 28.2882V30.5382C10.2869 30.715 10.4316 30.8597 10.6083 30.8597H34.0726C34.2494 30.8597 34.3941 30.715 34.3941 30.5382V28.2882C34.3941 28.1114 34.2494 27.9668 34.0726 27.9668ZM1.60834 6.5918C1.60834 6.88727 1.66654 7.17985 1.77961 7.45283C1.89268 7.72582 2.05842 7.97386 2.26735 8.18279C2.47628 8.39172 2.72432 8.55745 2.9973 8.67053C3.27028 8.7836 3.56286 8.8418 3.85834 8.8418C4.15381 8.8418 4.44639 8.7836 4.71938 8.67053C4.99236 8.55745 5.2404 8.39172 5.44933 8.18279C5.65826 7.97386 5.82399 7.72582 5.93707 7.45283C6.05014 7.17985 6.10834 6.88727 6.10834 6.5918C6.10834 6.29632 6.05014 6.00374 5.93707 5.73076C5.82399 5.45778 5.65826 5.20974 5.44933 5.00081C5.2404 4.79187 4.99236 4.62614 4.71938 4.51307C4.44639 4.39999 4.15381 4.3418 3.85834 4.3418C3.56286 4.3418 3.27028 4.39999 2.9973 4.51307C2.72432 4.62614 2.47628 4.79187 2.26735 5.00081C2.05842 5.20974 1.89268 5.45778 1.77961 5.73076C1.66654 6.00374 1.60834 6.29632 1.60834 6.5918ZM1.60834 18.0025C1.60834 18.298 1.66654 18.5906 1.77961 18.8636C1.89268 19.1365 2.05842 19.3846 2.26735 19.5935C2.47628 19.8024 2.72432 19.9682 2.9973 20.0812C3.27028 20.1943 3.56286 20.2525 3.85834 20.2525C4.15381 20.2525 4.44639 20.1943 4.71938 20.0812C4.99236 19.9682 5.2404 19.8024 5.44933 19.5935C5.65826 19.3846 5.82399 19.1365 5.93707 18.8636C6.05014 18.5906 6.10834 18.298 6.10834 18.0025C6.10834 17.707 6.05014 17.4145 5.93707 17.1415C5.82399 16.8685 5.65826 16.6205 5.44933 16.4115C5.2404 16.2026 4.99236 16.0369 4.71938 15.9238C4.44639 15.8107 4.15381 15.7525 3.85834 15.7525C3.56286 15.7525 3.27028 15.8107 2.9973 15.9238C2.72432 16.0369 2.47628 16.2026 2.26735 16.4115C2.05842 16.6205 1.89268 16.8685 1.77961 17.1415C1.66654 17.4145 1.60834 17.707 1.60834 18.0025ZM1.60834 29.4132C1.60834 29.7087 1.66654 30.0013 1.77961 30.2743C1.89268 30.5472 2.05842 30.7953 2.26735 31.0042C2.47628 31.2131 2.72432 31.3789 2.9973 31.492C3.27028 31.605 3.56286 31.6632 3.85834 31.6632C4.15381 31.6632 4.44639 31.605 4.71938 31.492C4.99236 31.3789 5.2404 31.2131 5.44933 31.0042C5.65826 30.7953 5.82399 30.5472 5.93707 30.2743C6.05014 30.0013 6.10834 29.7087 6.10834 29.4132C6.10834 29.1178 6.05014 28.8252 5.93707 28.5522C5.82399 28.2792 5.65826 28.0312 5.44933 27.8222C5.2404 27.6133 4.99236 27.4476 4.71938 27.3345C4.44639 27.2214 4.15381 27.1632 3.85834 27.1632C3.56286 27.1632 3.27028 27.2214 2.9973 27.3345C2.72432 27.4476 2.47628 27.6133 2.26735 27.8222C2.05842 28.0312 1.89268 28.2792 1.77961 28.5522C1.66654 28.8252 1.60834 29.1178 1.60834 29.4132Z" fill="black" fill-opacity="0.85"/>
</svg>
