<svg width="36" height="36" viewBox="0 0 36 36" fill="none" xmlns="http://www.w3.org/2000/svg">
<path d="M23.0219 15.2294H10.4862C10.3094 15.2294 10.1648 15.3741 10.1648 15.5509V17.9616C10.1648 18.1384 10.3094 18.283 10.4862 18.283H23.0219C23.1987 18.283 23.3433 18.1384 23.3433 17.9616V15.5509C23.3433 15.3741 23.1987 15.2294 23.0219 15.2294ZM34.4326 32.2652L28.5665 26.3991C33.4723 20.4165 33.1308 11.5531 27.5219 5.94819C21.5755 -0.00226009 11.9165 -0.00226009 5.946 5.94819C-0.0044421 11.9187 -0.0044421 21.5777 5.946 27.5241C11.5509 33.133 20.4143 33.4745 26.3969 28.5687L32.263 34.4348C32.3915 34.5473 32.5965 34.5473 32.7049 34.4348L34.4326 32.7071C34.5451 32.5986 34.5451 32.3937 34.4326 32.2652ZM25.3924 25.3946C20.6192 30.1638 12.8889 30.1638 8.11565 25.3946C3.34645 20.6214 3.34645 12.891 8.11565 8.11783C12.8889 3.34863 20.6192 3.34863 25.3924 8.11783C30.1616 12.891 30.1616 20.6214 25.3924 25.3946Z" fill="black" fill-opacity="0.85"/>
</svg>
