<svg width="36" height="36" viewBox="0 0 36 36" fill="none" xmlns="http://www.w3.org/2000/svg">
<g clip-path="url(#clip0_806_7993)">
<path d="M35.9036 17.8153L21.6643 3.78493C21.6348 3.75529 21.5997 3.73177 21.5611 3.71572C21.5225 3.69967 21.4811 3.69141 21.4393 3.69141C21.3975 3.69141 21.3561 3.69967 21.3175 3.71572C21.2788 3.73177 21.2438 3.75529 21.2143 3.78493L11.6237 13.2349C11.5633 13.2948 11.529 13.3761 11.5283 13.4611C11.5275 13.5461 11.5604 13.628 11.6196 13.6889L11.6237 13.693L13.2308 15.276L8.52188 19.9086C8.46152 19.9685 8.42724 20.0498 8.42649 20.1348C8.42573 20.2198 8.45857 20.3017 8.51786 20.3626L8.52188 20.3666L10.1089 21.9296L2.51116 29.443H0.325446C0.148661 29.443 0 29.5876 0 29.7644V31.9823C0 32.159 0.144643 32.3037 0.321429 32.3037H14.179C14.2634 32.3037 14.3438 32.2715 14.404 32.2113L17.4616 29.1738L19.0848 30.7729C19.1143 30.8025 19.1494 30.826 19.188 30.8421C19.2266 30.8581 19.268 30.8664 19.3098 30.8664C19.3516 30.8664 19.393 30.8581 19.4317 30.8421C19.4703 30.826 19.5053 30.8025 19.5348 30.7729L24.2397 26.1282L25.8509 27.7153C25.8804 27.7449 25.9154 27.7685 25.9541 27.7845C25.9927 27.8006 26.0341 27.8088 26.0759 27.8088C26.1177 27.8088 26.1591 27.8006 26.1977 27.7845C26.2363 27.7685 26.2714 27.7449 26.3009 27.7153L35.8915 18.2653C36.0281 18.1448 36.0281 17.9439 35.9036 17.8153ZM13.0902 29.4189H6.65357L12.0536 24.0751L15.2719 27.2452L13.0902 29.4189ZM19.3098 26.9238L12.4232 20.1376L15.1795 17.4215L22.0661 24.2077L19.3098 26.9238ZM26.0799 23.8662L15.521 13.464L21.4393 7.63404L31.9982 18.0403L26.0799 23.8662Z" fill="black" fill-opacity="0.85"/>
</g>
<defs>
<clipPath id="clip0_806_7993">
<rect width="36" height="36" fill="white"/>
</clipPath>
</defs>
</svg>
