<svg width="36" height="36" viewBox="0 0 36 36" fill="none" xmlns="http://www.w3.org/2000/svg">
<path d="M8.03631 6.67203H27.9649C28.1417 6.67203 28.2863 6.52739 28.2863 6.3506V4.1006C28.2863 3.92382 28.1417 3.77917 27.9649 3.77917H8.03631C7.85953 3.77917 7.71488 3.92382 7.71488 4.1006V6.3506C7.71488 6.52739 7.85953 6.67203 8.03631 6.67203ZM27.9649 23.7077C28.1417 23.7077 28.2863 23.5631 28.2863 23.3863V21.1363C28.2863 20.9595 28.1417 20.8149 27.9649 20.8149H8.03631C7.85953 20.8149 7.71488 20.9595 7.71488 21.1363V23.3863C7.71488 23.5631 7.85953 23.7077 8.03631 23.7077H27.9649ZM33.7506 29.3327H2.2506C2.07381 29.3327 1.92917 29.4774 1.92917 29.6542V31.9042C1.92917 32.081 2.07381 32.2256 2.2506 32.2256H33.7506C33.9274 32.2256 34.072 32.081 34.072 31.9042V29.6542C34.072 29.4774 33.9274 29.3327 33.7506 29.3327ZM33.7506 12.297H2.2506C2.07381 12.297 1.92917 12.4417 1.92917 12.6185V14.8685C1.92917 15.0452 2.07381 15.1899 2.2506 15.1899H33.7506C33.9274 15.1899 34.072 15.0452 34.072 14.8685V12.6185C34.072 12.4417 33.9274 12.297 33.7506 12.297Z" fill="black" fill-opacity="0.85"/>
</svg>
