<svg width="36" height="36" viewBox="0 0 36 36" fill="none" xmlns="http://www.w3.org/2000/svg">
<g clip-path="url(#clip0_806_7972)">
<path d="M30.8562 0H9.32052C9.14373 0 8.99909 0.144643 8.99909 0.321429V2.57143C8.99909 2.74821 9.14373 2.89286 9.32052 2.89286H29.2491V30.5357C29.2491 30.7125 29.3937 30.8571 29.5705 30.8571H31.8205C31.9973 30.8571 32.1419 30.7125 32.1419 30.5357V1.28571C32.1419 0.574554 31.5674 0 30.8562 0ZM25.7134 5.14286H5.14195C4.43079 5.14286 3.85623 5.71741 3.85623 6.42857V27.7513C3.85623 28.0929 3.99284 28.4183 4.23391 28.6594L11.1969 35.6223C11.2853 35.7107 11.3857 35.783 11.4942 35.8433V35.9196H11.6629C11.8036 35.9719 11.9522 36 12.1049 36H25.7134C26.4245 36 26.9991 35.4254 26.9991 34.7143V6.42857C26.9991 5.71741 26.4245 5.14286 25.7134 5.14286ZM11.4902 31.8295L8.03079 28.3661H11.4902V31.8295ZM24.1062 33.1071H14.0616V27.4018C14.0616 26.5138 13.3424 25.7946 12.4544 25.7946H6.74909V8.03571H24.1062V33.1071Z" fill="black" fill-opacity="0.85"/>
</g>
<defs>
<clipPath id="clip0_806_7972">
<rect width="36" height="36" fill="white"/>
</clipPath>
</defs>
</svg>
