<svg width="36" height="36" viewBox="0 0 36 36" fill="none" xmlns="http://www.w3.org/2000/svg">
<path d="M28.2221 27.3294C29.9779 27.3294 31.4122 25.8749 31.4122 24.095C31.4122 21.9455 28.2221 18.4379 28.2221 18.4379C28.2221 18.4379 25.0319 21.9455 25.0319 24.095C25.0319 25.8749 26.4663 27.3294 28.2221 27.3294ZM13.0707 25.5575C13.356 25.8428 13.818 25.8428 14.0993 25.5575L24.389 15.2718C24.6743 14.9866 24.6743 14.5245 24.389 14.2432L14.1033 3.95753C14.0792 3.93343 14.0511 3.90932 14.023 3.88923L10.881 0.747264C10.8125 0.679641 10.7201 0.641724 10.6238 0.641724C10.5276 0.641724 10.4352 0.679641 10.3667 0.747264L8.43813 2.67584C8.37051 2.74434 8.33259 2.83672 8.33259 2.93298C8.33259 3.02924 8.37051 3.12162 8.43813 3.19012L11.1381 5.89012L2.78902 14.2432C2.50375 14.5285 2.50375 14.9906 2.78902 15.2718L13.0707 25.5575ZM13.589 7.53343L20.777 14.7214H6.40509L13.589 7.53343ZM33.7506 30.2102H2.25063C2.07384 30.2102 1.9292 30.3549 1.9292 30.5316V33.7459C1.9292 33.9227 2.07384 34.0674 2.25063 34.0674H33.7506C33.9274 34.0674 34.0721 33.9227 34.0721 33.7459V30.5316C34.0721 30.3549 33.9274 30.2102 33.7506 30.2102Z" fill="black" fill-opacity="0.85"/>
</svg>
