<svg width="36" height="36" viewBox="0 0 36 36" fill="none" xmlns="http://www.w3.org/2000/svg">
<g clip-path="url(#clip0_806_7984)">
<path d="M30.8583 1.92857H26.5191V0.321429C26.5191 0.144643 26.3744 0 26.1976 0H23.9476C23.7708 0 23.6262 0.144643 23.6262 0.321429V1.92857H17.5191V0.321429C17.5191 0.144643 17.3744 0 17.1976 0H14.9476C14.7708 0 14.6262 0.144643 14.6262 0.321429V1.92857H10.2869C9.57575 1.92857 9.00119 2.50312 9.00119 3.21429V8.03571H5.14405C4.43289 8.03571 3.85834 8.61027 3.85834 9.32143V34.7143C3.85834 35.4254 4.43289 36 5.14405 36H25.7155C26.4266 36 27.0012 35.4254 27.0012 34.7143V30.8571H30.8583C31.5695 30.8571 32.1441 30.2826 32.1441 29.5714V3.21429C32.1441 2.50312 31.5695 1.92857 30.8583 1.92857ZM24.1083 33.1071H6.75119V10.9286H15.5101V17.9196C15.5101 18.8076 16.2293 19.5268 17.1173 19.5268H24.1083V33.1071ZM24.1083 16.9554H18.0816V10.9286H18.0896L24.1083 16.9473V16.9554ZM29.2512 27.9643H27.0012V15.75L19.2869 8.03571H11.8941V4.82143H14.6262V6.10714C14.6262 6.28393 14.7708 6.42857 14.9476 6.42857H17.1976C17.3744 6.42857 17.5191 6.28393 17.5191 6.10714V4.82143H23.6262V6.10714C23.6262 6.28393 23.7708 6.42857 23.9476 6.42857H26.1976C26.3744 6.42857 26.5191 6.28393 26.5191 6.10714V4.82143H29.2512V27.9643Z" fill="black" fill-opacity="0.85"/>
</g>
<defs>
<clipPath id="clip0_806_7984">
<rect width="36" height="36" fill="white"/>
</clipPath>
</defs>
</svg>
