<svg width="36" height="36" viewBox="0 0 36 36" fill="none" xmlns="http://www.w3.org/2000/svg">
<path d="M9.07986 6.9259L10.8437 5.16206C10.8862 5.11936 10.9158 5.0656 10.9293 5.00689C10.9427 4.94817 10.9394 4.88686 10.9198 4.82993C10.9001 4.773 10.8648 4.72274 10.818 4.68485C10.7712 4.64697 10.7146 4.62298 10.6549 4.61563L4.21826 3.85626C4.01334 3.83215 3.83656 4.00492 3.86067 4.21385L4.62004 10.6505C4.65218 10.9156 4.97763 11.0281 5.16647 10.8393L6.92227 9.08349L12.2941 14.4513C12.4187 14.5759 12.6236 14.5759 12.7482 14.4513L14.4517 12.7518C14.5763 12.6272 14.5763 12.4223 14.4517 12.2978L9.07986 6.9259ZM23.2508 14.4513C23.3754 14.5759 23.5803 14.5759 23.7049 14.4513L29.0767 9.08349L30.8325 10.8393C30.8752 10.8818 30.929 10.9114 30.9877 10.9249C31.0464 10.9383 31.1077 10.935 31.1647 10.9153C31.2216 10.8957 31.2719 10.8604 31.3097 10.8136C31.3476 10.7668 31.3716 10.7102 31.379 10.6505L32.1383 4.21786C32.1625 4.01295 31.9897 3.83617 31.7808 3.86027L25.3441 4.61965C25.079 4.65179 24.9665 4.97724 25.1553 5.16608L26.9191 6.92992L21.5473 12.2938C21.4875 12.3542 21.4539 12.4357 21.4539 12.5208C21.4539 12.6058 21.4875 12.6874 21.5473 12.7478L23.2508 14.4513ZM31.379 25.3478C31.3468 25.0826 31.0214 24.9701 30.8325 25.1589L29.0767 26.9147L23.7049 21.5469C23.6445 21.4871 23.5629 21.4535 23.4779 21.4535C23.3928 21.4535 23.3113 21.4871 23.2508 21.5469L21.5473 23.2464C21.4875 23.3068 21.4539 23.3884 21.4539 23.4734C21.4539 23.5585 21.4875 23.64 21.5473 23.7005L26.9191 29.0723L25.1553 30.8362C25.1128 30.8789 25.0832 30.9326 25.0697 30.9913C25.0563 31.0501 25.0596 31.1114 25.0793 31.1683C25.0989 31.2252 25.1342 31.2755 25.181 31.3134C25.2278 31.3513 25.2844 31.3752 25.3441 31.3826L31.7808 32.142C31.9857 32.1661 32.1625 31.9933 32.1383 31.7844L31.379 25.3478ZM12.7482 21.5469C12.6878 21.4871 12.6062 21.4535 12.5212 21.4535C12.4361 21.4535 12.3546 21.4871 12.2941 21.5469L6.92227 26.9147L5.16647 25.1589C5.12377 25.1164 5.07001 25.0868 5.0113 25.0733C4.95258 25.0599 4.89127 25.0632 4.83434 25.0829C4.77741 25.1026 4.72715 25.1378 4.68926 25.1846C4.65138 25.2315 4.62739 25.288 4.62004 25.3478L3.86067 31.7804C3.83656 31.9853 4.00933 32.1621 4.21826 32.1379L10.6549 31.3786C10.92 31.3464 11.0325 31.021 10.8437 30.8321L9.07986 29.0723L14.4517 23.7045C14.5763 23.5799 14.5763 23.375 14.4517 23.2505L12.7482 21.5469Z" fill="black" fill-opacity="0.85"/>
</svg>
