<svg width="36" height="36" viewBox="0 0 36 36" fill="none" xmlns="http://www.w3.org/2000/svg">
<path d="M28.0441 4.01701H25.4726C25.2958 4.01701 25.1512 4.16165 25.1512 4.33844V31.9813C25.1512 32.1581 25.2958 32.3027 25.4726 32.3027H28.0441C28.2208 32.3027 28.3655 32.1581 28.3655 31.9813V4.33844C28.3655 4.16165 28.2208 4.01701 28.0441 4.01701ZM7.63334 4.01701V6.92594C7.63334 7.30763 7.80209 7.66522 8.09137 7.91031L20.1128 17.9992L8.09137 28.088C7.80209 28.3331 7.63334 28.6907 7.63334 29.0724V31.9813C7.63334 32.2545 7.95075 32.4032 8.15968 32.2264L25.111 17.9992L8.15968 3.77192C8.11311 3.73232 8.05615 3.70691 7.99557 3.69871C7.93499 3.69052 7.87333 3.69988 7.81792 3.72569C7.7625 3.75149 7.71565 3.79266 7.68293 3.8443C7.65021 3.89593 7.633 3.95588 7.63334 4.01701Z" fill="black" fill-opacity="0.85"/>
</svg>
