<svg width="36" height="36" viewBox="0 0 36 36" fill="none" xmlns="http://www.w3.org/2000/svg">
<path d="M12.2137 30.5351H9.96366C9.78687 30.5351 9.64223 30.6797 9.64223 30.8565V33.1065C9.64223 33.2833 9.78687 33.4279 9.96366 33.4279H12.2137C12.3904 33.4279 12.5351 33.2833 12.5351 33.1065V30.8565C12.5351 30.6797 12.3904 30.5351 12.2137 30.5351ZM9.8833 5.46366H12.1333C12.3101 5.46366 12.4547 5.31902 12.4547 5.14223V2.89223C12.4547 2.71544 12.3101 2.5708 12.1333 2.5708H9.8833C9.70652 2.5708 9.56187 2.71544 9.56187 2.89223V5.14223C9.56187 5.31902 9.70652 5.46366 9.8833 5.46366ZM33.1065 9.56187H30.8565C30.6797 9.56187 30.5351 9.70652 30.5351 9.8833V12.1333C30.5351 12.3101 30.6797 12.4547 30.8565 12.4547H33.1065C33.2833 12.4547 33.4279 12.3101 33.4279 12.1333V9.8833C33.4279 9.70652 33.2833 9.56187 33.1065 9.56187ZM33.1065 2.5708H30.8565C30.6797 2.5708 30.5351 2.71544 30.5351 2.89223V5.14223C30.5351 5.31902 30.6797 5.46366 30.8565 5.46366H33.1065C33.2833 5.46366 33.4279 5.31902 33.4279 5.14223V2.89223C33.4279 2.71544 33.2833 2.5708 33.1065 2.5708ZM5.14223 30.5351H2.89223C2.71544 30.5351 2.5708 30.6797 2.5708 30.8565V33.1065C2.5708 33.2833 2.71544 33.4279 2.89223 33.4279H5.14223C5.31902 33.4279 5.46366 33.2833 5.46366 33.1065V30.8565C5.46366 30.6797 5.31902 30.5351 5.14223 30.5351ZM5.14223 23.544H2.89223C2.71544 23.544 2.5708 23.6887 2.5708 23.8654V26.1154C2.5708 26.2922 2.71544 26.4369 2.89223 26.4369H5.14223C5.31902 26.4369 5.46366 26.2922 5.46366 26.1154V23.8654C5.46366 23.6887 5.31902 23.544 5.14223 23.544ZM5.14223 16.5529H2.89223C2.71544 16.5529 2.5708 16.6976 2.5708 16.8744V19.1244C2.5708 19.3012 2.71544 19.4458 2.89223 19.4458H5.14223C5.31902 19.4458 5.46366 19.3012 5.46366 19.1244V16.8744C5.46366 16.6976 5.31902 16.5529 5.14223 16.5529ZM5.14223 9.56187H2.89223C2.71544 9.56187 2.5708 9.70652 2.5708 9.8833V12.1333C2.5708 12.3101 2.71544 12.4547 2.89223 12.4547H5.14223C5.31902 12.4547 5.46366 12.3101 5.46366 12.1333V9.8833C5.46366 9.70652 5.31902 9.56187 5.14223 9.56187ZM5.14223 2.5708H2.89223C2.71544 2.5708 2.5708 2.71544 2.5708 2.89223V5.14223C2.5708 5.31902 2.71544 5.46366 2.89223 5.46366H5.14223C5.31902 5.46366 5.46366 5.31902 5.46366 5.14223V2.89223C5.46366 2.71544 5.31902 2.5708 5.14223 2.5708ZM16.8744 5.46366H19.1244C19.3012 5.46366 19.4458 5.31902 19.4458 5.14223V2.89223C19.4458 2.71544 19.3012 2.5708 19.1244 2.5708H16.8744C16.6976 2.5708 16.5529 2.71544 16.5529 2.89223V5.14223C16.5529 5.31902 16.6976 5.46366 16.8744 5.46366ZM23.8654 5.46366H26.1154C26.2922 5.46366 26.4369 5.31902 26.4369 5.14223V2.89223C26.4369 2.71544 26.2922 2.5708 26.1154 2.5708H23.8654C23.6887 2.5708 23.544 2.71544 23.544 2.89223V5.14223C23.544 5.31902 23.6887 5.46366 23.8654 5.46366ZM33.1065 16.5529H30.8565C30.6797 16.5529 30.5351 16.6976 30.5351 16.8744V24.1869C30.5351 27.6945 27.6945 30.5351 24.1869 30.5351H16.8744C16.6976 30.5351 16.5529 30.6797 16.5529 30.8565V33.1065C16.5529 33.2833 16.6976 33.4279 16.8744 33.4279H24.1869C29.2896 33.4279 33.4279 29.2896 33.4279 24.1869V16.8744C33.4279 16.6976 33.2833 16.5529 33.1065 16.5529Z" fill="black" fill-opacity="0.85"/>
</svg>
