<svg width="36" height="36" viewBox="0 0 36 36" fill="none" xmlns="http://www.w3.org/2000/svg">
<g clip-path="url(#clip0_806_7760)">
<path d="M18.3899 0.725097C12.2626 0.709026 6.87067 3.87912 3.78897 8.6684C3.65236 8.88135 3.80504 9.1626 4.05817 9.1626H6.88272C7.07558 9.1626 7.25638 9.07822 7.37692 8.92956C7.65817 8.58804 7.95951 8.25858 8.27692 7.94519C9.58674 6.63938 11.1095 5.61081 12.805 4.89563C14.5568 4.15635 16.4211 3.77867 18.3457 3.77867C20.2702 3.77867 22.1345 4.15233 23.8863 4.89563C25.5818 5.61081 27.1046 6.63938 28.4144 7.94519C29.7242 9.25099 30.7488 10.7738 31.468 12.4653C32.2113 14.2171 32.585 16.0773 32.585 18.0019C32.585 19.9264 32.2073 21.7867 31.468 23.5385C30.7528 25.23 29.7242 26.7528 28.4144 28.0586C27.1046 29.3644 25.5818 30.393 23.8863 31.1081C22.1331 31.8486 20.2488 32.2285 18.3457 32.2251C16.4211 32.2251 14.5568 31.8474 12.805 31.1081C11.1128 30.3937 9.57511 29.3581 8.27692 28.0586C7.95951 27.7412 7.66219 27.4117 7.37692 27.0742C7.25638 26.9255 7.07156 26.8412 6.88272 26.8412H4.05817C3.80504 26.8412 3.64835 27.1224 3.78897 27.3354C6.86665 32.1126 12.2345 35.2787 18.3457 35.2787C27.8358 35.2787 35.5421 27.6407 35.6385 18.1787C35.735 8.56394 28.0167 0.749205 18.3899 0.725097ZM13.3 22.5019V19.4483H0.68397C0.507184 19.4483 0.362541 19.3037 0.362541 19.1269V16.8769C0.362541 16.7001 0.507184 16.5555 0.68397 16.5555H13.3V13.5019C13.3 13.2327 13.6134 13.08 13.8224 13.2488L19.5237 17.7488C19.5621 17.7788 19.5932 17.8172 19.6146 17.8611C19.6359 17.905 19.647 17.9531 19.647 18.0019C19.647 18.0507 19.6359 18.0988 19.6146 18.1427C19.5932 18.1865 19.5621 18.2249 19.5237 18.255L13.8224 22.755C13.6134 22.9197 13.3 22.7711 13.3 22.5019Z" fill="black" fill-opacity="0.85"/>
</g>
<defs>
<clipPath id="clip0_806_7760">
<rect width="36" height="36" fill="white"/>
</clipPath>
</defs>
</svg>
