<svg width="36" height="36" viewBox="0 0 36 36" fill="none" xmlns="http://www.w3.org/2000/svg">
<path d="M10.5262 4.01755H7.95473C7.77794 4.01755 7.6333 4.16219 7.6333 4.33898V31.9818C7.6333 32.1586 7.77794 32.3033 7.95473 32.3033H10.5262C10.7029 32.3033 10.8476 32.1586 10.8476 31.9818V4.33898C10.8476 4.16219 10.7029 4.01755 10.5262 4.01755ZM28.3654 6.92648V4.01755C28.3654 3.74434 28.048 3.59568 27.8391 3.77246L10.8878 17.9997L27.8391 32.2269C28.048 32.4037 28.3654 32.2551 28.3654 31.9818V29.0729C28.3654 28.6952 28.1967 28.3336 27.9074 28.0885L15.886 17.9997L27.9074 7.91086C28.1967 7.66577 28.3654 7.30416 28.3654 6.92648Z" fill="black" fill-opacity="0.85"/>
</svg>
