<svg width="36" height="36" viewBox="0 0 36 36" fill="none" xmlns="http://www.w3.org/2000/svg">
<g clip-path="url(#clip0_806_7818)">
<path d="M35.6786 29.2512H0.321429C0.144643 29.2512 0 29.3958 0 29.5726V31.8226C0 31.9994 0.144643 32.1441 0.321429 32.1441H35.6786C35.8554 32.1441 36 31.9994 36 31.8226V29.5726C36 29.3958 35.8554 29.2512 35.6786 29.2512ZM35.6786 3.85834H0.321429C0.144643 3.85834 0 4.00298 0 4.17977V6.42977C0 6.60655 0.144643 6.75119 0.321429 6.75119H35.6786C35.8554 6.75119 36 6.60655 36 6.42977V4.17977C36 4.00298 35.8554 3.85834 35.6786 3.85834ZM34.7143 23.9476C35.0679 23.9476 35.3571 23.6583 35.3571 23.3048V12.6976C35.3571 12.3441 35.0679 12.0548 34.7143 12.0548H14.1429C13.7893 12.0548 13.5 12.3441 13.5 12.6976V23.3048C13.5 23.6583 13.7893 23.9476 14.1429 23.9476H34.7143ZM16.3929 14.9476H32.4643V21.0548H16.3929V14.9476ZM0.642857 23.3851C0.642857 23.5619 0.7875 23.7066 0.964286 23.7066H9.96429C10.1411 23.7066 10.2857 23.5619 10.2857 23.3851V21.1351C10.2857 20.9583 10.1411 20.8137 9.96429 20.8137H0.964286C0.7875 20.8137 0.642857 20.9583 0.642857 21.1351V23.3851ZM0.964286 15.1887H9.96429C10.1411 15.1887 10.2857 15.0441 10.2857 14.8673V12.6173C10.2857 12.4405 10.1411 12.2958 9.96429 12.2958H0.964286C0.7875 12.2958 0.642857 12.4405 0.642857 12.6173V14.8673C0.642857 15.0441 0.7875 15.1887 0.964286 15.1887Z" fill="black" fill-opacity="0.85"/>
</g>
<defs>
<clipPath id="clip0_806_7818">
<rect width="36" height="36" fill="white"/>
</clipPath>
</defs>
</svg>
