<svg width="36" height="36" viewBox="0 0 36 36" fill="none" xmlns="http://www.w3.org/2000/svg">
<path d="M26.5188 6.19866V3.09286C26.5188 2.82366 26.2095 2.675 26.0005 2.83974L7.88802 16.9866C7.73413 17.1063 7.60961 17.2595 7.52395 17.4347C7.4383 17.6098 7.39377 17.8022 7.39377 17.9971C7.39377 18.1921 7.4383 18.3844 7.52395 18.5595C7.60961 18.7347 7.73413 18.8879 7.88802 19.0076L26.0005 33.1545C26.2135 33.3192 26.5188 33.1705 26.5188 32.9013V29.7955C26.5188 29.5987 26.4264 29.4098 26.2737 29.2893L11.8095 17.9991L26.2737 6.70491C26.4264 6.58438 26.5188 6.39554 26.5188 6.19866Z" fill="black" fill-opacity="0.85"/>
</svg>
