<svg width="36" height="36" viewBox="0 0 36 36" fill="none" xmlns="http://www.w3.org/2000/svg">
<path d="M32.4625 3.21246H3.53389C3.35711 3.21246 3.21246 3.35711 3.21246 3.53389V5.78389C3.21246 5.96068 3.35711 6.10532 3.53389 6.10532H32.4625C32.6393 6.10532 32.7839 5.96068 32.7839 5.78389V3.53389C32.7839 3.35711 32.6393 3.21246 32.4625 3.21246ZM5.78389 9.88211H3.53389C3.35711 9.88211 3.21246 10.0267 3.21246 10.2035V12.4535C3.21246 12.6303 3.35711 12.775 3.53389 12.775H5.78389C5.96068 12.775 6.10532 12.6303 6.10532 12.4535V10.2035C6.10532 10.0267 5.96068 9.88211 5.78389 9.88211ZM5.78389 29.891H3.53389C3.35711 29.891 3.21246 30.0357 3.21246 30.2125V32.4625C3.21246 32.6393 3.35711 32.7839 3.53389 32.7839H5.78389C5.96068 32.7839 6.10532 32.6393 6.10532 32.4625V30.2125C6.10532 30.0357 5.96068 29.891 5.78389 29.891ZM5.78389 16.5518H3.53389C3.35711 16.5518 3.21246 16.6964 3.21246 16.8732V19.1232C3.21246 19.3 3.35711 19.4446 3.53389 19.4446H5.78389C5.96068 19.4446 6.10532 19.3 6.10532 19.1232V16.8732C6.10532 16.6964 5.96068 16.5518 5.78389 16.5518ZM5.78389 23.2214H3.53389C3.35711 23.2214 3.21246 23.366 3.21246 23.5428V25.7928C3.21246 25.9696 3.35711 26.1143 3.53389 26.1143H5.78389C5.96068 26.1143 6.10532 25.9696 6.10532 25.7928V23.5428C6.10532 23.366 5.96068 23.2214 5.78389 23.2214ZM12.4535 16.5518H10.2035C10.0267 16.5518 9.88211 16.6964 9.88211 16.8732V19.1232C9.88211 19.3 10.0267 19.4446 10.2035 19.4446H12.4535C12.6303 19.4446 12.775 19.3 12.775 19.1232V16.8732C12.775 16.6964 12.6303 16.5518 12.4535 16.5518ZM12.4535 29.891H10.2035C10.0267 29.891 9.88211 30.0357 9.88211 30.2125V32.4625C9.88211 32.6393 10.0267 32.7839 10.2035 32.7839H12.4535C12.6303 32.7839 12.775 32.6393 12.775 32.4625V30.2125C12.775 30.0357 12.6303 29.891 12.4535 29.891ZM25.7928 29.891H23.5428C23.366 29.891 23.2214 30.0357 23.2214 30.2125V32.4625C23.2214 32.6393 23.366 32.7839 23.5428 32.7839H25.7928C25.9696 32.7839 26.1143 32.6393 26.1143 32.4625V30.2125C26.1143 30.0357 25.9696 29.891 25.7928 29.891ZM25.7928 16.5518H23.5428C23.366 16.5518 23.2214 16.6964 23.2214 16.8732V19.1232C23.2214 19.3 23.366 19.4446 23.5428 19.4446H25.7928C25.9696 19.4446 26.1143 19.3 26.1143 19.1232V16.8732C26.1143 16.6964 25.9696 16.5518 25.7928 16.5518ZM32.4625 16.5518H30.2125C30.0357 16.5518 29.891 16.6964 29.891 16.8732V19.1232C29.891 19.3 30.0357 19.4446 30.2125 19.4446H32.4625C32.6393 19.4446 32.7839 19.3 32.7839 19.1232V16.8732C32.7839 16.6964 32.6393 16.5518 32.4625 16.5518ZM19.1232 16.5518H16.8732C16.6964 16.5518 16.5518 16.6964 16.5518 16.8732V19.1232C16.5518 19.3 16.6964 19.4446 16.8732 19.4446H19.1232C19.3 19.4446 19.4446 19.3 19.4446 19.1232V16.8732C19.4446 16.6964 19.3 16.5518 19.1232 16.5518ZM32.4625 29.891H30.2125C30.0357 29.891 29.891 30.0357 29.891 30.2125V32.4625C29.891 32.6393 30.0357 32.7839 30.2125 32.7839H32.4625C32.6393 32.7839 32.7839 32.6393 32.7839 32.4625V30.2125C32.7839 30.0357 32.6393 29.891 32.4625 29.891ZM19.1232 29.891H16.8732C16.6964 29.891 16.5518 30.0357 16.5518 30.2125V32.4625C16.5518 32.6393 16.6964 32.7839 16.8732 32.7839H19.1232C19.3 32.7839 19.4446 32.6393 19.4446 32.4625V30.2125C19.4446 30.0357 19.3 29.891 19.1232 29.891ZM32.4625 9.88211H30.2125C30.0357 9.88211 29.891 10.0267 29.891 10.2035V12.4535C29.891 12.6303 30.0357 12.775 30.2125 12.775H32.4625C32.6393 12.775 32.7839 12.6303 32.7839 12.4535V10.2035C32.7839 10.0267 32.6393 9.88211 32.4625 9.88211ZM19.1232 9.88211H16.8732C16.6964 9.88211 16.5518 10.0267 16.5518 10.2035V12.4535C16.5518 12.6303 16.6964 12.775 16.8732 12.775H19.1232C19.3 12.775 19.4446 12.6303 19.4446 12.4535V10.2035C19.4446 10.0267 19.3 9.88211 19.1232 9.88211ZM32.4625 23.2214H30.2125C30.0357 23.2214 29.891 23.366 29.891 23.5428V25.7928C29.891 25.9696 30.0357 26.1143 30.2125 26.1143H32.4625C32.6393 26.1143 32.7839 25.9696 32.7839 25.7928V23.5428C32.7839 23.366 32.6393 23.2214 32.4625 23.2214ZM19.1232 23.2214H16.8732C16.6964 23.2214 16.5518 23.366 16.5518 23.5428V25.7928C16.5518 25.9696 16.6964 26.1143 16.8732 26.1143H19.1232C19.3 26.1143 19.4446 25.9696 19.4446 25.7928V23.5428C19.4446 23.366 19.3 23.2214 19.1232 23.2214Z" fill="black" fill-opacity="0.85"/>
</svg>
