<svg width="36" height="36" viewBox="0 0 36 36" fill="none" xmlns="http://www.w3.org/2000/svg">
<g clip-path="url(#clip0_806_7644)">
<path d="M21.6665 10.5879L11.7826 17.7397C11.7415 17.7693 11.7081 17.8082 11.685 17.8532C11.6619 17.8983 11.6499 17.9482 11.6499 17.9988C11.6499 18.0494 11.6619 18.0993 11.685 18.1444C11.7081 18.1894 11.7415 18.2284 11.7826 18.258L21.6665 25.4098C21.8795 25.5624 22.1768 25.4098 22.1768 25.1486V23.2642C22.1768 22.8544 21.9799 22.4647 21.6464 22.2236L15.8045 18.0008L21.6464 13.774C21.9799 13.533 22.1768 13.1473 22.1768 12.7334V10.849C22.1768 10.5879 21.8795 10.4352 21.6665 10.5879Z" fill="black" fill-opacity="0.85"/>
<path d="M18 0C8.05982 0 0 8.05982 0 18C0 27.9402 8.05982 36 18 36C27.9402 36 36 27.9402 36 18C36 8.05982 27.9402 0 18 0ZM18 32.9464C9.74732 32.9464 3.05357 26.2527 3.05357 18C3.05357 9.74732 9.74732 3.05357 18 3.05357C26.2527 3.05357 32.9464 9.74732 32.9464 18C32.9464 26.2527 26.2527 32.9464 18 32.9464Z" fill="black" fill-opacity="0.85"/>
</g>
<defs>
<clipPath id="clip0_806_7644">
<rect width="36" height="36" fill="white"/>
</clipPath>
</defs>
</svg>
