<svg width="36" height="36" viewBox="0 0 36 36" fill="none" xmlns="http://www.w3.org/2000/svg">
<path d="M13.8221 15.1887H33.1078C33.2846 15.1887 33.4292 15.0441 33.4292 14.8673V12.6173C33.4292 12.4405 33.2846 12.2958 33.1078 12.2958H13.8221C13.6453 12.2958 13.5006 12.4405 13.5006 12.6173V14.8673C13.5006 15.0441 13.6453 15.1887 13.8221 15.1887ZM13.5006 23.3851C13.5006 23.5619 13.6453 23.7066 13.8221 23.7066H33.1078C33.2846 23.7066 33.4292 23.5619 33.4292 23.3851V21.1351C33.4292 20.9583 33.2846 20.8137 33.1078 20.8137H13.8221C13.6453 20.8137 13.5006 20.9583 13.5006 21.1351V23.3851ZM33.7506 3.85834H2.25063C2.07384 3.85834 1.9292 4.00298 1.9292 4.17977V6.42977C1.9292 6.60655 2.07384 6.75119 2.25063 6.75119H33.7506C33.9274 6.75119 34.0721 6.60655 34.0721 6.42977V4.17977C34.0721 4.00298 33.9274 3.85834 33.7506 3.85834ZM33.7506 29.2512H2.25063C2.07384 29.2512 1.9292 29.3958 1.9292 29.5726V31.8226C1.9292 31.9994 2.07384 32.1441 2.25063 32.1441H33.7506C33.9274 32.1441 34.0721 31.9994 34.0721 31.8226V29.5726C34.0721 29.3958 33.9274 29.2512 33.7506 29.2512ZM3.15063 23.2284L9.43054 18.2824C9.47282 18.2492 9.507 18.2068 9.53051 18.1584C9.55401 18.1101 9.56623 18.057 9.56623 18.0032C9.56623 17.9494 9.55401 17.8963 9.53051 17.848C9.507 17.7996 9.47282 17.7572 9.43054 17.724L3.15063 12.774C2.91759 12.5891 2.57206 12.7539 2.57206 13.0512V22.9472C2.57203 23.0143 2.5909 23.08 2.62649 23.1369C2.66208 23.1938 2.71296 23.2396 2.77331 23.2689C2.83366 23.2982 2.90106 23.31 2.96778 23.3028C3.0345 23.2957 3.09787 23.2699 3.15063 23.2284Z" fill="black" fill-opacity="0.85"/>
</svg>
