<svg width="36" height="36" viewBox="0 0 36 36" fill="none" xmlns="http://www.w3.org/2000/svg">
<g clip-path="url(#clip0_806_7814)">
<path d="M35.6786 29.2512H0.321429C0.144643 29.2512 0 29.3958 0 29.5726V31.8226C0 31.9994 0.144643 32.1441 0.321429 32.1441H35.6786C35.8554 32.1441 36 31.9994 36 31.8226V29.5726C36 29.3958 35.8554 29.2512 35.6786 29.2512ZM35.6786 3.85834H0.321429C0.144643 3.85834 0 4.00298 0 4.17977V6.42977C0 6.60655 0.144643 6.75119 0.321429 6.75119H35.6786C35.8554 6.75119 36 6.60655 36 6.42977V4.17977C36 4.00298 35.8554 3.85834 35.6786 3.85834ZM21.8571 23.9476C22.2107 23.9476 22.5 23.6583 22.5 23.3048V12.6976C22.5 12.3441 22.2107 12.0548 21.8571 12.0548H1.28571C0.932143 12.0548 0.642857 12.3441 0.642857 12.6976V23.3048C0.642857 23.6583 0.932143 23.9476 1.28571 23.9476H21.8571ZM3.53571 14.9476H19.6071V21.0548H3.53571V14.9476ZM25.7143 23.3851C25.7143 23.5619 25.8589 23.7066 26.0357 23.7066H35.0357C35.2125 23.7066 35.3571 23.5619 35.3571 23.3851V21.1351C35.3571 20.9583 35.2125 20.8137 35.0357 20.8137H26.0357C25.8589 20.8137 25.7143 20.9583 25.7143 21.1351V23.3851ZM26.0357 15.1887H35.0357C35.2125 15.1887 35.3571 15.0441 35.3571 14.8673V12.6173C35.3571 12.4405 35.2125 12.2958 35.0357 12.2958H26.0357C25.8589 12.2958 25.7143 12.4405 25.7143 12.6173V14.8673C25.7143 15.0441 25.8589 15.1887 26.0357 15.1887Z" fill="black" fill-opacity="0.85"/>
</g>
<defs>
<clipPath id="clip0_806_7814">
<rect width="36" height="36" fill="white"/>
</clipPath>
</defs>
</svg>
