<svg width="36" height="36" viewBox="0 0 36 36" fill="none" xmlns="http://www.w3.org/2000/svg">
<path d="M8.39396 17.9991L19.0574 4.37454C19.2221 4.16561 19.0734 3.85623 18.8042 3.85623H15.6984C15.5016 3.85623 15.3127 3.94864 15.1922 4.10132L4.93459 17.2076C4.75694 17.4339 4.66039 17.7134 4.66039 18.0011C4.66039 18.2888 4.75694 18.5683 4.93459 18.7946L15.1922 31.8969C15.3127 32.0536 15.5016 32.1419 15.6984 32.1419H18.8042C19.0734 32.1419 19.2221 31.8326 19.0574 31.6236L8.39396 17.9991ZM20.6082 17.9991L31.2716 4.37454C31.4364 4.16561 31.2877 3.85623 31.0185 3.85623H27.9127C27.7158 3.85623 27.527 3.94864 27.4065 4.10132L17.1489 17.2076C16.9712 17.4339 16.8747 17.7134 16.8747 18.0011C16.8747 18.2888 16.9712 18.5683 17.1489 18.7946L27.4065 31.8969C27.527 32.0536 27.7158 32.1419 27.9127 32.1419H31.0185C31.2877 32.1419 31.4364 31.8326 31.2716 31.6236L20.6082 17.9991Z" fill="black" fill-opacity="0.85"/>
</svg>
