<svg width="36" height="36" viewBox="0 0 36 36" fill="none" xmlns="http://www.w3.org/2000/svg">
<path d="M18.8521 17.2076L8.59452 4.10132C8.47399 3.94462 8.28515 3.85623 8.08827 3.85623H4.98247C4.71327 3.85623 4.56461 4.16561 4.72935 4.37454L15.3927 17.9991L4.72935 31.6236C4.69225 31.671 4.66923 31.7279 4.66292 31.7877C4.65661 31.8476 4.66727 31.908 4.69368 31.962C4.72008 32.0161 4.76117 32.0616 4.81224 32.0935C4.86331 32.1253 4.9223 32.1421 4.98247 32.1419H8.08827C8.28515 32.1419 8.47399 32.0495 8.59452 31.8969L18.8521 18.7946C19.2177 18.3245 19.2177 17.6736 18.8521 17.2076ZM31.0664 17.2076L20.8088 4.10132C20.6883 3.94462 20.4994 3.85623 20.3026 3.85623H17.1968C16.9276 3.85623 16.7789 4.16561 16.9436 4.37454L27.607 17.9991L16.9436 31.6236C16.9065 31.671 16.8835 31.7279 16.8772 31.7877C16.8709 31.8476 16.8816 31.908 16.908 31.962C16.9344 32.0161 16.9755 32.0616 17.0265 32.0935C17.0776 32.1253 17.1366 32.1421 17.1968 32.1419H20.3026C20.4994 32.1419 20.6883 32.0495 20.8088 31.8969L31.0664 18.7946C31.432 18.3245 31.432 17.6736 31.0664 17.2076Z" fill="black" fill-opacity="0.85"/>
</svg>
