<svg width="36" height="36" viewBox="0 0 36 36" fill="none" xmlns="http://www.w3.org/2000/svg">
<path d="M10.8471 22.5019H12.7315C13.1413 22.5019 13.5311 22.3051 13.7721 21.9716L17.9989 16.1296L22.2257 21.9716C22.4668 22.3051 22.8525 22.5019 23.2663 22.5019H25.1507C25.4119 22.5019 25.5646 22.2046 25.4119 21.9917L18.2601 12.1077C18.2305 12.0667 18.1916 12.0332 18.1465 12.0102C18.1015 11.9871 18.0516 11.9751 18.0009 11.9751C17.9503 11.9751 17.9004 11.9871 17.8554 12.0102C17.8103 12.0332 17.7714 12.0667 17.7418 12.1077L10.59 21.9917C10.5547 22.0393 10.5333 22.0958 10.5283 22.1548C10.5232 22.2138 10.5347 22.2731 10.5613 22.326C10.588 22.379 10.6288 22.4234 10.6793 22.4545C10.7298 22.4856 10.7879 22.502 10.8471 22.5019Z" fill="black" fill-opacity="0.85"/>
<path d="M32.7863 1.9292H3.21488C2.50372 1.9292 1.92917 2.50375 1.92917 3.21491V32.7863C1.92917 33.4975 2.50372 34.0721 3.21488 34.0721H32.7863C33.4975 34.0721 34.072 33.4975 34.072 32.7863V3.21491C34.072 2.50375 33.4975 1.9292 32.7863 1.9292ZM31.1792 31.1792H4.82203V4.82206H31.1792V31.1792Z" fill="black" fill-opacity="0.85"/>
</svg>
