<svg width="36" height="36" viewBox="0 0 36 36" fill="none" xmlns="http://www.w3.org/2000/svg">
<path d="M12.1077 18.2598L21.9916 25.4116C22.2046 25.5643 22.5019 25.4116 22.5019 25.1505V23.2661C22.5019 22.8563 22.305 22.4665 21.9715 22.2255L16.1296 17.9987L21.9715 13.7719C22.305 13.5308 22.5019 13.1451 22.5019 12.7313V10.8469C22.5019 10.5857 22.2046 10.4331 21.9916 10.5857L12.1077 17.7375C12.0666 17.7675 12.0332 17.8068 12.0101 17.8522C11.9871 17.8976 11.9751 17.9478 11.9751 17.9987C11.9751 18.0496 11.9871 18.0998 12.0101 18.1451C12.0332 18.1905 12.0666 18.2298 12.1077 18.2598Z" fill="black" fill-opacity="0.85"/>
<path d="M32.7863 1.9292H3.21491C2.50375 1.9292 1.9292 2.50375 1.9292 3.21491V32.7863C1.9292 33.4975 2.50375 34.0721 3.21491 34.0721H32.7863C33.4975 34.0721 34.0721 33.4975 34.0721 32.7863V3.21491C34.0721 2.50375 33.4975 1.9292 32.7863 1.9292ZM31.1792 31.1792H4.82206V4.82206H31.1792V31.1792Z" fill="black" fill-opacity="0.85"/>
</svg>
