<svg width="36" height="36" viewBox="0 0 36 36" fill="none" xmlns="http://www.w3.org/2000/svg">
<path d="M31.9775 16.4729H4.02125C3.84044 16.4729 3.6958 16.6175 3.6958 16.7943V19.205C3.6958 19.3818 3.84044 19.5265 4.02125 19.5265H31.9775C32.1583 19.5265 32.3029 19.3818 32.3029 19.205V16.7943C32.3029 16.6175 32.1583 16.4729 31.9775 16.4729ZM17.7704 13.4716C17.8869 13.6202 18.1119 13.6202 18.2244 13.4716L22.2744 8.34879C22.423 8.15995 22.2904 7.8787 22.0454 7.8787H19.5262V1.60683C19.5262 1.43004 19.3815 1.2854 19.2047 1.2854H16.794C16.6172 1.2854 16.4726 1.43004 16.4726 1.60683V7.87469H13.9494C13.7083 7.87469 13.5717 8.15594 13.7204 8.34478L17.7704 13.4716ZM18.2284 22.5278C18.2016 22.4931 18.1672 22.465 18.1278 22.4457C18.0885 22.4264 18.0452 22.4163 18.0014 22.4163C17.9575 22.4163 17.9143 22.4264 17.8749 22.4457C17.8356 22.465 17.8012 22.4931 17.7744 22.5278L13.7244 27.6546C13.6906 27.6975 13.6697 27.749 13.6638 27.8033C13.658 27.8576 13.6676 27.9124 13.6915 27.9614C13.7154 28.0105 13.7527 28.0518 13.799 28.0807C13.8453 28.1096 13.8988 28.1248 13.9534 28.1247H16.4726V34.3925C16.4726 34.5693 16.6172 34.714 16.794 34.714H19.2047C19.3815 34.714 19.5262 34.5693 19.5262 34.3925V28.1247H22.0494C22.2904 28.1247 22.4271 27.8434 22.2784 27.6546L18.2284 22.5278Z" fill="black" fill-opacity="0.85"/>
</svg>
