<svg width="36" height="36" viewBox="0 0 36 36" fill="none" xmlns="http://www.w3.org/2000/svg">
<path d="M14.0103 25.412L23.8942 18.2602C24.071 18.1316 24.071 17.8705 23.8942 17.7419L14.0103 10.5901C13.7973 10.4374 13.5 10.5901 13.5 10.8513V12.7357C13.5 13.1455 13.6969 13.5352 14.0304 13.7763L19.8723 17.999L14.0304 22.2258C13.6969 22.4669 13.5 22.8526 13.5 23.2665V25.1508C13.5 25.412 13.7973 25.5647 14.0103 25.412Z" fill="black" fill-opacity="0.85"/>
<path d="M32.7863 1.9292H3.21491C2.50375 1.9292 1.9292 2.50375 1.9292 3.21491V32.7863C1.9292 33.4975 2.50375 34.0721 3.21491 34.0721H32.7863C33.4975 34.0721 34.0721 33.4975 34.0721 32.7863V3.21491C34.0721 2.50375 33.4975 1.9292 32.7863 1.9292ZM31.1792 31.1792H4.82206V4.82206H31.1792V31.1792Z" fill="black" fill-opacity="0.85"/>
</svg>
