<svg width="36" height="36" viewBox="0 0 36 36" fill="none" xmlns="http://www.w3.org/2000/svg">
<path d="M32.7863 1.9292H3.2149C2.50374 1.9292 1.92918 2.50375 1.92918 3.21491V32.7863C1.92918 33.4975 2.50374 34.0721 3.2149 34.0721H32.7863C33.4975 34.0721 34.072 33.4975 34.072 32.7863V3.21491C34.072 2.50375 33.4975 1.9292 32.7863 1.9292ZM31.1792 31.1792H4.82204V4.82206H31.1792V31.1792ZM16.8756 12.1346H19.1256C19.3024 12.1346 19.447 11.9899 19.447 11.8131V9.56313C19.447 9.38634 19.3024 9.2417 19.1256 9.2417H16.8756C16.6988 9.2417 16.5542 9.38634 16.5542 9.56313V11.8131C16.5542 11.9899 16.6988 12.1346 16.8756 12.1346ZM9.56311 19.4471H11.8131C11.9899 19.4471 12.1345 19.3024 12.1345 19.1256V16.8756C12.1345 16.6988 11.9899 16.5542 11.8131 16.5542H9.56311C9.38633 16.5542 9.24168 16.6988 9.24168 16.8756V19.1256C9.24168 19.3024 9.38633 19.4471 9.56311 19.4471ZM24.1881 19.4471H26.4381C26.6149 19.4471 26.7595 19.3024 26.7595 19.1256V16.8756C26.7595 16.6988 26.6149 16.5542 26.4381 16.5542H24.1881C24.0113 16.5542 23.8667 16.6988 23.8667 16.8756V19.1256C23.8667 19.3024 24.0113 19.4471 24.1881 19.4471ZM16.8756 19.4471H19.1256C19.3024 19.4471 19.447 19.3024 19.447 19.1256V16.8756C19.447 16.6988 19.3024 16.5542 19.1256 16.5542H16.8756C16.6988 16.5542 16.5542 16.6988 16.5542 16.8756V19.1256C16.5542 19.3024 16.6988 19.4471 16.8756 19.4471ZM16.8756 26.7596H19.1256C19.3024 26.7596 19.447 26.6149 19.447 26.4381V24.1881C19.447 24.0113 19.3024 23.8667 19.1256 23.8667H16.8756C16.6988 23.8667 16.5542 24.0113 16.5542 24.1881V26.4381C16.5542 26.6149 16.6988 26.7596 16.8756 26.7596Z" fill="black" fill-opacity="0.85"/>
</svg>
