<svg width="36" height="36" viewBox="0 0 36 36" fill="none" xmlns="http://www.w3.org/2000/svg">
<path d="M32.1435 4.25833H29.7328C29.556 4.25833 29.4114 4.40297 29.4114 4.57976V25.3923H9.88459V22.4592C9.88459 22.19 9.57119 22.0373 9.36227 22.2061L3.66093 26.7061C3.62251 26.7362 3.59144 26.7746 3.57007 26.8184C3.5487 26.8623 3.5376 26.9104 3.5376 26.9592C3.5376 27.008 3.5487 27.0562 3.57007 27.1C3.59144 27.1439 3.62251 27.1823 3.66093 27.2123L9.36227 31.7123C9.57521 31.8811 9.88459 31.7284 9.88459 31.4592V28.4458H29.8935C31.3118 28.4458 32.4649 27.2927 32.4649 25.8744V4.57976C32.4649 4.40297 32.3203 4.25833 32.1435 4.25833Z" fill="black" fill-opacity="0.85"/>
</svg>
