<svg width="36" height="36" viewBox="0 0 36 36" fill="none" xmlns="http://www.w3.org/2000/svg">
<g clip-path="url(#clip0_806_7649)">
<path d="M24.215 17.738L14.3311 10.5862C14.283 10.5514 14.2263 10.5305 14.1671 10.5259C14.1079 10.5213 14.0486 10.5332 13.9958 10.5602C13.9429 10.5872 13.8986 10.6284 13.8677 10.6791C13.8369 10.7298 13.8206 10.788 13.8208 10.8474V12.7318C13.8208 13.1416 14.0177 13.5313 14.3512 13.7724L20.1931 17.9992L14.3512 22.226C14.0177 22.467 13.8208 22.8527 13.8208 23.2666V25.151C13.8208 25.4121 14.1181 25.5648 14.3311 25.4121L24.215 18.2603C24.3918 18.1318 24.3918 17.8666 24.215 17.738Z" fill="black" fill-opacity="0.85"/>
<path d="M18 0C8.05982 0 0 8.05982 0 18C0 27.9402 8.05982 36 18 36C27.9402 36 36 27.9402 36 18C36 8.05982 27.9402 0 18 0ZM18 32.9464C9.74732 32.9464 3.05357 26.2527 3.05357 18C3.05357 9.74732 9.74732 3.05357 18 3.05357C26.2527 3.05357 32.9464 9.74732 32.9464 18C32.9464 26.2527 26.2527 32.9464 18 32.9464Z" fill="black" fill-opacity="0.85"/>
</g>
<defs>
<clipPath id="clip0_806_7649">
<rect width="36" height="36" fill="white"/>
</clipPath>
</defs>
</svg>
