<svg width="36" height="36" viewBox="0 0 36 36" fill="none" xmlns="http://www.w3.org/2000/svg">
<path d="M32.3046 19.3446L18.9694 3.97629C18.8488 3.83722 18.6998 3.72569 18.5324 3.64926C18.365 3.57282 18.1831 3.53326 17.9991 3.53326C17.815 3.53326 17.6331 3.57282 17.4657 3.64926C17.2983 3.72569 17.1493 3.83722 17.0287 3.97629L3.69749 19.3446C3.6572 19.3909 3.63108 19.4478 3.62224 19.5086C3.61339 19.5693 3.6222 19.6313 3.6476 19.6872C3.673 19.7431 3.71393 19.7905 3.76552 19.8238C3.81711 19.8571 3.87717 19.8748 3.93856 19.8749H7.19302C7.37784 19.8749 7.55463 19.7946 7.67918 19.654L16.4743 9.51691V32.1415C16.4743 32.3183 16.6189 32.4629 16.7957 32.4629H19.2064C19.3832 32.4629 19.5278 32.3183 19.5278 32.1415V9.51691L28.3229 19.654C28.4435 19.7946 28.6203 19.8749 28.8091 19.8749H32.0636C32.3368 19.8749 32.4854 19.5535 32.3046 19.3446Z" fill="black" fill-opacity="0.85"/>
</svg>
