<svg width="36" height="36" viewBox="0 0 36 36" fill="none" xmlns="http://www.w3.org/2000/svg">
<g clip-path="url(#clip0_806_7764)">
<path d="M32.3041 26.8412H29.4796C29.2867 26.8412 29.1059 26.9255 28.9854 27.0742C28.7041 27.4157 28.4028 27.7452 28.0854 28.0586C26.7872 29.3581 25.2495 30.3937 23.5573 31.1081C21.8041 31.8486 19.9198 32.2285 18.0166 32.2251C16.0921 32.2251 14.2278 31.8474 12.476 31.1081C10.7838 30.3937 9.24608 29.3581 7.94789 28.0586C6.64737 26.7635 5.61037 25.2284 4.89432 23.5385C4.15101 21.7867 3.77735 19.9264 3.77735 18.0019C3.77735 16.0773 4.15503 14.2171 4.89432 12.4653C5.60949 10.7738 6.63806 9.25099 7.94789 7.94519C9.25771 6.63938 10.7805 5.61081 12.476 4.89563C14.2278 4.15635 16.0921 3.77867 18.0166 3.77867C19.9412 3.77867 21.8055 4.15233 23.5573 4.89563C25.2528 5.61081 26.7756 6.63938 28.0854 7.94519C28.4028 8.2626 28.7001 8.59206 28.9854 8.92956C29.1059 9.07822 29.2907 9.1626 29.4796 9.1626H32.3041C32.5573 9.1626 32.714 8.88135 32.5733 8.6684C29.4916 3.87912 24.0997 0.709026 17.9724 0.725097C8.34565 0.749205 0.62735 8.56394 0.723779 18.1787C0.820208 27.6407 8.52646 35.2787 18.0166 35.2787C24.1278 35.2787 29.4957 32.1126 32.5733 27.3354C32.7099 27.1224 32.5573 26.8412 32.3041 26.8412ZM35.876 17.7488L30.1747 13.2488C29.9617 13.08 29.6524 13.2327 29.6524 13.5019V16.5555H17.0363C16.8595 16.5555 16.7149 16.7001 16.7149 16.8769V19.1269C16.7149 19.3037 16.8595 19.4483 17.0363 19.4483H29.6524V22.5019C29.6524 22.7711 29.9657 22.9238 30.1747 22.755L35.876 18.255C35.9144 18.2249 35.9455 18.1865 35.9669 18.1427C35.9882 18.0988 35.9993 18.0507 35.9993 18.0019C35.9993 17.9531 35.9882 17.905 35.9669 17.8611C35.9455 17.8172 35.9144 17.7788 35.876 17.7488Z" fill="black" fill-opacity="0.85"/>
</g>
<defs>
<clipPath id="clip0_806_7764">
<rect width="36" height="36" fill="white"/>
</clipPath>
</defs>
</svg>
