<svg width="36" height="36" viewBox="0 0 36 36" fill="none" xmlns="http://www.w3.org/2000/svg">
<path d="M32.4635 16.4726H8.95498L23.0255 4.2583C23.2505 4.06143 23.1139 3.6958 22.8166 3.6958H19.2608C19.1041 3.6958 18.9554 3.75205 18.8389 3.8525L3.65542 17.0271C3.51636 17.1476 3.40483 17.2966 3.3284 17.464C3.25196 17.6314 3.2124 17.8133 3.2124 17.9974C3.2124 18.1814 3.25196 18.3633 3.3284 18.5307C3.40483 18.6981 3.51636 18.8471 3.65542 18.9677L18.9273 32.2226C18.9876 32.2748 19.0599 32.3029 19.1362 32.3029H22.8126C23.1099 32.3029 23.2465 31.9333 23.0215 31.7404L8.95498 19.5262H32.4635C32.6402 19.5262 32.7849 19.3815 32.7849 19.2047V16.794C32.7849 16.6172 32.6402 16.4726 32.4635 16.4726Z" fill="black" fill-opacity="0.85"/>
</svg>
