<svg width="36" height="36" viewBox="0 0 36 36" fill="none" xmlns="http://www.w3.org/2000/svg">
<path d="M13.822 15.1887H33.1077C33.2845 15.1887 33.4292 15.0441 33.4292 14.8673V12.6173C33.4292 12.4405 33.2845 12.2958 33.1077 12.2958H13.822C13.6452 12.2958 13.5006 12.4405 13.5006 12.6173V14.8673C13.5006 15.0441 13.6452 15.1887 13.822 15.1887ZM13.5006 23.3851C13.5006 23.5619 13.6452 23.7066 13.822 23.7066H33.1077C33.2845 23.7066 33.4292 23.5619 33.4292 23.3851V21.1351C33.4292 20.9583 33.2845 20.8137 33.1077 20.8137H13.822C13.6452 20.8137 13.5006 20.9583 13.5006 21.1351V23.3851ZM33.7506 3.85834H2.2506C2.07381 3.85834 1.92917 4.00298 1.92917 4.17977V6.42977C1.92917 6.60655 2.07381 6.75119 2.2506 6.75119H33.7506C33.9274 6.75119 34.072 6.60655 34.072 6.42977V4.17977C34.072 4.00298 33.9274 3.85834 33.7506 3.85834ZM33.7506 29.2512H2.2506C2.07381 29.2512 1.92917 29.3958 1.92917 29.5726V31.8226C1.92917 31.9994 2.07381 32.1441 2.2506 32.1441H33.7506C33.9274 32.1441 34.072 31.9994 34.072 31.8226V29.5726C34.072 29.3958 33.9274 29.2512 33.7506 29.2512ZM2.06578 18.2784L8.34569 23.2244C8.57872 23.4092 8.92426 23.2445 8.92426 22.9472V13.0552C8.92426 12.7579 8.58274 12.5932 8.34569 12.778L2.06578 17.724C2.02355 17.7568 1.98938 17.7988 1.96588 17.8469C1.94237 17.8949 1.93015 17.9477 1.93015 18.0012C1.93015 18.0547 1.94237 18.1075 1.96588 18.1555C1.98938 18.2036 2.02355 18.2456 2.06578 18.2784Z" fill="black" fill-opacity="0.85"/>
</svg>
