<svg width="36" height="36" viewBox="0 0 36 36" fill="none" xmlns="http://www.w3.org/2000/svg">
<g clip-path="url(#clip0_806_7639)">
<path d="M25.1526 13.7H23.2682C22.8584 13.7 22.4687 13.8968 22.2276 14.2303L18.0008 20.0723L13.774 14.2303C13.533 13.8968 13.1473 13.7 12.7334 13.7H10.849C10.5879 13.7 10.4352 13.9973 10.5879 14.2102L17.7397 24.0942C17.8682 24.2709 18.1294 24.2709 18.258 24.0942L25.4098 14.2102C25.5664 13.9973 25.4138 13.7 25.1526 13.7Z" fill="black" fill-opacity="0.85"/>
<path d="M18 0C8.05982 0 0 8.05982 0 18C0 27.9402 8.05982 36 18 36C27.9402 36 36 27.9402 36 18C36 8.05982 27.9402 0 18 0ZM18 32.9464C9.74732 32.9464 3.05357 26.2527 3.05357 18C3.05357 9.74732 9.74732 3.05357 18 3.05357C26.2527 3.05357 32.9464 9.74732 32.9464 18C32.9464 26.2527 26.2527 32.9464 18 32.9464Z" fill="black" fill-opacity="0.85"/>
</g>
<defs>
<clipPath id="clip0_806_7639">
<rect width="36" height="36" fill="white"/>
</clipPath>
</defs>
</svg>
