<svg width="36" height="36" viewBox="0 0 36 36" fill="none" xmlns="http://www.w3.org/2000/svg">
<path d="M31.4956 21.2155H3.53538C3.35859 21.2155 3.21395 21.3601 3.21395 21.5369V23.9476C3.21395 24.1244 3.35859 24.2691 3.53538 24.2691H27.8515L22.0537 31.6217C21.889 31.8307 22.0376 32.1441 22.3068 32.1441H25.2198C25.4166 32.1441 25.6015 32.0557 25.726 31.899L32.5081 23.2967C33.1711 22.453 32.5724 21.2155 31.4956 21.2155ZM32.464 11.7333H8.14788L13.9456 4.38066C14.1104 4.17173 13.9617 3.85834 13.6925 3.85834H10.7796C10.5827 3.85834 10.3979 3.94673 10.2733 4.10343L3.49118 12.7057C2.82823 13.5494 3.42689 14.7869 4.49966 14.7869H32.464C32.6407 14.7869 32.7854 14.6423 32.7854 14.4655V12.0548C32.7854 11.878 32.6407 11.7333 32.464 11.7333Z" fill="black" fill-opacity="0.85"/>
</svg>
