<svg width="36" height="36" viewBox="0 0 36 36" fill="none" xmlns="http://www.w3.org/2000/svg">
<path d="M32.0621 16.1255H28.8076C28.6228 16.1255 28.446 16.2058 28.3215 16.3465L19.5264 26.4835V3.85897C19.5264 3.68218 19.3817 3.53754 19.2049 3.53754H16.7942C16.6174 3.53754 16.4728 3.68218 16.4728 3.85897V26.4835L7.6777 16.3465C7.55717 16.2058 7.38038 16.1255 7.19154 16.1255H3.93708C3.66386 16.1255 3.5152 16.4509 3.69601 16.6558L17.0313 32.0241C17.1518 32.1632 17.3008 32.2747 17.4683 32.3512C17.6357 32.4276 17.8176 32.4672 18.0016 32.4672C18.1856 32.4672 18.3675 32.4276 18.5349 32.3512C18.7023 32.2747 18.8514 32.1632 18.9719 32.0241L32.3032 16.6558C32.484 16.4469 32.3353 16.1255 32.0621 16.1255Z" fill="black" fill-opacity="0.85"/>
</svg>
