<svg width="36" height="36" viewBox="0 0 36 36" fill="none" xmlns="http://www.w3.org/2000/svg">
<path d="M31.9775 4.17917H4.02125C3.84044 4.17917 3.6958 4.32381 3.6958 4.5006V6.91131C3.6958 7.0881 3.84044 7.23274 4.02125 7.23274H31.9775C32.1583 7.23274 32.3029 7.0881 32.3029 6.91131V4.5006C32.3029 4.32381 32.1583 4.17917 31.9775 4.17917ZM18.2525 11.6926C18.2224 11.6541 18.184 11.6231 18.1402 11.6017C18.0963 11.5803 18.0482 11.5692 17.9994 11.5692C17.9506 11.5692 17.9024 11.5803 17.8586 11.6017C17.8147 11.6231 17.7763 11.6541 17.7462 11.6926L13.2462 17.3859C13.2092 17.4332 13.1861 17.4901 13.1798 17.5499C13.1735 17.6098 13.1842 17.6702 13.2106 17.7242C13.237 17.7783 13.2781 17.8239 13.3291 17.8557C13.3802 17.8875 13.4392 17.9043 13.4994 17.9042H16.4686V31.5006C16.4686 31.6774 16.6132 31.822 16.79 31.822H19.2007C19.3775 31.822 19.5221 31.6774 19.5221 31.5006V17.9082H22.4994C22.7686 17.9082 22.9172 17.5988 22.7525 17.3899L18.2525 11.6926Z" fill="black" fill-opacity="0.85"/>
</svg>
