<svg width="36" height="36" viewBox="0 0 36 36" fill="none" xmlns="http://www.w3.org/2000/svg">
<path d="M13.1375 7.10667C13.1054 6.84149 12.7799 6.72899 12.5911 6.91783L10.8353 8.67363L5.4634 3.30578C5.40299 3.24596 5.32141 3.2124 5.23639 3.2124C5.15137 3.2124 5.06979 3.24596 5.00938 3.30578L3.30581 5.00533C3.24599 5.06574 3.21243 5.14732 3.21243 5.23234C3.21243 5.31736 3.24599 5.39894 3.30581 5.45935L8.67768 10.8312L6.91384 12.5951C6.87136 12.6378 6.84171 12.6915 6.82826 12.7502C6.81482 12.809 6.81812 12.8703 6.8378 12.9272C6.85747 12.9841 6.89273 13.0344 6.93955 13.0723C6.98638 13.1102 7.0429 13.1341 7.10268 13.1415L13.5393 13.9009C13.7442 13.925 13.921 13.7522 13.8969 13.5433L13.1375 7.10667ZM13.5433 22.1013L7.10268 22.8607C6.8375 22.8928 6.725 23.2183 6.91384 23.4071L8.67768 25.171L3.30581 30.5348C3.24599 30.5952 3.21243 30.6768 3.21243 30.7618C3.21243 30.8468 3.24599 30.9284 3.30581 30.9888L5.00938 32.6884C5.13393 32.8129 5.33884 32.8129 5.4634 32.6884L10.8353 27.3205L12.5911 29.0763C12.6338 29.1188 12.6875 29.1485 12.7462 29.1619C12.805 29.1753 12.8663 29.172 12.9232 29.1524C12.9801 29.1327 13.0304 29.0974 13.0683 29.0506C13.1062 29.0038 13.1302 28.9473 13.1375 28.8875L13.8969 22.4549C13.921 22.25 13.7482 22.0772 13.5433 22.1013ZM22.4549 13.8968L28.8955 13.1375C29.1607 13.1053 29.2732 12.7799 29.0844 12.591L27.3205 10.8312L32.6924 5.46337C32.817 5.33881 32.817 5.1339 32.6924 5.00935L30.9888 3.3098C30.9284 3.24998 30.8469 3.21642 30.7618 3.21642C30.6768 3.21642 30.5952 3.24998 30.5348 3.3098L25.163 8.67363L23.4071 6.91783C23.3645 6.87534 23.3107 6.84569 23.252 6.83225C23.1933 6.81881 23.132 6.82211 23.075 6.84178C23.0181 6.86146 22.9678 6.89671 22.9299 6.94354C22.8921 6.99037 22.8681 7.04689 22.8607 7.10667L22.1013 13.5393C22.0772 13.7482 22.25 13.921 22.4549 13.8968ZM27.3205 25.1669L29.0844 23.4031C29.1269 23.3604 29.1565 23.3066 29.17 23.2479C29.1834 23.1892 29.1801 23.1279 29.1604 23.071C29.1408 23.014 29.1055 22.9638 29.0587 22.9259C29.0118 22.888 28.9553 22.864 28.8955 22.8567L22.4589 22.0973C22.254 22.0732 22.0772 22.246 22.1013 22.4549L22.8607 28.8915C22.8929 29.1567 23.2183 29.2692 23.4071 29.0803L25.163 27.3245L30.5348 32.6924C30.6594 32.8169 30.8643 32.8169 30.9888 32.6924L32.6924 30.9928C32.817 30.8683 32.817 30.6634 32.6924 30.5388L27.3205 25.1669Z" fill="black" fill-opacity="0.85"/>
</svg>
