<svg width="36" height="36" viewBox="0 0 36 36" fill="none" xmlns="http://www.w3.org/2000/svg">
<g clip-path="url(#clip0_806_7634)">
<path d="M18.2602 11.9056C18.2306 11.8646 18.1916 11.8311 18.1466 11.808C18.1015 11.785 18.0516 11.773 18.001 11.773C17.9504 11.773 17.9005 11.785 17.8554 11.808C17.8104 11.8311 17.7715 11.8646 17.7419 11.9056L10.5901 21.7896C10.4374 22.0025 10.5901 22.2998 10.8512 22.2998H12.7356C13.1454 22.2998 13.5352 22.103 13.7762 21.7695L17.999 15.9275L22.2258 21.7695C22.4669 22.103 22.8526 22.2998 23.2664 22.2998H25.1508C25.412 22.2998 25.5646 22.0025 25.412 21.7896L18.2602 11.9056Z" fill="black" fill-opacity="0.85"/>
<path d="M18 0C8.05982 0 0 8.05982 0 18C0 27.9402 8.05982 36 18 36C27.9402 36 36 27.9402 36 18C36 8.05982 27.9402 0 18 0ZM18 32.9464C9.74732 32.9464 3.05357 26.2527 3.05357 18C3.05357 9.74732 9.74732 3.05357 18 3.05357C26.2527 3.05357 32.9464 9.74732 32.9464 18C32.9464 26.2527 26.2527 32.9464 18 32.9464Z" fill="black" fill-opacity="0.85"/>
</g>
<defs>
<clipPath id="clip0_806_7634">
<rect width="36" height="36" fill="white"/>
</clipPath>
</defs>
</svg>
