<svg width="36" height="36" viewBox="0 0 36 36" fill="none" xmlns="http://www.w3.org/2000/svg">
<path d="M32.4646 16.5518H19.4467V3.21246H16.5539V16.5518H3.53602C3.35923 16.5518 3.21459 16.6964 3.21459 16.8732V19.1232C3.21459 19.3 3.35923 19.4446 3.53602 19.4446H16.5539V32.7839H19.4467V19.4446H32.4646C32.6414 19.4446 32.786 19.3 32.786 19.1232V16.8732C32.786 16.6964 32.6414 16.5518 32.4646 16.5518ZM32.4646 9.88211H30.2146C30.0378 9.88211 29.8932 10.0267 29.8932 10.2035V12.4535C29.8932 12.6303 30.0378 12.775 30.2146 12.775H32.4646C32.6414 12.775 32.786 12.6303 32.786 12.4535V10.2035C32.786 10.0267 32.6414 9.88211 32.4646 9.88211ZM32.4646 29.891H30.2146C30.0378 29.891 29.8932 30.0357 29.8932 30.2125V32.4625C29.8932 32.6393 30.0378 32.7839 30.2146 32.7839H32.4646C32.6414 32.7839 32.786 32.6393 32.786 32.4625V30.2125C32.786 30.0357 32.6414 29.891 32.4646 29.891ZM32.4646 3.21246H30.2146C30.0378 3.21246 29.8932 3.35711 29.8932 3.53389V5.78389C29.8932 5.96068 30.0378 6.10532 30.2146 6.10532H32.4646C32.6414 6.10532 32.786 5.96068 32.786 5.78389V3.53389C32.786 3.35711 32.6414 3.21246 32.4646 3.21246ZM32.4646 23.2214H30.2146C30.0378 23.2214 29.8932 23.366 29.8932 23.5428V25.7928C29.8932 25.9696 30.0378 26.1143 30.2146 26.1143H32.4646C32.6414 26.1143 32.786 25.9696 32.786 25.7928V23.5428C32.786 23.366 32.6414 23.2214 32.4646 23.2214ZM23.545 6.10532H25.795C25.9717 6.10532 26.1164 5.96068 26.1164 5.78389V3.53389C26.1164 3.35711 25.9717 3.21246 25.795 3.21246H23.545C23.3682 3.21246 23.2235 3.35711 23.2235 3.53389V5.78389C23.2235 5.96068 23.3682 6.10532 23.545 6.10532ZM25.795 29.891H23.545C23.3682 29.891 23.2235 30.0357 23.2235 30.2125V32.4625C23.2235 32.6393 23.3682 32.7839 23.545 32.7839H25.795C25.9717 32.7839 26.1164 32.6393 26.1164 32.4625V30.2125C26.1164 30.0357 25.9717 29.891 25.795 29.891ZM12.4557 29.891H10.2057C10.0289 29.891 9.88424 30.0357 9.88424 30.2125V32.4625C9.88424 32.6393 10.0289 32.7839 10.2057 32.7839H12.4557C12.6325 32.7839 12.7771 32.6393 12.7771 32.4625V30.2125C12.7771 30.0357 12.6325 29.891 12.4557 29.891ZM10.2057 6.10532H12.4557C12.6325 6.10532 12.7771 5.96068 12.7771 5.78389V3.53389C12.7771 3.35711 12.6325 3.21246 12.4557 3.21246H10.2057C10.0289 3.21246 9.88424 3.35711 9.88424 3.53389V5.78389C9.88424 5.96068 10.0289 6.10532 10.2057 6.10532ZM3.53602 6.10532H5.78602C5.96281 6.10532 6.10745 5.96068 6.10745 5.78389V3.53389C6.10745 3.35711 5.96281 3.21246 5.78602 3.21246H3.53602C3.35923 3.21246 3.21459 3.35711 3.21459 3.53389V5.78389C3.21459 5.96068 3.35923 6.10532 3.53602 6.10532ZM5.78602 29.891H3.53602C3.35923 29.891 3.21459 30.0357 3.21459 30.2125V32.4625C3.21459 32.6393 3.35923 32.7839 3.53602 32.7839H5.78602C5.96281 32.7839 6.10745 32.6393 6.10745 32.4625V30.2125C6.10745 30.0357 5.96281 29.891 5.78602 29.891ZM3.53602 12.775H5.78602C5.96281 12.775 6.10745 12.6303 6.10745 12.4535V10.2035C6.10745 10.0267 5.96281 9.88211 5.78602 9.88211H3.53602C3.35923 9.88211 3.21459 10.0267 3.21459 10.2035V12.4535C3.21459 12.6303 3.35923 12.775 3.53602 12.775ZM5.78602 23.2214H3.53602C3.35923 23.2214 3.21459 23.366 3.21459 23.5428V25.7928C3.21459 25.9696 3.35923 26.1143 3.53602 26.1143H5.78602C5.96281 26.1143 6.10745 25.9696 6.10745 25.7928V23.5428C6.10745 23.366 5.96281 23.2214 5.78602 23.2214Z" fill="black" fill-opacity="0.85"/>
</svg>
