<svg width="36" height="36" viewBox="0 0 36 36" fill="none" xmlns="http://www.w3.org/2000/svg">
<path d="M12.2147 2.5708H9.96474C9.78796 2.5708 9.64331 2.71544 9.64331 2.89223V5.14223C9.64331 5.31902 9.78796 5.46366 9.96474 5.46366H12.2147C12.3915 5.46366 12.5362 5.31902 12.5362 5.14223V2.89223C12.5362 2.71544 12.3915 2.5708 12.2147 2.5708ZM12.1344 30.5351H9.88439C9.7076 30.5351 9.56296 30.6797 9.56296 30.8565V33.1065C9.56296 33.2833 9.7076 33.4279 9.88439 33.4279H12.1344C12.3112 33.4279 12.4558 33.2833 12.4558 33.1065V30.8565C12.4558 30.6797 12.3112 30.5351 12.1344 30.5351ZM33.1076 23.544H30.8576C30.6808 23.544 30.5362 23.6887 30.5362 23.8654V26.1154C30.5362 26.2922 30.6808 26.4369 30.8576 26.4369H33.1076C33.2844 26.4369 33.429 26.2922 33.429 26.1154V23.8654C33.429 23.6887 33.2844 23.544 33.1076 23.544ZM33.1076 30.5351H30.8576C30.6808 30.5351 30.5362 30.6797 30.5362 30.8565V33.1065C30.5362 33.2833 30.6808 33.4279 30.8576 33.4279H33.1076C33.2844 33.4279 33.429 33.2833 33.429 33.1065V30.8565C33.429 30.6797 33.2844 30.5351 33.1076 30.5351ZM5.14331 2.5708H2.89331C2.71653 2.5708 2.57188 2.71544 2.57188 2.89223V5.14223C2.57188 5.31902 2.71653 5.46366 2.89331 5.46366H5.14331C5.3201 5.46366 5.46474 5.31902 5.46474 5.14223V2.89223C5.46474 2.71544 5.3201 2.5708 5.14331 2.5708ZM5.14331 9.56187H2.89331C2.71653 9.56187 2.57188 9.70652 2.57188 9.8833V12.1333C2.57188 12.3101 2.71653 12.4547 2.89331 12.4547H5.14331C5.3201 12.4547 5.46474 12.3101 5.46474 12.1333V9.8833C5.46474 9.70652 5.3201 9.56187 5.14331 9.56187ZM5.14331 16.5529H2.89331C2.71653 16.5529 2.57188 16.6976 2.57188 16.8744V19.1244C2.57188 19.3012 2.71653 19.4458 2.89331 19.4458H5.14331C5.3201 19.4458 5.46474 19.3012 5.46474 19.1244V16.8744C5.46474 16.6976 5.3201 16.5529 5.14331 16.5529ZM5.14331 23.544H2.89331C2.71653 23.544 2.57188 23.6887 2.57188 23.8654V26.1154C2.57188 26.2922 2.71653 26.4369 2.89331 26.4369H5.14331C5.3201 26.4369 5.46474 26.2922 5.46474 26.1154V23.8654C5.46474 23.6887 5.3201 23.544 5.14331 23.544ZM5.14331 30.5351H2.89331C2.71653 30.5351 2.57188 30.6797 2.57188 30.8565V33.1065C2.57188 33.2833 2.71653 33.4279 2.89331 33.4279H5.14331C5.3201 33.4279 5.46474 33.2833 5.46474 33.1065V30.8565C5.46474 30.6797 5.3201 30.5351 5.14331 30.5351ZM19.1255 30.5351H16.8755C16.6987 30.5351 16.554 30.6797 16.554 30.8565V33.1065C16.554 33.2833 16.6987 33.4279 16.8755 33.4279H19.1255C19.3022 33.4279 19.4469 33.2833 19.4469 33.1065V30.8565C19.4469 30.6797 19.3022 30.5351 19.1255 30.5351ZM26.1165 30.5351H23.8665C23.6897 30.5351 23.5451 30.6797 23.5451 30.8565V33.1065C23.5451 33.2833 23.6897 33.4279 23.8665 33.4279H26.1165C26.2933 33.4279 26.438 33.2833 26.438 33.1065V30.8565C26.438 30.6797 26.2933 30.5351 26.1165 30.5351ZM24.188 2.5708H16.8755C16.6987 2.5708 16.554 2.71544 16.554 2.89223V5.14223C16.554 5.31902 16.6987 5.46366 16.8755 5.46366H24.188C27.6955 5.46366 30.5362 8.30428 30.5362 11.8119V19.1244C30.5362 19.3012 30.6808 19.4458 30.8576 19.4458H33.1076C33.2844 19.4458 33.429 19.3012 33.429 19.1244V11.8119C33.429 6.70919 29.2906 2.5708 24.188 2.5708Z" fill="black" fill-opacity="0.85"/>
</svg>
