<svg width="36" height="36" viewBox="0 0 36 36" fill="none" xmlns="http://www.w3.org/2000/svg">
<path d="M4.78125 19.4063H7.01719C7.17188 19.4063 7.29844 19.2797 7.29844 19.125V10.1496H25.882V12.702C25.882 12.7688 25.9031 12.832 25.9453 12.8848C25.969 12.9151 25.9985 12.9405 26.032 12.9594C26.0655 12.9784 26.1025 12.9905 26.1407 12.995C26.179 12.9996 26.2177 12.9966 26.2548 12.9861C26.2918 12.9756 26.3265 12.9579 26.3566 12.934L31.3945 8.97892C31.5457 8.80313 31.5211 8.61681 31.3945 8.51485L26.3566 4.56329C26.3048 4.52182 26.2402 4.49947 26.1738 4.50001C26.0121 4.50001 25.8785 4.6336 25.8785 4.79532V7.34767H7.0207C5.63203 7.34767 4.5 8.4797 4.5 9.87188V19.125C4.5 19.2797 4.62656 19.4063 4.78125 19.4063ZM31.2188 16.5938H28.9828C28.8281 16.5938 28.7016 16.7203 28.7016 16.875V25.8504H10.118V23.2981C10.118 23.2313 10.0969 23.168 10.0547 23.1152C10.031 23.0849 10.0015 23.0595 9.968 23.0406C9.93446 23.0217 9.89751 23.0096 9.85927 23.005C9.82104 23.0004 9.78227 23.0034 9.74521 23.0139C9.70816 23.0244 9.67354 23.0421 9.64336 23.066L4.60547 27.0211C4.4543 27.1969 4.47891 27.3832 4.60547 27.4852L9.64336 31.4367C9.69609 31.4789 9.75938 31.5 9.82617 31.5C9.98789 31.5 10.1215 31.3664 10.1215 31.2047V28.6524H28.9863C30.375 28.6524 31.507 27.5203 31.507 26.1281V16.875C31.5 16.7203 31.3734 16.5938 31.2188 16.5938Z" fill="black" fill-opacity="0.85"/>
</svg>
