<svg width="36" height="36" viewBox="0 0 36 36" fill="none" xmlns="http://www.w3.org/2000/svg">
<path d="M31.7807 3.86133L24.179 4.80553C23.9138 4.83767 23.8053 5.1591 23.9901 5.34794L26.1879 7.54571L20.0205 13.7131C19.9607 13.7735 19.9271 13.8551 19.9271 13.9401C19.9271 14.0251 19.9607 14.1067 20.0205 14.1671L21.8325 15.9792C21.9571 16.1037 22.162 16.1037 22.2865 15.9792L28.458 9.80776L30.6557 12.0055C30.6981 12.0479 30.7516 12.0775 30.8101 12.0909C30.8685 12.1042 30.9295 12.1009 30.9862 12.0812C31.0428 12.0615 31.0927 12.0262 31.1302 11.9794C31.1677 11.9326 31.1912 11.8762 31.1982 11.8167L32.1383 4.21892C32.145 4.1704 32.1403 4.121 32.1247 4.07458C32.1091 4.02816 32.0829 3.98599 32.0483 3.95136C32.0137 3.91673 31.9715 3.89058 31.9251 3.87496C31.8787 3.85934 31.8293 3.85468 31.7807 3.86133ZM14.1665 20.0212C14.106 19.9613 14.0245 19.9278 13.9394 19.9278C13.8544 19.9278 13.7728 19.9613 13.7124 20.0212L7.54503 26.1926L5.34726 23.9948C5.30486 23.9524 5.25137 23.9229 5.19293 23.9095C5.13449 23.8961 5.07346 23.8995 5.01684 23.9192C4.96023 23.9389 4.91031 23.9742 4.87281 24.0209C4.83532 24.0677 4.81176 24.1241 4.80485 24.1837L3.86065 31.7814C3.83654 31.9904 4.00931 32.1631 4.21824 32.139L11.82 31.1948C12.0852 31.1627 12.1937 30.8412 12.0089 30.6524L9.8111 28.4546L15.9825 22.2832C16.1071 22.1587 16.1071 21.9537 15.9825 21.8292L14.1665 20.0212Z" fill="black" fill-opacity="0.85"/>
</svg>
