<svg width="36" height="36" viewBox="0 0 36 36" fill="none" xmlns="http://www.w3.org/2000/svg">
<path d="M29.2892 7.15149H12.133V4.17828C12.133 3.90908 11.8236 3.76042 11.6147 3.92515L5.90933 8.42516C5.87091 8.45522 5.83984 8.49364 5.81847 8.53749C5.7971 8.58135 5.786 8.6295 5.786 8.67828C5.786 8.72706 5.7971 8.77521 5.81847 8.81907C5.83984 8.86292 5.87091 8.90134 5.90933 8.9314L11.6147 13.4314C11.8236 13.5961 12.133 13.4475 12.133 13.1783V10.2051H28.8071V29.089H4.45888C4.28209 29.089 4.13745 29.2336 4.13745 29.4104V31.8211C4.13745 31.9979 4.28209 32.1426 4.45888 32.1426H29.2892C30.7075 32.1426 31.8607 30.9894 31.8607 29.5711V9.72292C31.8607 8.30462 30.7075 7.15149 29.2892 7.15149Z" fill="black" fill-opacity="0.85"/>
</svg>
