<svg width="36" height="36" viewBox="0 0 36 36" fill="none" xmlns="http://www.w3.org/2000/svg">
<g clip-path="url(#clip0_806_7810)">
<path d="M35.6786 29.2512H0.321429C0.144643 29.2512 0 29.3958 0 29.5726V31.8226C0 31.9994 0.144643 32.1441 0.321429 32.1441H35.6786C35.8554 32.1441 36 31.9994 36 31.8226V29.5726C36 29.3958 35.8554 29.2512 35.6786 29.2512ZM35.6786 3.85834H0.321429C0.144643 3.85834 0 4.00298 0 4.17977V6.42977C0 6.60655 0.144643 6.75119 0.321429 6.75119H35.6786C35.8554 6.75119 36 6.60655 36 6.42977V4.17977C36 4.00298 35.8554 3.85834 35.6786 3.85834ZM31.5 23.9476C31.8536 23.9476 32.1429 23.6583 32.1429 23.3048V12.6976C32.1429 12.3441 31.8536 12.0548 31.5 12.0548H4.5C4.14643 12.0548 3.85714 12.3441 3.85714 12.6976V23.3048C3.85714 23.6583 4.14643 23.9476 4.5 23.9476H31.5ZM6.75 14.9476H29.25V21.0548H6.75V14.9476Z" fill="black" fill-opacity="0.85"/>
</g>
<defs>
<clipPath id="clip0_806_7810">
<rect width="36" height="36" fill="white"/>
</clipPath>
</defs>
</svg>
