<svg width="36" height="36" viewBox="0 0 36 36" fill="none" xmlns="http://www.w3.org/2000/svg">
<path d="M23.7851 5.46366H26.0351C26.2119 5.46366 26.3565 5.31902 26.3565 5.14223V2.89223C26.3565 2.71544 26.2119 2.5708 26.0351 2.5708H23.7851C23.6083 2.5708 23.4637 2.71544 23.4637 2.89223V5.14223C23.4637 5.31902 23.6083 5.46366 23.7851 5.46366ZM26.1154 30.5351H23.8654C23.6887 30.5351 23.544 30.6797 23.544 30.8565V33.1065C23.544 33.2833 23.6887 33.4279 23.8654 33.4279H26.1154C26.2922 33.4279 26.4369 33.2833 26.4369 33.1065V30.8565C26.4369 30.6797 26.2922 30.5351 26.1154 30.5351ZM5.14223 23.544H2.89223C2.71544 23.544 2.5708 23.6887 2.5708 23.8654V26.1154C2.5708 26.2922 2.71544 26.4369 2.89223 26.4369H5.14223C5.31902 26.4369 5.46366 26.2922 5.46366 26.1154V23.8654C5.46366 23.6887 5.31902 23.544 5.14223 23.544ZM5.14223 30.5351H2.89223C2.71544 30.5351 2.5708 30.6797 2.5708 30.8565V33.1065C2.5708 33.2833 2.71544 33.4279 2.89223 33.4279H5.14223C5.31902 33.4279 5.46366 33.2833 5.46366 33.1065V30.8565C5.46366 30.6797 5.31902 30.5351 5.14223 30.5351ZM33.1065 2.5708H30.8565C30.6797 2.5708 30.5351 2.71544 30.5351 2.89223V5.14223C30.5351 5.31902 30.6797 5.46366 30.8565 5.46366H33.1065C33.2833 5.46366 33.4279 5.31902 33.4279 5.14223V2.89223C33.4279 2.71544 33.2833 2.5708 33.1065 2.5708ZM33.1065 9.56187H30.8565C30.6797 9.56187 30.5351 9.70652 30.5351 9.8833V12.1333C30.5351 12.3101 30.6797 12.4547 30.8565 12.4547H33.1065C33.2833 12.4547 33.4279 12.3101 33.4279 12.1333V9.8833C33.4279 9.70652 33.2833 9.56187 33.1065 9.56187ZM33.1065 16.5529H30.8565C30.6797 16.5529 30.5351 16.6976 30.5351 16.8744V19.1244C30.5351 19.3012 30.6797 19.4458 30.8565 19.4458H33.1065C33.2833 19.4458 33.4279 19.3012 33.4279 19.1244V16.8744C33.4279 16.6976 33.2833 16.5529 33.1065 16.5529ZM33.1065 23.544H30.8565C30.6797 23.544 30.5351 23.6887 30.5351 23.8654V26.1154C30.5351 26.2922 30.6797 26.4369 30.8565 26.4369H33.1065C33.2833 26.4369 33.4279 26.2922 33.4279 26.1154V23.8654C33.4279 23.6887 33.2833 23.544 33.1065 23.544ZM33.1065 30.5351H30.8565C30.6797 30.5351 30.5351 30.6797 30.5351 30.8565V33.1065C30.5351 33.2833 30.6797 33.4279 30.8565 33.4279H33.1065C33.2833 33.4279 33.4279 33.2833 33.4279 33.1065V30.8565C33.4279 30.6797 33.2833 30.5351 33.1065 30.5351ZM19.1244 30.5351H16.8744C16.6976 30.5351 16.5529 30.6797 16.5529 30.8565V33.1065C16.5529 33.2833 16.6976 33.4279 16.8744 33.4279H19.1244C19.3012 33.4279 19.4458 33.2833 19.4458 33.1065V30.8565C19.4458 30.6797 19.3012 30.5351 19.1244 30.5351ZM12.1333 30.5351H9.8833C9.70652 30.5351 9.56187 30.6797 9.56187 30.8565V33.1065C9.56187 33.2833 9.70652 33.4279 9.8833 33.4279H12.1333C12.3101 33.4279 12.4547 33.2833 12.4547 33.1065V30.8565C12.4547 30.6797 12.3101 30.5351 12.1333 30.5351ZM19.1244 2.5708H11.8119C6.70919 2.5708 2.5708 6.70919 2.5708 11.8119V19.1244C2.5708 19.3012 2.71544 19.4458 2.89223 19.4458H5.14223C5.31902 19.4458 5.46366 19.3012 5.46366 19.1244V11.8119C5.46366 8.30428 8.30428 5.46366 11.8119 5.46366H19.1244C19.3012 5.46366 19.4458 5.31902 19.4458 5.14223V2.89223C19.4458 2.71544 19.3012 2.5708 19.1244 2.5708Z" fill="black" fill-opacity="0.85"/>
</svg>
