<svg width="36" height="36" viewBox="0 0 36 36" fill="none" xmlns="http://www.w3.org/2000/svg">
<g clip-path="url(#clip0_806_7734)">
<path fill-rule="evenodd" clip-rule="evenodd" d="M14.4352 8.84235L26.3321 17.4807C26.4142 17.5399 26.4811 17.6178 26.5273 17.7079C26.5734 17.798 26.5975 17.8978 26.5975 17.9991C26.5975 18.1003 26.5734 18.2001 26.5273 18.2902C26.4811 18.3803 26.4142 18.4582 26.3321 18.5174L14.4352 27.1557C14.0134 27.4611 13.4187 27.1638 13.4187 26.6374V9.36066C13.4181 9.24235 13.4504 9.12621 13.512 9.02518C13.5736 8.92415 13.662 8.8422 13.7674 8.78846C13.8728 8.73472 13.991 8.71131 14.1089 8.72082C14.2268 8.73034 14.3398 8.77241 14.4352 8.84235ZM15.9821 13.1334V22.8647L22.6799 17.9991L15.9821 13.1334Z" fill="black" fill-opacity="0.85"/>
<path fill-rule="evenodd" clip-rule="evenodd" d="M0 18C0 8.05982 8.05982 0 18 0C27.9402 0 36 8.05982 36 18C36 27.9402 27.9402 36 18 36C8.05982 36 0 27.9402 0 18ZM3.05357 18C3.05357 26.2527 9.74732 32.9464 18 32.9464C26.2527 32.9464 32.9464 26.2527 32.9464 18C32.9464 9.74732 26.2527 3.05357 18 3.05357C9.74732 3.05357 3.05357 9.74732 3.05357 18Z" fill="black" fill-opacity="0.85"/>
</g>
<defs>
<clipPath id="clip0_806_7734">
<rect width="36" height="36" fill="white"/>
</clipPath>
</defs>
</svg>
