<svg width="36" height="36" viewBox="0 0 36 36" fill="none" xmlns="http://www.w3.org/2000/svg">
<path d="M17.7397 23.8942C17.8682 24.071 18.1294 24.071 18.258 23.8942L25.4097 14.0103C25.5624 13.7973 25.4097 13.5 25.1486 13.5H23.2642C22.8544 13.5 22.4647 13.6969 22.2236 14.0304L18.0008 19.8723L13.774 14.0304C13.533 13.6969 13.1472 13.5 12.7334 13.5H10.849C10.5879 13.5 10.4352 13.7973 10.5879 14.0103L17.7397 23.8942Z" fill="black" fill-opacity="0.85"/>
<path d="M32.7863 1.9292H3.21491C2.50375 1.9292 1.9292 2.50375 1.9292 3.21491V32.7863C1.9292 33.4975 2.50375 34.0721 3.21491 34.0721H32.7863C33.4975 34.0721 34.0721 33.4975 34.0721 32.7863V3.21491C34.0721 2.50375 33.4975 1.9292 32.7863 1.9292ZM31.1792 31.1792H4.82206V4.82206H31.1792V31.1792Z" fill="black" fill-opacity="0.85"/>
</svg>
