<svg width="36" height="36" viewBox="0 0 36 36" fill="none" xmlns="http://www.w3.org/2000/svg">
<path d="M32.3441 17.0271L17.1646 3.8525C17.0481 3.75205 16.8994 3.6958 16.7427 3.6958H13.1869C12.8896 3.6958 12.753 4.06544 12.978 4.2583L27.0485 16.4726H3.53602C3.35923 16.4726 3.21459 16.6172 3.21459 16.794V19.2047C3.21459 19.3815 3.35923 19.5262 3.53602 19.5262H27.0445L12.974 31.7404C12.749 31.9373 12.8856 32.3029 13.1829 32.3029H16.8592C16.9356 32.3029 17.0119 32.2748 17.0682 32.2226L32.3441 18.9717C32.4832 18.8507 32.5947 18.7014 32.6711 18.5336C32.7475 18.3659 32.7871 18.1837 32.7871 17.9994C32.7871 17.815 32.7475 17.6329 32.6711 17.4651C32.5947 17.2974 32.4832 17.148 32.3441 17.0271Z" fill="black" fill-opacity="0.85"/>
</svg>
