<svg width="36" height="36" viewBox="0 0 36 36" fill="none" xmlns="http://www.w3.org/2000/svg">
<path d="M32.8555 4.95745L31.0435 3.14539C30.9831 3.08557 30.9015 3.05202 30.8165 3.05202C30.7315 3.05202 30.6499 3.08557 30.5895 3.14539L24.2614 9.47753L22.0636 7.27977C22.0212 7.23739 21.9677 7.20781 21.9093 7.19443C21.8508 7.18105 21.7898 7.18441 21.7332 7.20412C21.6766 7.22383 21.6266 7.2591 21.5891 7.30588C21.5516 7.35266 21.5281 7.40905 21.5212 7.46861L20.577 15.0664C20.5529 15.2753 20.7256 15.4481 20.9346 15.424L28.5364 14.4798C28.8015 14.4476 28.91 14.1262 28.7252 13.9374L26.5274 11.7396L32.8596 5.40745C32.9801 5.28691 32.9801 5.082 32.8555 4.95745ZM15.0685 20.5749L7.46671 21.519C7.20153 21.5512 7.09305 21.8766 7.27787 22.0615L9.47564 24.2592L3.14751 30.5874C3.08769 30.6478 3.05414 30.7293 3.05414 30.8144C3.05414 30.8994 3.08769 30.981 3.14751 31.0414L4.95957 32.8534C5.08412 32.978 5.28903 32.978 5.41358 32.8534L11.7457 26.5213L13.9435 28.719C13.9859 28.7614 14.0394 28.791 14.0978 28.8044C14.1563 28.8178 14.2173 28.8144 14.2739 28.7947C14.3305 28.775 14.3804 28.7397 14.4179 28.6929C14.4554 28.6462 14.479 28.5898 14.4859 28.5302L15.4261 20.9324C15.4327 20.8839 15.4281 20.8345 15.4125 20.7881C15.3968 20.7417 15.3707 20.6995 15.3361 20.6649C15.3014 20.6302 15.2593 20.6041 15.2128 20.5885C15.1664 20.5729 15.117 20.5682 15.0685 20.5749Z" fill="black" fill-opacity="0.85"/>
</svg>
