<svg width="36" height="36" viewBox="0 0 36 36" fill="none" xmlns="http://www.w3.org/2000/svg">
<path d="M5.78603 3.21246H3.53603C3.35924 3.21246 3.2146 3.35711 3.2146 3.53389V32.4625C3.2146 32.6393 3.35924 32.7839 3.53603 32.7839H5.78603C5.96281 32.7839 6.10746 32.6393 6.10746 32.4625V3.53389C6.10746 3.35711 5.96281 3.21246 5.78603 3.21246ZM12.4557 3.21246H10.2057C10.0289 3.21246 9.88424 3.35711 9.88424 3.53389V5.78389C9.88424 5.96068 10.0289 6.10532 10.2057 6.10532H12.4557C12.6325 6.10532 12.7771 5.96068 12.7771 5.78389V3.53389C12.7771 3.35711 12.6325 3.21246 12.4557 3.21246ZM32.4646 3.21246H30.2146C30.0378 3.21246 29.8932 3.35711 29.8932 3.53389V5.78389C29.8932 5.96068 30.0378 6.10532 30.2146 6.10532H32.4646C32.6414 6.10532 32.786 5.96068 32.786 5.78389V3.53389C32.786 3.35711 32.6414 3.21246 32.4646 3.21246ZM19.1253 3.21246H16.8753C16.6985 3.21246 16.5539 3.35711 16.5539 3.53389V5.78389C16.5539 5.96068 16.6985 6.10532 16.8753 6.10532H19.1253C19.3021 6.10532 19.4467 5.96068 19.4467 5.78389V3.53389C19.4467 3.35711 19.3021 3.21246 19.1253 3.21246ZM25.795 3.21246H23.545C23.3682 3.21246 23.2235 3.35711 23.2235 3.53389V5.78389C23.2235 5.96068 23.3682 6.10532 23.545 6.10532H25.795C25.9717 6.10532 26.1164 5.96068 26.1164 5.78389V3.53389C26.1164 3.35711 25.9717 3.21246 25.795 3.21246ZM19.1253 9.88211H16.8753C16.6985 9.88211 16.5539 10.0267 16.5539 10.2035V12.4535C16.5539 12.6303 16.6985 12.775 16.8753 12.775H19.1253C19.3021 12.775 19.4467 12.6303 19.4467 12.4535V10.2035C19.4467 10.0267 19.3021 9.88211 19.1253 9.88211ZM32.4646 9.88211H30.2146C30.0378 9.88211 29.8932 10.0267 29.8932 10.2035V12.4535C29.8932 12.6303 30.0378 12.775 30.2146 12.775H32.4646C32.6414 12.775 32.786 12.6303 32.786 12.4535V10.2035C32.786 10.0267 32.6414 9.88211 32.4646 9.88211ZM32.4646 23.2214H30.2146C30.0378 23.2214 29.8932 23.366 29.8932 23.5428V25.7928C29.8932 25.9696 30.0378 26.1143 30.2146 26.1143H32.4646C32.6414 26.1143 32.786 25.9696 32.786 25.7928V23.5428C32.786 23.366 32.6414 23.2214 32.4646 23.2214ZM19.1253 23.2214H16.8753C16.6985 23.2214 16.5539 23.366 16.5539 23.5428V25.7928C16.5539 25.9696 16.6985 26.1143 16.8753 26.1143H19.1253C19.3021 26.1143 19.4467 25.9696 19.4467 25.7928V23.5428C19.4467 23.366 19.3021 23.2214 19.1253 23.2214ZM19.1253 29.891H16.8753C16.6985 29.891 16.5539 30.0357 16.5539 30.2125V32.4625C16.5539 32.6393 16.6985 32.7839 16.8753 32.7839H19.1253C19.3021 32.7839 19.4467 32.6393 19.4467 32.4625V30.2125C19.4467 30.0357 19.3021 29.891 19.1253 29.891ZM19.1253 16.5518H16.8753C16.6985 16.5518 16.5539 16.6964 16.5539 16.8732V19.1232C16.5539 19.3 16.6985 19.4446 16.8753 19.4446H19.1253C19.3021 19.4446 19.4467 19.3 19.4467 19.1232V16.8732C19.4467 16.6964 19.3021 16.5518 19.1253 16.5518ZM32.4646 29.891H30.2146C30.0378 29.891 29.8932 30.0357 29.8932 30.2125V32.4625C29.8932 32.6393 30.0378 32.7839 30.2146 32.7839H32.4646C32.6414 32.7839 32.786 32.6393 32.786 32.4625V30.2125C32.786 30.0357 32.6414 29.891 32.4646 29.891ZM32.4646 16.5518H30.2146C30.0378 16.5518 29.8932 16.6964 29.8932 16.8732V19.1232C29.8932 19.3 30.0378 19.4446 30.2146 19.4446H32.4646C32.6414 19.4446 32.786 19.3 32.786 19.1232V16.8732C32.786 16.6964 32.6414 16.5518 32.4646 16.5518ZM12.4557 29.891H10.2057C10.0289 29.891 9.88424 30.0357 9.88424 30.2125V32.4625C9.88424 32.6393 10.0289 32.7839 10.2057 32.7839H12.4557C12.6325 32.7839 12.7771 32.6393 12.7771 32.4625V30.2125C12.7771 30.0357 12.6325 29.891 12.4557 29.891ZM12.4557 16.5518H10.2057C10.0289 16.5518 9.88424 16.6964 9.88424 16.8732V19.1232C9.88424 19.3 10.0289 19.4446 10.2057 19.4446H12.4557C12.6325 19.4446 12.7771 19.3 12.7771 19.1232V16.8732C12.7771 16.6964 12.6325 16.5518 12.4557 16.5518ZM25.795 29.891H23.545C23.3682 29.891 23.2235 30.0357 23.2235 30.2125V32.4625C23.2235 32.6393 23.3682 32.7839 23.545 32.7839H25.795C25.9717 32.7839 26.1164 32.6393 26.1164 32.4625V30.2125C26.1164 30.0357 25.9717 29.891 25.795 29.891ZM25.795 16.5518H23.545C23.3682 16.5518 23.2235 16.6964 23.2235 16.8732V19.1232C23.2235 19.3 23.3682 19.4446 23.545 19.4446H25.795C25.9717 19.4446 26.1164 19.3 26.1164 19.1232V16.8732C26.1164 16.6964 25.9717 16.5518 25.795 16.5518Z" fill="black" fill-opacity="0.85"/>
</svg>
