<svg width="36" height="36" viewBox="0 0 36 36" fill="none" xmlns="http://www.w3.org/2000/svg">
<path d="M33.2077 27.7757L19.0407 8.24494C18.5265 7.5378 17.4738 7.5378 16.9635 8.24494L2.79252 27.7757C2.75765 27.8238 2.73676 27.8805 2.73217 27.9397C2.72757 27.9989 2.73946 28.0582 2.7665 28.111C2.79354 28.1639 2.83469 28.2082 2.88538 28.2391C2.93607 28.27 2.99433 28.2862 3.05368 28.286H6.06708C6.27199 28.286 6.46484 28.1856 6.58538 28.0208L18.0001 12.2869L29.4148 28.0208C29.5354 28.1856 29.7282 28.286 29.9331 28.286H32.9465C33.2077 28.286 33.3604 27.9887 33.2077 27.7757Z" fill="black" fill-opacity="0.85"/>
</svg>
