<svg xmlns="http://www.w3.org/2000/svg" width="36" height="36" viewBox="0 0 36 36" fill="none">
  <path d="M29.25 2.25H10.4062C10.2516 2.25 10.125 2.37656 10.125 2.53125V4.5C10.125 4.65469 10.2516 4.78125 10.4062 4.78125H27.8438V28.9688C27.8438 29.1234 27.9703 29.25 28.125 29.25H30.0938C30.2484 29.25 30.375 29.1234 30.375 28.9688V3.375C30.375 2.75273 29.8723 2.25 29.25 2.25ZM24.75 6.75H6.75C6.12773 6.75 5.625 7.25273 5.625 7.875V26.5324C5.625 26.8313 5.74453 27.116 5.95547 27.327L12.048 33.4195C12.1254 33.4969 12.2133 33.5602 12.3082 33.6129V33.6797H12.4559C12.5789 33.7254 12.709 33.75 12.8426 33.75H24.75C25.3723 33.75 25.875 33.2473 25.875 32.625V7.875C25.875 7.25273 25.3723 6.75 24.75 6.75ZM13.4297 31.5H13.4227L8.15625 26.2336V26.2266H13.4297V31.5Z" fill="black" fill-opacity="0.85"/>
</svg>