<svg xmlns="http://www.w3.org/2000/svg" width="36" height="36" viewBox="0 0 36 36" fill="none">
  <path d="M30.9375 3.9375C30.8039 3.9375 30.6668 3.96211 30.5297 4.01836L10.2656 12.1605H4.5C4.19062 12.1605 3.9375 12.4207 3.9375 12.7441V23.2559C3.9375 23.5793 4.19062 23.8395 4.5 23.8395H8.07188C7.9418 24.2473 7.875 24.6797 7.875 25.1191C7.875 27.4359 9.76641 29.3203 12.0938 29.3203C14.0414 29.3203 15.6832 27.9984 16.1684 26.2125L30.5332 31.9852C30.6703 32.0379 30.8074 32.066 30.941 32.066C31.5352 32.066 32.066 31.5668 32.066 30.8988V5.10469C32.0625 4.43672 31.5352 3.9375 30.9375 3.9375ZM12.0938 26.7996C11.1621 26.7996 10.4062 26.0473 10.4062 25.1191C10.4062 24.7254 10.5434 24.3492 10.793 24.0504L13.7777 25.2492C13.7074 26.1141 12.9797 26.7996 12.0938 26.7996Z" fill="black" fill-opacity="0.85"/>
</svg>