<svg xmlns="http://www.w3.org/2000/svg" width="36" height="36" viewBox="0 0 36 36" fill="none">
  <path d="M31.1449 18.7625C31.7355 17.9821 32.0625 17.0258 32.0625 16.0309C32.0625 14.4524 31.1801 12.9582 29.7598 12.125C29.3941 11.9106 28.9778 11.7977 28.5539 11.7981H20.1234L20.3344 7.47737C20.3836 6.43323 20.0145 5.44182 19.2973 4.68596C18.9453 4.31341 18.5207 4.01699 18.0496 3.81502C17.5786 3.61306 17.0711 3.50984 16.5586 3.51174C14.7305 3.51174 13.1133 4.74221 12.6281 6.50354L9.6082 17.4371H9.59766V32.484H26.202C26.5254 32.484 26.8418 32.4207 27.1336 32.2942C28.807 31.5805 29.8863 29.9457 29.8863 28.1317C29.8863 27.6887 29.823 27.2528 29.6965 26.8309C30.2871 26.0504 30.6141 25.0942 30.6141 24.0992C30.6141 23.6563 30.5508 23.2203 30.4242 22.7985C31.0148 22.018 31.3418 21.0617 31.3418 20.0668C31.3348 19.6239 31.2715 19.1844 31.1449 18.7625ZM3.9375 18.5621V31.359C3.9375 31.9813 4.44023 32.484 5.0625 32.484H7.34766V17.4371H5.0625C4.44023 17.4371 3.9375 17.9399 3.9375 18.5621Z" fill="black" fill-opacity="0.85"/>
</svg>