<svg xmlns="http://www.w3.org/2000/svg" width="36" height="36" viewBox="0 0 36 36" fill="none">
  <path d="M12.2203 18.5959L25.6922 29.1786C26.1932 29.5724 26.9297 29.2173 26.9297 28.5827V7.41691C26.9297 6.78234 26.1932 6.42762 25.6922 6.82137L12.2203 17.4041C12.1299 17.4749 12.0568 17.5654 12.0065 17.6686C11.9562 17.7718 11.9301 17.8852 11.9301 18C11.9301 18.1148 11.9562 18.2282 12.0065 18.3314C12.0568 18.4346 12.1299 18.5251 12.2203 18.5959ZM11.6016 30.375H9.35156C9.27697 30.375 9.20543 30.3454 9.15269 30.2926C9.09994 30.2399 9.07031 30.1683 9.07031 30.0938V5.90625C9.07031 5.83166 9.09994 5.76012 9.15269 5.70738C9.20543 5.65463 9.27697 5.625 9.35156 5.625H11.6016C11.6762 5.625 11.7477 5.65463 11.8004 5.70738C11.8532 5.76012 11.8828 5.83166 11.8828 5.90625V30.0938C11.8828 30.1683 11.8532 30.2399 11.8004 30.2926C11.7477 30.3454 11.6762 30.375 11.6016 30.375Z" fill="black" fill-opacity="0.85"/>
</svg>