<svg xmlns="http://www.w3.org/2000/svg" width="36" height="36" viewBox="0 0 36 36" fill="none">
  <path d="M31.1449 17.2371C31.2715 16.8152 31.3348 16.3793 31.3348 15.9363C31.3348 14.9414 31.0078 13.9852 30.4172 13.2047C30.5438 12.7828 30.607 12.3469 30.607 11.9039C30.607 10.909 30.2801 9.95273 29.6895 9.17227C29.816 8.75039 29.8793 8.31445 29.8793 7.87148C29.8793 6.05742 28.8 4.42266 27.1266 3.70898C26.8324 3.58217 26.5152 3.51754 26.1949 3.51914H9.59766V18.566H9.6082L12.6246 29.4926C13.1098 31.2539 14.727 32.4844 16.5551 32.4844C17.5992 32.4844 18.573 32.0695 19.2937 31.3102C20.0145 30.5543 20.3836 29.5629 20.3309 28.5188L20.1199 24.198H28.5539C28.9793 24.198 29.3941 24.0855 29.7598 23.8711C31.1801 23.0449 32.0625 21.5473 32.0625 19.9688C32.0625 18.9738 31.7355 18.0176 31.1449 17.2371ZM3.9375 4.64062V17.4375C3.9375 18.0598 4.44023 18.5625 5.0625 18.5625H7.34766V3.51562H5.0625C4.44023 3.51562 3.9375 4.01836 3.9375 4.64062Z" fill="black" fill-opacity="0.85"/>
</svg>