<svg xmlns="http://www.w3.org/2000/svg" width="36" height="36" viewBox="0 0 36 36" fill="none">
  <path d="M30.477 5.97305L18.5309 1.90195C18.3867 1.85273 18.1934 1.82812 18 1.82812C17.8066 1.82812 17.6133 1.85273 17.4691 1.90195L5.52305 5.97305C5.23125 6.07148 4.99219 6.40898 4.99219 6.71836V23.6777C4.99219 23.9871 5.19258 24.3949 5.43516 24.5883L17.5535 34.0312C17.6766 34.1262 17.8348 34.1754 17.9965 34.1754C18.1582 34.1754 18.3199 34.1262 18.4395 34.0312L30.5578 24.5883C30.8004 24.3984 31.0008 23.9906 31.0008 23.6777V6.71836C31.0078 6.40898 30.7688 6.075 30.477 5.97305ZM24.416 11.9777L16.9418 22.268C16.8893 22.3399 16.8205 22.3984 16.7411 22.4387C16.6616 22.4791 16.5738 22.5001 16.4848 22.5001C16.3957 22.5001 16.3079 22.4791 16.2285 22.4387C16.1491 22.3984 16.0803 22.3399 16.0277 22.268L11.584 16.1508C11.4504 15.9645 11.584 15.7043 11.8125 15.7043H13.7531C13.9324 15.7043 14.1047 15.7922 14.2102 15.9363L16.4848 19.0652L21.7898 11.7598C21.8953 11.6156 22.0641 11.5277 22.2469 11.5277H24.1875C24.416 11.5312 24.5496 11.7914 24.416 11.9777Z" fill="black" fill-opacity="0.85"/>
</svg>