<svg xmlns="http://www.w3.org/2000/svg" width="36" height="36" viewBox="0 0 36 36" fill="none">
  <path d="M32.625 5.625H3.375C2.75273 5.625 2.25 6.12773 2.25 6.75V29.25C2.25 29.8723 2.75273 30.375 3.375 30.375H32.625C33.2473 30.375 33.75 29.8723 33.75 29.25V6.75C33.75 6.12773 33.2473 5.625 32.625 5.625ZM29.7844 9.45352L18.6926 18.0844C18.4184 18.2988 18.0352 18.2988 17.7609 18.0844L6.66563 9.45352C6.6238 9.42124 6.59312 9.37668 6.57789 9.32609C6.56266 9.2755 6.56364 9.22141 6.5807 9.17141C6.59776 9.12141 6.63003 9.07799 6.673 9.04725C6.71597 9.01652 6.76748 8.99999 6.82031 9H29.6297C29.6825 8.99999 29.734 9.01652 29.777 9.04725C29.82 9.07799 29.8522 9.12141 29.8693 9.17141C29.8864 9.22141 29.8873 9.2755 29.8721 9.32609C29.8569 9.37668 29.8262 9.42124 29.7844 9.45352Z" fill="black" fill-opacity="0.85"/>
</svg>