<svg width="36" height="36" viewBox="0 0 36 36" fill="none" xmlns="http://www.w3.org/2000/svg">
<path d="M33.5987 30.0938L18.9737 4.78125C18.7558 4.40508 18.3796 4.21875 17.9999 4.21875C17.6202 4.21875 17.2405 4.40508 17.0261 4.78125L2.40109 30.0938C1.96866 30.8461 2.51007 31.7812 3.37491 31.7812H32.6249C33.4898 31.7812 34.0312 30.8461 33.5987 30.0938ZM16.8749 14.625C16.8749 14.4703 17.0015 14.3438 17.1562 14.3438H18.8437C18.9983 14.3438 19.1249 14.4703 19.1249 14.625V21.0938C19.1249 21.2484 18.9983 21.375 18.8437 21.375H17.1562C17.0015 21.375 16.8749 21.2484 16.8749 21.0938V14.625ZM17.9999 27C17.5583 26.991 17.1379 26.8092 16.8287 26.4937C16.5196 26.1783 16.3465 25.7542 16.3465 25.3125C16.3465 24.8708 16.5196 24.4467 16.8287 24.1313C17.1379 23.8158 17.5583 23.634 17.9999 23.625C18.4415 23.634 18.862 23.8158 19.1711 24.1313C19.4802 24.4467 19.6533 24.8708 19.6533 25.3125C19.6533 25.7542 19.4802 26.1783 19.1711 26.4937C18.862 26.8092 18.4415 26.991 17.9999 27Z" fill="black" fill-opacity="0.85"/>
</svg>
