<svg xmlns="http://www.w3.org/2000/svg" width="36" height="36" viewBox="0 0 36 36" fill="none">
  <path d="M18 2.25C9.30234 2.25 2.25 9.30234 2.25 18C2.25 26.6977 9.30234 33.75 18 33.75C26.6977 33.75 33.75 26.6977 33.75 18C33.75 9.30234 26.6977 2.25 18 2.25ZM24.8027 12.8566L17.3988 23.1223C17.2953 23.2667 17.1589 23.3844 17.0009 23.4656C16.8428 23.5468 16.6677 23.5891 16.49 23.5891C16.3124 23.5891 16.1372 23.5468 15.9792 23.4656C15.8211 23.3844 15.6847 23.2667 15.5813 23.1223L11.1973 17.0473C11.0637 16.8609 11.1973 16.6008 11.4258 16.6008H13.0746C13.4332 16.6008 13.7742 16.773 13.9852 17.0684L16.4883 20.5418L22.0148 12.8777C22.2258 12.5859 22.5633 12.4102 22.9254 12.4102H24.5742C24.8027 12.4102 24.9363 12.6703 24.8027 12.8566Z" fill="black" fill-opacity="0.85"/>
</svg>