<svg xmlns="http://www.w3.org/2000/svg" width="36" height="36" viewBox="0 0 36 36" fill="none">
  <path d="M18 2.25C9.30234 2.25 2.25 9.30234 2.25 18C2.25 26.6977 9.30234 33.75 18 33.75C26.6977 33.75 33.75 26.6977 33.75 18C33.75 9.30234 26.6977 2.25 18 2.25ZM15.1875 23.3438C15.1875 23.4984 15.0609 23.625 14.9062 23.625H13.2188C13.0641 23.625 12.9375 23.4984 12.9375 23.3438V12.6562C12.9375 12.5016 13.0641 12.375 13.2188 12.375H14.9062C15.0609 12.375 15.1875 12.5016 15.1875 12.6562V23.3438ZM23.0625 23.3438C23.0625 23.4984 22.9359 23.625 22.7812 23.625H21.0938C20.9391 23.625 20.8125 23.4984 20.8125 23.3438V12.6562C20.8125 12.5016 20.9391 12.375 21.0938 12.375H22.7812C22.9359 12.375 23.0625 12.5016 23.0625 12.6562V23.3438Z" fill="black" fill-opacity="0.85"/>
</svg>