<svg xmlns="http://www.w3.org/2000/svg" width="36" height="36" viewBox="0 0 36 36" fill="none">
  <path d="M18 11.4961C16.9488 11.4961 15.9609 11.9039 15.2156 12.6492C14.8494 13.0144 14.559 13.4484 14.3611 13.9263C14.1632 14.4041 14.0617 14.9164 14.0625 15.4336C14.0625 16.4848 14.4738 17.4727 15.2156 18.218C15.5808 18.5842 16.0148 18.8746 16.4927 19.0725C16.9705 19.2704 17.4828 19.3719 18 19.3711C19.0512 19.3711 20.0391 18.9598 20.7844 18.218C21.5297 17.4727 21.9375 16.4848 21.9375 15.4336C21.9375 14.3824 21.5297 13.3945 20.7844 12.6492C20.0391 11.9039 19.0512 11.4961 18 11.4961ZM30.0445 10.1637C29.3827 8.63747 28.4284 7.25562 27.2355 6.09609C26.0388 4.92609 24.628 3.99747 23.0801 3.36094C21.4699 2.69297 19.7613 2.35547 18 2.35547C16.2387 2.35547 14.5301 2.69297 12.9199 3.35742C11.3625 4.00078 9.9668 4.92188 8.76445 6.09258C7.57238 7.25275 6.61822 8.63444 5.95547 10.1602C5.26992 11.7422 4.92188 13.4227 4.92188 15.1523C4.92188 17.6344 5.51602 20.1059 6.6832 22.4895C7.62188 24.4055 8.9332 26.2723 10.5855 28.0477C13.4086 31.0781 16.3687 32.9309 17.209 33.4266C17.4475 33.5674 17.7195 33.6415 17.9965 33.641C18.2707 33.641 18.5414 33.5707 18.784 33.4266C19.6242 32.9309 22.5844 31.0781 25.4074 28.0477C27.0598 26.2758 28.3711 24.4055 29.3098 22.4895C30.484 20.1094 31.0781 17.6414 31.0781 15.1559C31.0781 13.4262 30.7301 11.7457 30.0445 10.1637ZM18 21.6211C14.5828 21.6211 11.8125 18.8508 11.8125 15.4336C11.8125 12.0164 14.5828 9.24609 18 9.24609C21.4172 9.24609 24.1875 12.0164 24.1875 15.4336C24.1875 18.8508 21.4172 21.6211 18 21.6211Z" fill="black" fill-opacity="0.85"/>
</svg>