<svg xmlns="http://www.w3.org/2000/svg" width="36" height="36" viewBox="0 0 36 36" fill="none">
  <path d="M18 2.25C9.30234 2.25 2.25 9.30234 2.25 18C2.25 26.6977 9.30234 33.75 18 33.75C26.6977 33.75 33.75 26.6977 33.75 18C33.75 9.30234 26.6977 2.25 18 2.25ZM24.75 18.8438C24.75 18.9984 24.6234 19.125 24.4688 19.125H19.125V24.4688C19.125 24.6234 18.9984 24.75 18.8438 24.75H17.1562C17.0016 24.75 16.875 24.6234 16.875 24.4688V19.125H11.5312C11.3766 19.125 11.25 18.9984 11.25 18.8438V17.1562C11.25 17.0016 11.3766 16.875 11.5312 16.875H16.875V11.5312C16.875 11.3766 17.0016 11.25 17.1562 11.25H18.8438C18.9984 11.25 19.125 11.3766 19.125 11.5312V16.875H24.4688C24.6234 16.875 24.75 17.0016 24.75 17.1562V18.8438Z" fill="black" fill-opacity="0.85"/>
</svg>