<svg xmlns="http://www.w3.org/2000/svg" width="36" height="36" viewBox="0 0 36 36" fill="none">
  <path d="M18 2.25C9.30234 2.25 2.25 9.30234 2.25 18C2.25 26.6977 9.30234 33.75 18 33.75C26.6977 33.75 33.75 26.6977 33.75 18C33.75 9.30234 26.6977 2.25 18 2.25ZM23.8148 23.9836L21.4945 23.973L18 19.807L14.509 23.9695L12.1852 23.9801C12.0305 23.9801 11.9039 23.857 11.9039 23.6988C11.9039 23.632 11.9285 23.5688 11.9707 23.516L16.5445 18.0668L11.9707 12.6211C11.9282 12.5696 11.9047 12.5051 11.9039 12.4383C11.9039 12.2836 12.0305 12.157 12.1852 12.157L14.509 12.1676L18 16.3336L21.491 12.1711L23.8113 12.1605C23.966 12.1605 24.0926 12.2836 24.0926 12.4418C24.0926 12.5086 24.068 12.5719 24.0258 12.6246L19.459 18.0703L24.0293 23.5195C24.0715 23.5723 24.0961 23.6355 24.0961 23.7023C24.0961 23.857 23.9695 23.9836 23.8148 23.9836Z" fill="black" fill-opacity="0.85"/>
</svg>