<svg xmlns="http://www.w3.org/2000/svg" width="36" height="36" viewBox="0 0 36 36" fill="none">
  <path d="M18 2.25C9.30234 2.25 2.25 9.30234 2.25 18C2.25 26.6977 9.30234 33.75 18 33.75C26.6977 33.75 33.75 26.6977 33.75 18C33.75 9.30234 26.6977 2.25 18 2.25ZM24.2578 21.7617H22.609C22.2504 21.7617 21.9094 21.5895 21.6984 21.2977L18 16.1859L14.3016 21.2977C14.0906 21.5895 13.7531 21.7617 13.391 21.7617H11.7422C11.5137 21.7617 11.3801 21.5016 11.5137 21.3152L17.7715 12.6668C17.884 12.5121 18.1125 12.5121 18.225 12.6668L24.4828 21.3152C24.6199 21.5016 24.4863 21.7617 24.2578 21.7617Z" fill="black" fill-opacity="0.85"/>
</svg>