<svg xmlns="http://www.w3.org/2000/svg" width="36" height="36" viewBox="0 0 36 36" fill="none">
  <path d="M18 2.25C9.30234 2.25 2.25 9.30234 2.25 18C2.25 26.6977 9.30234 33.75 18 33.75C26.6977 33.75 33.75 26.6977 33.75 18C33.75 9.30234 26.6977 2.25 18 2.25ZM21.6562 13.391C21.6562 13.7496 21.484 14.0906 21.1922 14.3016L16.0805 18L21.1922 21.6984C21.484 21.9094 21.6562 22.2469 21.6562 22.609V24.2578C21.6562 24.4863 21.3961 24.6199 21.2098 24.4863L12.5613 18.2285C12.5254 18.2026 12.4961 18.1686 12.4759 18.1291C12.4558 18.0897 12.4452 18.0461 12.4452 18.0018C12.4452 17.9575 12.4558 17.9138 12.4759 17.8744C12.4961 17.835 12.5254 17.8009 12.5613 17.775L21.2098 11.5172C21.2518 11.4867 21.3015 11.4684 21.3532 11.4644C21.405 11.4604 21.4569 11.4708 21.5031 11.4944C21.5494 11.5181 21.5882 11.5541 21.6152 11.5984C21.6422 11.6428 21.6564 11.6938 21.6562 11.7457V13.391Z" fill="black" fill-opacity="0.85"/>
</svg>