<svg xmlns="http://www.w3.org/2000/svg" width="36" height="36" viewBox="0 0 36 36" fill="none">
  <path d="M32.4492 9.97009C31.978 8.87897 31.2985 7.89021 30.4488 7.05916C29.5985 6.22562 28.596 5.56322 27.4957 5.10798C26.3548 4.63405 25.1311 4.39147 23.8957 4.39431C22.1625 4.39431 20.4715 4.86892 19.002 5.76541C18.6504 5.97986 18.3164 6.21541 18 6.47205C17.6836 6.21541 17.3496 5.97986 16.998 5.76541C15.5285 4.86892 13.8375 4.39431 12.1043 4.39431C10.8562 4.39431 9.64687 4.63337 8.5043 5.10798C7.40039 5.56502 6.40547 6.22244 5.55117 7.05916C4.70038 7.88927 4.02074 8.87827 3.55078 9.97009C3.06211 11.1056 2.8125 12.3115 2.8125 13.5525C2.8125 14.7232 3.05156 15.9431 3.52617 17.1842C3.92344 18.2213 4.49297 19.297 5.2207 20.3834C6.37383 22.1025 7.95937 23.8955 9.92812 25.7131C13.1906 28.726 16.4215 30.8072 16.5586 30.8916L17.3918 31.426C17.7609 31.6615 18.2355 31.6615 18.6047 31.426L19.4379 30.8916C19.575 30.8037 22.8023 28.726 26.0684 25.7131C28.0371 23.8955 29.6227 22.1025 30.7758 20.3834C31.5035 19.297 32.0766 18.2213 32.4703 17.1842C32.9449 15.9431 33.184 14.7232 33.184 13.5525C33.1875 12.3115 32.9379 11.1056 32.4492 9.97009Z" fill="black" fill-opacity="0.85"/>
</svg>