<svg xmlns="http://www.w3.org/2000/svg" width="36" height="36" viewBox="0 0 36 36" fill="none">
  <path d="M31.4051 10.3113L25.6887 4.59492C25.2668 4.17305 24.6938 3.9375 24.0961 3.9375H5.0625C4.44023 3.9375 3.9375 4.44023 3.9375 5.0625V30.9375C3.9375 31.5598 4.44023 32.0625 5.0625 32.0625H30.9375C31.5598 32.0625 32.0625 31.5598 32.0625 30.9375V11.9004C32.0625 11.3027 31.827 10.7332 31.4051 10.3113ZM13.5 6.1875H22.5V10.125H13.5V6.1875ZM18 25.6641C15.2051 25.6641 12.9375 23.3965 12.9375 20.6016C12.9375 17.8066 15.2051 15.5391 18 15.5391C20.7949 15.5391 23.0625 17.8066 23.0625 20.6016C23.0625 23.3965 20.7949 25.6641 18 25.6641ZM18 17.7891C16.4461 17.7891 15.1875 19.0477 15.1875 20.6016C15.1875 22.1555 16.4461 23.4141 18 23.4141C19.5539 23.4141 20.8125 22.1555 20.8125 20.6016C20.8125 19.0477 19.5539 17.7891 18 17.7891Z" fill="black" fill-opacity="0.85"/>
</svg>