<svg xmlns="http://www.w3.org/2000/svg" width="36" height="36" viewBox="0 0 36 36" fill="none">
  <path d="M29.25 10.9688H24.4688V10.4062C24.4688 6.83438 21.5719 3.9375 18 3.9375C14.4281 3.9375 11.5312 6.83438 11.5312 10.4062V10.9688H6.75C6.12773 10.9688 5.625 11.4715 5.625 12.0938V30.9375C5.625 31.5598 6.12773 32.0625 6.75 32.0625H29.25C29.8723 32.0625 30.375 31.5598 30.375 30.9375V12.0938C30.375 11.4715 29.8723 10.9688 29.25 10.9688ZM21.9375 10.9688H14.0625V10.4062C14.0625 8.23008 15.8238 6.46875 18 6.46875C20.1762 6.46875 21.9375 8.23008 21.9375 10.4062V10.9688Z" fill="black" fill-opacity="0.85"/>
</svg>