<svg xmlns="http://www.w3.org/2000/svg" width="36" height="36" viewBox="0 0 36 36" fill="none">
  <path d="M18.0168 13.7322C16.9656 13.7322 15.9813 14.14 15.2359 14.8854C14.4941 15.6307 14.0828 16.615 14.0828 17.6662C14.0828 18.7174 14.4941 19.7018 15.2359 20.4471C15.9813 21.1889 16.9656 21.6002 18.0168 21.6002C19.068 21.6002 20.0523 21.1889 20.7977 20.4471C21.5395 19.7018 21.9508 18.7174 21.9508 17.6662C21.9508 16.615 21.5395 15.6307 20.7977 14.8854C20.4336 14.5185 20.0003 14.2277 19.5229 14.0297C19.0456 13.8318 18.5336 13.7306 18.0168 13.7322ZM32.5117 22.0115L30.2125 20.0463C30.3215 19.3783 30.3777 18.6963 30.3777 18.0178C30.3777 17.3393 30.3215 16.6537 30.2125 15.9893L32.5117 14.024C32.6854 13.8753 32.8097 13.6773 32.8681 13.4562C32.9265 13.2352 32.9162 13.0016 32.8387 12.7865L32.807 12.6951C32.1743 10.9257 31.2261 9.28551 30.0086 7.8541L29.9453 7.78027C29.7975 7.60643 29.6004 7.48147 29.3801 7.42185C29.1598 7.36223 28.9267 7.37075 28.7113 7.44629L25.8566 8.4623C24.802 7.59746 23.6277 6.91543 22.3551 6.44082L21.8031 3.45605C21.7615 3.2312 21.6524 3.02434 21.4904 2.86296C21.3284 2.70158 21.1211 2.59331 20.8961 2.55254L20.8012 2.53496C18.973 2.20449 17.0465 2.20449 15.2184 2.53496L15.1234 2.55254C14.8984 2.59331 14.6911 2.70158 14.5291 2.86296C14.3671 3.02434 14.2581 3.2312 14.2164 3.45605L13.6609 6.45488C12.4003 6.93328 11.226 7.61365 10.184 8.46934L7.30821 7.44629C7.09293 7.37015 6.85958 7.36132 6.63917 7.42098C6.41875 7.48063 6.22171 7.60595 6.07422 7.78027L6.01094 7.8541C4.79556 9.28704 3.84768 10.9268 3.2125 12.6951L3.18086 12.7865C3.02266 13.226 3.15274 13.7182 3.50782 14.024L5.83516 16.0104C5.72618 16.6713 5.67344 17.3463 5.67344 18.0143C5.67344 18.6893 5.72618 19.3643 5.83516 20.0182L3.51485 22.0045C3.34116 22.1532 3.21685 22.3512 3.15845 22.5723C3.10005 22.7933 3.11032 23.0269 3.1879 23.242L3.21954 23.3334C3.85586 25.1018 4.79454 26.7365 6.01797 28.1744L6.08125 28.2482C6.2291 28.4221 6.42615 28.547 6.64643 28.6067C6.86672 28.6663 7.0999 28.6578 7.31524 28.5822L10.191 27.5592C11.2387 28.4205 12.4059 29.1025 13.668 29.5736L14.2234 32.5725C14.2651 32.7973 14.3742 33.0042 14.5362 33.1656C14.6982 33.3269 14.9055 33.4352 15.1305 33.476L15.2254 33.4936C17.0715 33.8258 18.9621 33.8258 20.8082 33.4936L20.9031 33.476C21.1281 33.4352 21.3354 33.3269 21.4974 33.1656C21.6594 33.0042 21.7685 32.7973 21.8102 32.5725L22.3621 29.5877C23.6348 29.1096 24.809 28.4311 25.8637 27.5662L28.7184 28.5822C28.9336 28.6584 29.167 28.6672 29.3874 28.6075C29.6078 28.5479 29.8049 28.4226 29.9523 28.2482L30.0156 28.1744C31.2391 26.7295 32.1777 25.1018 32.8141 23.3334L32.8457 23.242C32.9969 22.8061 32.8668 22.3174 32.5117 22.0115ZM18.0168 23.8467C14.6031 23.8467 11.8363 21.0799 11.8363 17.6662C11.8363 14.2525 14.6031 11.4857 18.0168 11.4857C21.4305 11.4857 24.1973 14.2525 24.1973 17.6662C24.1973 21.0799 21.4305 23.8467 18.0168 23.8467Z" fill="black" fill-opacity="0.85"/>
</svg>