<svg xmlns="http://www.w3.org/2000/svg" width="36" height="36" viewBox="0 0 36 36" fill="none">
  <path d="M16.9875 27.7843L30.2836 14.4847C30.3433 14.4249 30.3715 14.344 30.3644 14.2632L29.4679 3.66707C29.4433 3.39286 29.2289 3.1784 28.9547 3.15379L18.3586 2.26082C18.2777 2.25379 18.1933 2.28192 18.1371 2.34168L4.84098 15.6378C4.78864 15.6906 4.75928 15.762 4.75928 15.8364C4.75928 15.9108 4.78864 15.9822 4.84098 16.035L16.5902 27.7843C16.6992 27.8968 16.8785 27.8968 16.9875 27.7843ZM21.3011 9.03192C21.9586 8.3745 23.0273 8.3745 23.6882 9.03192C24.3457 9.68934 24.3457 10.7581 23.6882 11.419C23.0308 12.0764 21.9621 12.0764 21.3011 11.419C20.6437 10.7616 20.6437 9.69285 21.3011 9.03192ZM31.2785 18.9776L29.8863 17.5889C29.8334 17.5366 29.7621 17.5072 29.6877 17.5072C29.6133 17.5072 29.5419 17.5366 29.489 17.5889L16.7625 30.2909L8.40934 21.9589C8.35648 21.9065 8.2851 21.8772 8.21071 21.8772C8.13632 21.8772 8.06493 21.9065 8.01207 21.9589L6.61989 23.3475C6.56755 23.4004 6.53818 23.4718 6.53818 23.5462C6.53818 23.6206 6.56755 23.6919 6.61989 23.7448L15.1699 32.2807L16.5621 33.6694C16.6711 33.7784 16.8504 33.7784 16.9593 33.6694L31.2785 19.3749C31.3875 19.2659 31.3875 19.0866 31.2785 18.9776Z" fill="black" fill-opacity="0.85"/>
</svg>