<svg xmlns="http://www.w3.org/2000/svg" width="36" height="36" viewBox="0 0 36 36" fill="none">
  <path d="M30.375 9H25.875V6.1875C25.875 4.94648 24.866 3.9375 23.625 3.9375H12.375C11.134 3.9375 10.125 4.94648 10.125 6.1875V9H5.625C5.00273 9 4.5 9.50273 4.5 10.125V11.25C4.5 11.4047 4.62656 11.5312 4.78125 11.5312H6.90469L7.77305 29.918C7.8293 31.1168 8.8207 32.0625 10.0195 32.0625H25.9805C27.1828 32.0625 28.1707 31.1203 28.227 29.918L29.0953 11.5312H31.2188C31.3734 11.5312 31.5 11.4047 31.5 11.25V10.125C31.5 9.50273 30.9973 9 30.375 9ZM23.3438 9H12.6562V6.46875H23.3438V9Z" fill="black" fill-opacity="0.85"/>
</svg>