<svg xmlns="http://www.w3.org/2000/svg" width="36" height="36" viewBox="0 0 36 36" fill="none">
  <path d="M23.7797 18.5959L10.3078 29.1786C9.80684 29.5724 9.07031 29.2173 9.07031 28.5827V7.41691C9.07031 6.78234 9.80684 6.42762 10.3078 6.82137L23.7797 17.4041C23.8701 17.4749 23.9432 17.5654 23.9935 17.6686C24.0438 17.7718 24.0699 17.8852 24.0699 18C24.0699 18.1148 24.0438 18.2282 23.9935 18.3314C23.9432 18.4346 23.8701 18.5251 23.7797 18.5959ZM24.3984 30.375H26.6484C26.723 30.375 26.7946 30.3454 26.8473 30.2926C26.9001 30.2399 26.9297 30.1683 26.9297 30.0938V5.90625C26.9297 5.83166 26.9001 5.76012 26.8473 5.70738C26.7946 5.65463 26.723 5.625 26.6484 5.625H24.3984C24.3238 5.625 24.2523 5.65463 24.1996 5.70738C24.1468 5.76012 24.1172 5.83166 24.1172 5.90625V30.0938C24.1172 30.1683 24.1468 30.2399 24.1996 30.2926C24.2523 30.3454 24.3238 30.375 24.3984 30.375Z" fill="black" fill-opacity="0.85"/>
</svg>