<svg xmlns="http://www.w3.org/2000/svg" width="36" height="36" viewBox="0 0 36 36" fill="none">
  <path d="M31.3629 25.9383L27.4852 23.6988C27.4214 23.6623 27.3512 23.6388 27.2784 23.6295C27.2055 23.6201 27.1316 23.6253 27.0607 23.6445C26.9899 23.6638 26.9235 23.6968 26.8655 23.7417C26.8074 23.7866 26.7587 23.8425 26.7223 23.9062L26.0227 25.1191C25.868 25.3863 25.9594 25.7309 26.2266 25.8855L30.1043 28.125C30.168 28.1615 30.2383 28.1851 30.3111 28.1944C30.3839 28.2037 30.4579 28.1986 30.5287 28.1793C30.5995 28.16 30.6659 28.127 30.724 28.0821C30.7821 28.0372 30.8307 27.9813 30.8672 27.9176L31.5668 26.7047C31.7215 26.4375 31.6266 26.093 31.3629 25.9383ZM26.7188 12.0938C26.7552 12.1575 26.8039 12.2134 26.862 12.2583C26.92 12.3032 26.9864 12.3362 27.0572 12.3555C27.1281 12.3747 27.202 12.3799 27.2748 12.3705C27.3477 12.3612 27.4179 12.3377 27.4816 12.3012L31.3594 10.0617C31.6266 9.90703 31.718 9.5625 31.5633 9.29531L30.8672 8.08594C30.8307 8.02222 30.7821 7.96631 30.724 7.92141C30.6659 7.8765 30.5995 7.84347 30.5287 7.82421C30.4579 7.80495 30.3839 7.79983 30.3111 7.80915C30.2383 7.81847 30.168 7.84204 30.1043 7.87852L26.2266 10.118C26.0982 10.1928 26.0046 10.3155 25.9664 10.4591C25.9282 10.6027 25.9484 10.7556 26.0227 10.8844L26.7188 12.0938ZM32.8359 16.7344H28.3359C28.0266 16.7344 27.7734 16.9875 27.7734 17.2969V18.7031C27.7734 19.0125 28.0266 19.2656 28.3359 19.2656H32.8359C33.1453 19.2656 33.3984 19.0125 33.3984 18.7031V17.2969C33.3984 16.9875 33.1453 16.7344 32.8359 16.7344ZM22.0043 4.04297C21.7969 4.04297 21.5859 4.09922 21.3926 4.2293L8.92969 12.375H3.16406C2.85469 12.375 2.60156 12.6281 2.60156 12.9375V23.0625C2.60156 23.3719 2.85469 23.625 3.16406 23.625H8.92969L21.3926 31.7707C21.5859 31.8973 21.8004 31.957 22.0043 31.957C22.5914 31.957 23.1328 31.4895 23.1328 30.8285V5.17148C23.1328 4.51055 22.5914 4.04297 22.0043 4.04297Z" fill="black" fill-opacity="0.85"/>
</svg>