<svg xmlns="http://www.w3.org/2000/svg" width="36" height="36" viewBox="0 0 36 36" fill="none">
  <path d="M33.6656 17.8385L21.2063 5.56194C21.1804 5.536 21.1498 5.51542 21.116 5.50138C21.0822 5.48733 21.046 5.4801 21.0094 5.4801C20.9728 5.4801 20.9366 5.48733 20.9028 5.50138C20.869 5.51542 20.8383 5.536 20.8125 5.56194L12.4207 13.8307C12.3679 13.8831 12.3379 13.9542 12.3372 14.0286C12.3366 14.103 12.3653 14.1746 12.4172 14.228L12.4207 14.2315L13.827 15.6166L9.70664 19.6701C9.65383 19.7225 9.62383 19.7937 9.62318 19.8681C9.62252 19.9424 9.65125 20.0141 9.70313 20.0674L9.70664 20.0709L11.0953 21.4385L4.44727 28.0127H2.53477C2.38008 28.0127 2.25 28.1393 2.25 28.294V30.2346C2.25 30.3893 2.37656 30.5158 2.53125 30.5158H14.6566C14.7305 30.5158 14.8008 30.4877 14.8535 30.435L17.5289 27.7772L18.9492 29.1764C18.975 29.2023 19.0057 29.2229 19.0395 29.237C19.0733 29.251 19.1095 29.2582 19.1461 29.2582C19.1827 29.2582 19.2189 29.251 19.2527 29.237C19.2865 29.2229 19.3172 29.2023 19.343 29.1764L23.4598 25.1123L24.8695 26.501C24.8953 26.5269 24.926 26.5475 24.9598 26.5616C24.9936 26.5756 25.0298 26.5828 25.0664 26.5828C25.103 26.5828 25.1392 26.5756 25.173 26.5616C25.2068 26.5475 25.2375 26.5269 25.2633 26.501L33.6551 18.2322C33.7746 18.1268 33.7746 17.951 33.6656 17.8385Z" fill="black" fill-opacity="0.85"/>
</svg>