<svg xmlns="http://www.w3.org/2000/svg" width="36" height="36" viewBox="0 0 36 36" fill="none">
  <path d="M31.9256 12.4131L22.9994 11.1159L19.0092 3.02643C18.9002 2.80494 18.7209 2.62565 18.4994 2.51666C17.944 2.24244 17.269 2.47096 16.9912 3.02643L13.001 11.1159L4.07483 12.4131C3.82873 12.4483 3.60373 12.5643 3.43147 12.7401C3.22321 12.9542 3.10845 13.2421 3.1124 13.5408C3.11636 13.8394 3.23871 14.1242 3.45256 14.3327L9.91077 20.6292L8.38498 29.5202C8.3492 29.727 8.37209 29.9397 8.45105 30.1342C8.53001 30.3287 8.66188 30.4971 8.83171 30.6205C9.00154 30.7438 9.20253 30.8171 9.4119 30.8321C9.62126 30.847 9.83062 30.8029 10.0162 30.7049L18.0002 26.5073L25.9842 30.7049C26.2022 30.821 26.4553 30.8596 26.6979 30.8174C27.3096 30.712 27.7209 30.1319 27.6155 29.5202L26.0897 20.6292L32.5479 14.3327C32.7237 14.1604 32.8397 13.9354 32.8748 13.6893C32.9697 13.0741 32.5408 12.5046 31.9256 12.4131Z" fill="black" fill-opacity="0.85"/>
</svg>