<svg xmlns="http://www.w3.org/2000/svg" width="36" height="36" viewBox="0 0 36 36" fill="none">
  <path d="M30.4203 8.6023C30.4098 8.59175 28.2723 10.7046 24.0184 14.9515L21.0336 11.9668L27.3934 5.60699C24.0465 3.59253 19.7469 4.10933 16.959 6.89722C15.8933 7.9623 15.1264 9.28887 14.7352 10.7439C14.344 12.1989 14.3422 13.7312 14.7301 15.1871L14.7934 15.4226L4.82656 25.3859C4.60859 25.6039 4.60859 25.9625 4.82656 26.1804L9.79766 31.1515C10.0156 31.3695 10.3742 31.3695 10.5922 31.1515L20.552 21.1918L20.7875 21.255C23.7301 22.039 26.8906 21.2234 29.0844 19.0296C31.8758 16.2418 32.3926 11.9421 30.4203 8.6023Z" fill="black" fill-opacity="0.85"/>
</svg>