<svg xmlns="http://www.w3.org/2000/svg" width="36" height="36" viewBox="0 0 36 36" fill="none">
  <path d="M25.7344 4.21875C25.7344 4.06406 25.6078 3.9375 25.4531 3.9375H10.5469C10.3922 3.9375 10.2656 4.06406 10.2656 4.21875V9.42188H25.7344V4.21875ZM29.9531 11.6719H6.04688C4.49297 11.6719 3.23438 12.9305 3.23438 14.4844V26.0156C3.23438 26.6379 3.73711 27.1406 4.35938 27.1406H10.2656V31.7812C10.2656 31.9359 10.3922 32.0625 10.5469 32.0625H25.4531C25.6078 32.0625 25.7344 31.9359 25.7344 31.7812V27.1406H31.6406C32.2629 27.1406 32.7656 26.6379 32.7656 26.0156V14.4844C32.7656 12.9305 31.507 11.6719 29.9531 11.6719ZM23.3438 29.6719H12.6562V19.9688H23.3438V29.6719ZM29.1094 17.0156C29.1094 17.1703 28.9828 17.2969 28.8281 17.2969H27.4219C27.2672 17.2969 27.1406 17.1703 27.1406 17.0156V15.6094C27.1406 15.4547 27.2672 15.3281 27.4219 15.3281H28.8281C28.9828 15.3281 29.1094 15.4547 29.1094 15.6094V17.0156Z" fill="black" fill-opacity="0.85"/>
</svg>