<svg xmlns="http://www.w3.org/2000/svg" width="36" height="36" viewBox="0 0 36 36" fill="none">
  <path d="M32.9763 16.1297L31.9357 5.13984C31.883 4.57031 31.4294 4.12031 30.8599 4.06406L19.8701 3.02344H19.856C19.7435 3.02344 19.6556 3.05859 19.5888 3.12539L3.12515 19.5891C3.09256 19.6216 3.0667 19.6602 3.04906 19.7027C3.03142 19.7453 3.02234 19.7909 3.02234 19.8369C3.02234 19.883 3.03142 19.9285 3.04906 19.9711C3.0667 20.0136 3.09256 20.0522 3.12515 20.0848L15.915 32.8746C15.9818 32.9414 16.0697 32.9766 16.1646 32.9766C16.2595 32.9766 16.3474 32.9414 16.4142 32.8746L32.8779 16.4109C32.9482 16.3371 32.9834 16.2352 32.9763 16.1297ZM24.574 13.6055C23.333 13.6055 22.324 12.5965 22.324 11.3555C22.324 10.1145 23.333 9.10547 24.574 9.10547C25.815 9.10547 26.824 10.1145 26.824 11.3555C26.824 12.5965 25.815 13.6055 24.574 13.6055Z" fill="black" fill-opacity="0.85"/>
</svg>