<svg xmlns="http://www.w3.org/2000/svg" width="36" height="36" viewBox="0 0 36 36" fill="none">
  <path d="M29.3238 16.4952C28.6413 14.9591 27.6491 13.5803 26.4094 12.4452L25.3863 11.5065C25.3516 11.4756 25.3098 11.4536 25.2646 11.4425C25.2193 11.4314 25.1721 11.4316 25.127 11.4431C25.0819 11.4545 25.0402 11.4769 25.0058 11.5082C24.9713 11.5395 24.945 11.5788 24.9293 11.6226L24.4723 12.9339C24.1875 13.7565 23.6637 14.5968 22.9219 15.423C22.8727 15.4757 22.8164 15.4898 22.7777 15.4933C22.7391 15.4968 22.6793 15.4898 22.6266 15.4405C22.5773 15.3983 22.5527 15.3351 22.5562 15.2718C22.6863 13.1554 22.0535 10.7683 20.6684 8.17022C19.5223 6.01163 17.9297 4.32764 15.9398 3.15342L14.4879 2.29913C14.298 2.18663 14.0555 2.33428 14.066 2.55577L14.1434 4.24327C14.1961 5.39639 14.0625 6.41593 13.7461 7.26319C13.3594 8.3003 12.8039 9.26358 12.0938 10.1284C11.5995 10.7295 11.0394 11.2731 10.4238 11.7491C8.94131 12.8888 7.73583 14.3491 6.89766 16.0206C6.06155 17.7068 5.62602 19.5632 5.625 21.4452C5.625 23.1046 5.95195 24.7112 6.59883 26.2265C7.22344 27.6853 8.12482 29.0093 9.25313 30.1253C10.3922 31.2503 11.7141 32.1362 13.1871 32.7515C14.7129 33.3913 16.3301 33.7148 18 33.7148C19.6699 33.7148 21.2871 33.3913 22.8129 32.755C24.2823 32.1434 25.6185 31.2514 26.7469 30.1288C27.8859 29.0038 28.7789 27.689 29.4012 26.23C30.0471 24.7189 30.3784 23.0921 30.375 21.4487C30.375 19.7331 30.0234 18.0667 29.3238 16.4952Z" fill="black" fill-opacity="0.85"/>
</svg>