<svg xmlns="http://www.w3.org/2000/svg" width="36" height="36" viewBox="0 0 36 36" fill="none">
  <path d="M18 2.25C9.30234 2.25 2.25 9.30234 2.25 18C2.25 26.6977 9.30234 33.75 18 33.75C26.6977 33.75 33.75 26.6977 33.75 18C33.75 9.30234 26.6977 2.25 18 2.25ZM24.4863 14.6848L18.2285 23.3332C18.2026 23.3691 18.1686 23.3984 18.1291 23.4186C18.0897 23.4388 18.0461 23.4493 18.0018 23.4493C17.9575 23.4493 17.9138 23.4388 17.8744 23.4186C17.835 23.3984 17.8009 23.3691 17.775 23.3332L11.5172 14.6848C11.3836 14.4984 11.5172 14.2383 11.7457 14.2383H13.3945C13.7531 14.2383 14.0941 14.4105 14.3051 14.7023L18 19.8141L21.6984 14.7023C21.9094 14.4105 22.2469 14.2383 22.609 14.2383H24.2578C24.4863 14.2383 24.6199 14.4984 24.4863 14.6848Z" fill="black" fill-opacity="0.85"/>
</svg>