<svg xmlns="http://www.w3.org/2000/svg" width="36" height="36" viewBox="0 0 36 36" fill="none">
  <path d="M18 2.25C9.30234 2.25 2.25 9.30234 2.25 18C2.25 26.6977 9.30234 33.75 18 33.75C26.6977 33.75 33.75 26.6977 33.75 18C33.75 9.30234 26.6977 2.25 18 2.25ZM23.4387 18.2285L14.7902 24.4863C14.6039 24.6199 14.3438 24.4863 14.3438 24.2578V22.609C14.3438 22.2504 14.516 21.9094 14.8078 21.6984L19.9195 18L14.8078 14.3016C14.516 14.0906 14.3438 13.7531 14.3438 13.391V11.7422C14.3438 11.5137 14.6039 11.3801 14.7902 11.5137L23.4387 17.7715C23.5934 17.884 23.5934 18.116 23.4387 18.2285Z" fill="black" fill-opacity="0.85"/>
</svg>