<svg xmlns="http://www.w3.org/2000/svg" width="36" height="36" viewBox="0 0 36 36" fill="none">
  <path d="M13.9222 18C13.9222 19.0443 14.337 20.0458 15.0755 20.7842C15.8139 21.5227 16.8154 21.9375 17.8597 21.9375C18.904 21.9375 19.9055 21.5227 20.6439 20.7842C21.3824 20.0458 21.7972 19.0443 21.7972 18C21.7972 16.9557 21.3824 15.9542 20.6439 15.2158C19.9055 14.4773 18.904 14.0625 17.8597 14.0625C16.8154 14.0625 15.8139 14.4773 15.0755 15.2158C14.337 15.9542 13.9222 16.9557 13.9222 18ZM33.1245 17.093C29.7917 10.0723 24.7538 6.53906 18.0003 6.53906C11.2433 6.53906 6.20892 10.0723 2.87611 17.0965C2.74243 17.3796 2.6731 17.6887 2.6731 18.0018C2.6731 18.3148 2.74243 18.624 2.87611 18.907C6.20892 25.9277 11.2468 29.4609 18.0003 29.4609C24.7574 29.4609 29.7917 25.9277 33.1245 18.9035C33.3953 18.334 33.3953 17.673 33.1245 17.093ZM17.8597 24.1875C14.4425 24.1875 11.6722 21.4172 11.6722 18C11.6722 14.5828 14.4425 11.8125 17.8597 11.8125C21.2769 11.8125 24.0472 14.5828 24.0472 18C24.0472 21.4172 21.2769 24.1875 17.8597 24.1875Z" fill="black" fill-opacity="0.85"/>
</svg>