<svg xmlns="http://www.w3.org/2000/svg" width="36" height="36" viewBox="0 0 36 36" fill="none">
  <path d="M32.4949 11.8969C31.7061 10.0144 30.5586 8.30329 29.1164 6.85902C27.6784 5.41223 25.9703 4.26194 24.089 3.47347C22.1618 2.66182 20.0911 2.24577 17.9999 2.25003H17.9296C15.8027 2.26058 13.746 2.68245 11.8089 3.51214C9.94379 4.30869 8.25172 5.46102 6.82729 6.90472C5.399 8.34575 4.26465 10.0509 3.48745 11.925C2.68066 13.874 2.27186 15.9646 2.2851 18.0739C2.29565 20.5137 2.87924 22.936 3.96909 25.1016V30.4453C3.96909 31.3383 4.69331 32.0625 5.58276 32.0625H10.9195C13.0952 33.1604 15.4961 33.7381 17.9331 33.75H18.007C20.1093 33.75 22.1449 33.3422 24.0644 32.5442C25.9362 31.7651 27.6379 30.6282 29.0742 29.1973C30.5226 27.7594 31.6617 26.0789 32.4597 24.2051C33.2859 22.2645 33.7078 20.2008 33.7183 18.0703C33.7253 15.9293 33.3105 13.8516 32.4949 11.8969ZM10.9828 19.6875C10.0546 19.6875 9.29877 18.9317 9.29877 18C9.29877 17.0684 10.0546 16.3125 10.9828 16.3125C11.9109 16.3125 12.6667 17.0684 12.6667 18C12.6667 18.9317 11.9144 19.6875 10.9828 19.6875ZM17.9999 19.6875C17.0718 19.6875 16.316 18.9317 16.316 18C16.316 17.0684 17.0718 16.3125 17.9999 16.3125C18.9281 16.3125 19.6839 17.0684 19.6839 18C19.6839 18.9317 18.9281 19.6875 17.9999 19.6875ZM25.0171 19.6875C24.089 19.6875 23.3331 18.9317 23.3331 18C23.3331 17.0684 24.089 16.3125 25.0171 16.3125C25.9453 16.3125 26.7011 17.0684 26.7011 18C26.7011 18.9317 25.9453 19.6875 25.0171 19.6875Z" fill="black" fill-opacity="0.85"/>
</svg>