<svg xmlns="http://www.w3.org/2000/svg" width="36" height="36" viewBox="0 0 36 36" fill="none">
  <path d="M29.25 16.3125H26.8594V8.4375C26.8594 5.95195 24.8449 3.9375 22.3594 3.9375H13.6406C11.1551 3.9375 9.14062 5.95195 9.14062 8.4375V16.3125H6.75C6.12773 16.3125 5.625 16.8152 5.625 17.4375V30.9375C5.625 31.5598 6.12773 32.0625 6.75 32.0625H29.25C29.8723 32.0625 30.375 31.5598 30.375 30.9375V17.4375C30.375 16.8152 29.8723 16.3125 29.25 16.3125ZM18.9844 24.6445V26.5078C18.9844 26.6625 18.8578 26.7891 18.7031 26.7891H17.2969C17.1422 26.7891 17.0156 26.6625 17.0156 26.5078V24.6445C16.7254 24.4362 16.5088 24.1411 16.397 23.8018C16.2851 23.4625 16.2839 23.0965 16.3933 22.7564C16.5027 22.4163 16.7173 22.1198 17.006 21.9094C17.2947 21.699 17.6427 21.5856 18 21.5856C18.3573 21.5856 18.7053 21.699 18.994 21.9094C19.2827 22.1198 19.4973 22.4163 19.6067 22.7564C19.7161 23.0965 19.7149 23.4625 19.603 23.8018C19.4912 24.1411 19.2746 24.4362 18.9844 24.6445ZM24.3281 16.3125H11.6719V8.4375C11.6719 7.35117 12.5543 6.46875 13.6406 6.46875H22.3594C23.4457 6.46875 24.3281 7.35117 24.3281 8.4375V16.3125Z" fill="black" fill-opacity="0.85"/>
</svg>