<svg width="36" height="36" viewBox="0 0 36 36" fill="none" xmlns="http://www.w3.org/2000/svg">
<path d="M18 21.9375C21.3012 21.9375 23.9766 19.2938 23.9766 16.0312V8.15625C23.9766 4.89375 21.3012 2.25 18 2.25C14.6988 2.25 12.0234 4.89375 12.0234 8.15625V16.0312C12.0234 19.2938 14.6988 21.9375 18 21.9375ZM29.6016 15.9609C29.6016 15.8062 29.475 15.6797 29.3203 15.6797H27.2109C27.0562 15.6797 26.9297 15.8062 26.9297 15.9609C26.9297 20.8934 22.9324 24.8906 18 24.8906C13.0676 24.8906 9.07031 20.8934 9.07031 15.9609C9.07031 15.8062 8.94375 15.6797 8.78906 15.6797H6.67969C6.525 15.6797 6.39844 15.8062 6.39844 15.9609C6.39844 21.8918 10.8492 26.7855 16.5938 27.4781V31.0781H11.4855C11.0039 31.0781 10.6172 31.5809 10.6172 32.2031V33.4688C10.6172 33.6234 10.7156 33.75 10.8352 33.75H25.1648C25.2844 33.75 25.3828 33.6234 25.3828 33.4688V32.2031C25.3828 31.5809 24.9961 31.0781 24.5145 31.0781H19.2656V27.4957C25.077 26.8629 29.6016 21.941 29.6016 15.9609Z" fill="black" fill-opacity="0.85"/>
</svg>
