<svg width="36" height="36" viewBox="0 0 36 36" fill="none" xmlns="http://www.w3.org/2000/svg">
<path d="M10.6875 9.84375H25.3125C25.4672 9.84375 25.5938 9.71719 25.5938 9.5625C25.5938 8.15625 25.2844 6.86602 24.6832 5.76211C24.0785 4.65469 23.1891 3.76523 22.0816 3.16055C20.9777 2.55938 19.6875 2.25 18.2812 2.25H17.7188C16.3125 2.25 15.0223 2.55938 13.9184 3.16055C12.8109 3.76523 11.9215 4.65469 11.3168 5.76211C10.7156 6.86602 10.4062 8.15625 10.4062 9.5625C10.4062 9.71719 10.5328 9.84375 10.6875 9.84375Z" fill="black" fill-opacity="0.85"/>
<path d="M33.0469 18H27.8438V14.4844C30.5438 14.4844 32.7305 12.2977 32.7305 9.59766C32.7305 9.44297 32.6039 9.31641 32.4492 9.31641H30.3398C30.1852 9.31641 30.0586 9.44297 30.0586 9.59766C30.0586 10.8211 29.0672 11.8125 27.8438 11.8125H8.15625C6.93281 11.8125 5.94141 10.8211 5.94141 9.59766C5.94141 9.44297 5.81484 9.31641 5.66016 9.31641H3.55078C3.39609 9.31641 3.26953 9.44297 3.26953 9.59766C3.26953 12.2977 5.45625 14.4844 8.15625 14.4844V18H2.95312C2.79844 18 2.67188 18.1266 2.67188 18.2812V20.25C2.67188 20.4047 2.79844 20.5312 2.95312 20.5312H8.15625V23.9062C8.15625 24.1348 8.16328 24.3633 8.18086 24.5848C5.76914 25.6148 4.07812 28.009 4.07812 30.7969C4.07812 30.9516 4.20469 31.0781 4.35938 31.0781H6.32812C6.48281 31.0781 6.60938 30.9516 6.60938 30.7969C6.60938 29.243 7.44961 27.8824 8.70469 27.1512C8.91563 27.7559 9.18281 28.3324 9.50273 28.8738C10.357 30.3328 11.577 31.5527 13.0359 32.407C14.052 33.0012 15.1805 33.4195 16.3863 33.6199C16.541 33.6199 16.6676 33.4934 16.6676 33.3387V17.0156C16.6676 16.8609 16.7941 16.7344 16.9488 16.7344H19.0582C19.2129 16.7344 19.3395 16.8609 19.3395 17.0156V33.3352C19.3395 33.4898 19.466 33.6164 19.6207 33.6164C20.8266 33.416 21.9551 32.9977 22.9711 32.4035C24.4301 31.5492 25.65 30.3293 26.5043 28.8703C26.8242 28.3254 27.0914 27.7488 27.3023 27.1477C28.5504 27.8824 29.3906 29.243 29.3906 30.7969C29.3906 30.9516 29.5172 31.0781 29.6719 31.0781H31.6406C31.7953 31.0781 31.9219 30.9516 31.9219 30.7969C31.9219 28.009 30.2309 25.6148 27.8191 24.5848C27.8332 24.3598 27.8438 24.1348 27.8438 23.9062V20.5312H33.0469C33.2016 20.5312 33.3281 20.4047 33.3281 20.25V18.2812C33.3281 18.1266 33.2016 18 33.0469 18Z" fill="black" fill-opacity="0.85"/>
</svg>
