<svg width="36" height="36" viewBox="0 0 36 36" fill="none" xmlns="http://www.w3.org/2000/svg">
<path d="M30.0445 10.1496C30.2555 10.3605 30.375 10.6453 30.375 10.9441V32.625C30.375 33.2473 29.8723 33.75 29.25 33.75H6.75C6.12773 33.75 5.625 33.2473 5.625 32.625V3.375C5.625 2.75273 6.12773 2.25 6.75 2.25H21.6809C21.9797 2.25 22.268 2.36953 22.4789 2.58047L30.0445 10.1496ZM27.7805 11.4609L21.1641 4.84453V11.4609H27.7805ZM16.4718 26.7188V23.5005H18.5555C20.6849 23.5005 22.0781 22.1066 22.0781 20.051C22.0781 18.0042 20.6866 16.5938 18.5632 16.5938H14.9062C14.7944 16.5938 14.6871 16.6382 14.6079 16.7173C14.5288 16.7964 14.4844 16.9037 14.4844 17.0156V26.7188C14.4844 26.8306 14.5288 26.9379 14.6079 27.0171C14.6871 27.0962 14.7944 27.1406 14.9062 27.1406H16.0499C16.1618 27.1406 16.2691 27.0962 16.3482 27.0171C16.4273 26.9379 16.4718 26.8306 16.4718 26.7188ZM16.4718 21.8204H17.6987C19.3799 21.8204 20.0609 21.3659 20.0609 20.051C20.0609 18.9243 19.4238 18.289 18.3076 18.289H16.4718V21.8204Z" fill="black" fill-opacity="0.85"/>
</svg>
