<svg width="36" height="36" viewBox="0 0 36 36" fill="none" xmlns="http://www.w3.org/2000/svg">
<path d="M14.3438 10.9688H16.0312C16.1859 10.9688 16.3125 10.8422 16.3125 10.6875V9C16.3125 8.84531 16.1859 8.71875 16.0312 8.71875H14.3438C14.1891 8.71875 14.0625 8.84531 14.0625 9V10.6875C14.0625 10.8422 14.1891 10.9688 14.3438 10.9688ZM26.7188 15.1875V5.0625C26.7188 4.44023 26.216 3.9375 25.5938 3.9375H10.4062C9.78398 3.9375 9.28125 4.44023 9.28125 5.0625V15.1875C6.95391 15.1875 5.0625 17.0191 5.0625 19.2656V31.7812C5.0625 31.9359 5.18906 32.0625 5.34375 32.0625H30.6562C30.8109 32.0625 30.9375 31.9359 30.9375 31.7812V19.2656C30.9375 17.0191 29.0461 15.1875 26.7188 15.1875ZM24.1875 15.1875H11.8125V6.46875H24.1875V15.1875ZM19.9688 10.9688H21.6562C21.8109 10.9688 21.9375 10.8422 21.9375 10.6875V9C21.9375 8.84531 21.8109 8.71875 21.6562 8.71875H19.9688C19.8141 8.71875 19.6875 8.84531 19.6875 9V10.6875C19.6875 10.8422 19.8141 10.9688 19.9688 10.9688Z" fill="black" fill-opacity="0.85"/>
</svg>
