<svg width="36" height="36" viewBox="0 0 36 36" fill="none" xmlns="http://www.w3.org/2000/svg">
<path d="M32.625 5.625H3.375C2.75273 5.625 2.25 6.12773 2.25 6.75V12.375H33.75V6.75C33.75 6.12773 33.2473 5.625 32.625 5.625ZM2.25 29.25C2.25 29.8723 2.75273 30.375 3.375 30.375H32.625C33.2473 30.375 33.75 29.8723 33.75 29.25V15.4688H2.25V29.25ZM22.6055 22.7812C22.6055 22.6266 22.732 22.5 22.8867 22.5H28.6875C28.8422 22.5 28.9688 22.6266 28.9688 22.7812V25.3125C28.9688 25.4672 28.8422 25.5938 28.6875 25.5938H22.8867C22.732 25.5938 22.6055 25.4672 22.6055 25.3125V22.7812Z" fill="black" fill-opacity="0.85"/>
</svg>
