<svg width="36" height="36" viewBox="0 0 36 36" fill="none" xmlns="http://www.w3.org/2000/svg">
<path d="M30.0445 10.1496C30.2555 10.3605 30.375 10.6453 30.375 10.9441V32.625C30.375 33.2473 29.8723 33.75 29.25 33.75H6.75C6.12773 33.75 5.625 33.2473 5.625 32.625V3.375C5.625 2.75273 6.12773 2.25 6.75 2.25H21.6809C21.9797 2.25 22.268 2.36953 22.4789 2.58047L30.0445 10.1496ZM27.7805 11.4609L21.1641 4.84453V11.4609H27.7805ZM22.2616 22.4037C21.728 22.3861 21.1605 22.4272 20.5161 22.5077C19.6618 21.9807 19.0867 21.2569 18.6782 20.1934L18.7158 20.0394L18.7594 19.8573C18.9105 19.2199 18.9918 18.7548 19.016 18.2858C19.0343 17.9318 19.0146 17.6052 18.9517 17.3025C18.8357 16.6489 18.3734 16.2668 17.7908 16.2432C17.2477 16.2211 16.7484 16.5245 16.6208 16.9945C16.413 17.7546 16.5347 18.7548 16.9752 20.4606C16.4141 21.7983 15.6727 23.3666 15.1752 24.2413C14.5111 24.5837 13.9939 24.8952 13.5594 25.2404C12.9864 25.6964 12.6285 26.165 12.53 26.6572C12.4822 26.8854 12.5543 27.1835 12.7185 27.4279C12.9048 27.7049 13.1854 27.8849 13.5218 27.9109C14.3708 27.9766 15.4143 27.1013 16.5663 25.1244C16.682 25.0857 16.8043 25.045 16.9537 24.9943L17.3721 24.853C17.6368 24.7637 17.8288 24.6997 18.0186 24.6382C18.8413 24.3703 19.4636 24.2012 20.0296 24.1049C21.0132 24.6315 22.1502 24.9768 22.9159 24.9768C23.548 24.9768 23.9752 24.6491 24.1295 24.1334C24.2648 23.6805 24.1576 23.1553 23.8665 22.8649C23.5656 22.5693 23.0122 22.4279 22.2616 22.4037ZM13.5432 26.9184V26.9058L13.5478 26.8938C13.5993 26.7608 13.6653 26.634 13.7447 26.5155C13.8952 26.2842 14.1022 26.0409 14.3589 25.7818C14.4967 25.643 14.6401 25.5076 14.8085 25.3557C14.8461 25.322 15.0866 25.1079 15.1316 25.0657L15.5243 24.7001L15.2388 25.1546C14.8057 25.8451 14.4141 26.3422 14.0787 26.6664C13.9553 26.7859 13.8466 26.8738 13.7587 26.9304C13.7297 26.9498 13.699 26.9665 13.667 26.9803C13.6526 26.9863 13.6399 26.9898 13.6273 26.9909C13.6139 26.9926 13.6003 26.9907 13.5879 26.9856C13.5747 26.98 13.5634 26.9707 13.5554 26.9588C13.5475 26.9468 13.5432 26.9328 13.5432 26.9184ZM17.9708 19.2445L17.8914 19.3852L17.8421 19.2312C17.7332 18.8856 17.653 18.3649 17.6309 17.8952C17.6055 17.3609 17.6481 17.0402 17.8168 17.0402C18.0538 17.0402 18.1624 17.4199 18.1709 17.9912C18.1786 18.4932 18.0995 19.0157 17.9705 19.2445H17.9708ZM17.7666 21.2998L17.8204 21.1574L17.8938 21.291C18.3048 22.0377 18.8381 22.6607 19.4245 23.0948L19.5511 23.1884L19.3968 23.22C18.8227 23.3388 18.2879 23.5174 17.5567 23.8124C17.633 23.7814 16.7966 24.1239 16.585 24.2051L16.4004 24.2757L16.4988 24.1042C16.933 23.3483 17.3341 22.4406 17.7662 21.2998H17.7666ZM23.3079 23.9808C23.0316 24.0898 22.4367 23.9924 21.3894 23.5452L21.1236 23.432L21.4119 23.4109C22.2311 23.3501 22.8111 23.3951 23.1493 23.5188C23.2935 23.5716 23.3895 23.638 23.432 23.7139C23.4544 23.7499 23.4619 23.7931 23.453 23.8345C23.4441 23.8759 23.4194 23.9122 23.3842 23.9358C23.3618 23.9555 23.3359 23.9707 23.3079 23.9808Z" fill="black" fill-opacity="0.85"/>
</svg>
