<svg width="36" height="36" viewBox="0 0 36 36" fill="none" xmlns="http://www.w3.org/2000/svg">
<path d="M18 2.25C9.30234 2.25 2.25 9.30234 2.25 18C2.25 26.6977 9.30234 33.75 18 33.75C26.6977 33.75 33.75 26.6977 33.75 18C33.75 9.30234 26.6977 2.25 18 2.25ZM10.125 14.8008C10.134 14.3592 10.3158 13.9387 10.6313 13.6296C10.9467 13.3205 11.3708 13.1474 11.8125 13.1474C12.2542 13.1474 12.6783 13.3205 12.9937 13.6296C13.3092 13.9387 13.491 14.3592 13.5 14.8008C13.491 15.2424 13.3092 15.6628 12.9937 15.9719C12.6783 16.2811 12.2542 16.4542 11.8125 16.4542C11.3708 16.4542 10.9467 16.2811 10.6313 15.9719C10.3158 15.6628 10.134 15.2424 10.125 14.8008ZM23.3438 24.3633H21.6527C21.5051 24.3633 21.3785 24.2508 21.368 24.1031C21.2344 22.3629 19.7754 20.9883 18 20.9883C16.2246 20.9883 14.7621 22.3629 14.632 24.1031C14.6215 24.2508 14.4949 24.3633 14.3473 24.3633H12.6562C12.6181 24.3633 12.5803 24.3556 12.5453 24.3406C12.5102 24.3256 12.4785 24.3036 12.4522 24.276C12.4259 24.2484 12.4055 24.2157 12.3922 24.1799C12.379 24.1442 12.3731 24.1061 12.375 24.068C12.5297 21.1043 14.9941 18.7383 18 18.7383C21.0059 18.7383 23.4703 21.1043 23.625 24.068C23.6269 24.1061 23.621 24.1442 23.6078 24.1799C23.5945 24.2157 23.5741 24.2484 23.5478 24.276C23.5215 24.3036 23.4898 24.3256 23.4547 24.3406C23.4197 24.3556 23.3819 24.3633 23.3438 24.3633ZM24.1875 16.4883C23.7459 16.4793 23.3254 16.2975 23.0163 15.982C22.7072 15.6665 22.5341 15.2425 22.5341 14.8008C22.5341 14.3591 22.7072 13.935 23.0163 13.6195C23.3254 13.304 23.7459 13.1223 24.1875 13.1133C24.6291 13.1223 25.0496 13.304 25.3587 13.6195C25.6678 13.935 25.8409 14.3591 25.8409 14.8008C25.8409 15.2425 25.6678 15.6665 25.3587 15.982C25.0496 16.2975 24.6291 16.4793 24.1875 16.4883Z" fill="black" fill-opacity="0.85"/>
</svg>
