<svg width="36" height="36" viewBox="0 0 36 36" fill="none" xmlns="http://www.w3.org/2000/svg">
<path d="M30.0445 10.1496C30.2555 10.3605 30.375 10.6453 30.375 10.9441V32.625C30.375 33.2473 29.8723 33.75 29.25 33.75H6.75C6.12773 33.75 5.625 33.2473 5.625 32.625V3.375C5.625 2.75273 6.12773 2.25 6.75 2.25H21.6809C21.9797 2.25 22.268 2.36953 22.4789 2.58047L30.0445 10.1496ZM27.7805 11.4609L21.1641 4.84453V11.4609H27.7805ZM14.9811 21.1264L17.0592 25.8012C17.1034 25.9006 17.1755 25.985 17.2667 26.0443C17.3579 26.1036 17.4644 26.1352 17.5732 26.1352H18.4191C18.528 26.1352 18.6345 26.1036 18.7258 26.0443C18.8171 25.9849 18.8892 25.9004 18.9334 25.8008L21.0111 21.1127V26.6484C21.0111 26.7223 21.0257 26.7955 21.054 26.8638C21.0823 26.932 21.1237 26.9941 21.176 27.0463C21.2283 27.0985 21.2903 27.14 21.3586 27.1682C21.4269 27.1965 21.5001 27.211 21.574 27.2109H22.5352C22.6843 27.2109 22.8274 27.1517 22.9329 27.0462C23.0384 26.9407 23.0977 26.7976 23.0977 26.6484V17.0859C23.0977 16.9368 23.0384 16.7937 22.9329 16.6882C22.8274 16.5827 22.6843 16.5234 22.5352 16.5234H21.3135C21.2039 16.5235 21.0967 16.5555 21.0051 16.6156C20.9135 16.6756 20.8414 16.7612 20.7977 16.8616L18.0035 23.2805L15.2093 16.8613C15.1656 16.7609 15.0935 16.6754 15.0018 16.6154C14.9102 16.5554 14.8031 16.5234 14.6936 16.5234H13.4648C13.3157 16.5234 13.1726 16.5827 13.0671 16.6882C12.9616 16.7937 12.9023 16.9368 12.9023 17.0859V26.6484C12.9023 26.7976 12.9616 26.9407 13.0671 27.0462C13.1726 27.1517 13.3157 27.2109 13.4648 27.2109H14.4186C14.5678 27.2109 14.7109 27.1517 14.8164 27.0462C14.9219 26.9407 14.9811 26.7976 14.9811 26.6484V21.1264Z" fill="black" fill-opacity="0.85"/>
</svg>
