<svg width="36" height="36" viewBox="0 0 36 36" fill="none" xmlns="http://www.w3.org/2000/svg">
<path d="M18 4.5C10.5434 4.5 4.5 10.5434 4.5 18V30.6562C4.5 31.1238 4.87617 31.5 5.34375 31.5H11.8125C13.0535 31.5 14.0625 30.491 14.0625 29.25V21.9375C14.0625 20.6965 13.0535 19.6875 11.8125 19.6875H7.03125V18C7.03125 11.9426 11.9426 7.03125 18 7.03125C24.0574 7.03125 28.9688 11.9426 28.9688 18V19.6875H24.1875C22.9465 19.6875 21.9375 20.6965 21.9375 21.9375V29.25C21.9375 30.491 22.9465 31.5 24.1875 31.5H30.6562C31.1238 31.5 31.5 31.1238 31.5 30.6562V18C31.5 10.5434 25.4566 4.5 18 4.5Z" fill="black" fill-opacity="0.85"/>
</svg>
