<svg width="36" height="36" viewBox="0 0 36 36" fill="none" xmlns="http://www.w3.org/2000/svg">
<path d="M30.9375 3.9375H5.0625C4.44023 3.9375 3.9375 4.44023 3.9375 5.0625V30.9375C3.9375 31.5598 4.44023 32.0625 5.0625 32.0625H30.9375C31.5598 32.0625 32.0625 31.5598 32.0625 30.9375V5.0625C32.0625 4.44023 31.5598 3.9375 30.9375 3.9375ZM18.0387 18.2145L11.2887 23.8746C11.1059 24.0293 10.8281 23.8992 10.8281 23.6602V21.4559C10.8281 21.375 10.8668 21.2941 10.9301 21.2414L14.7902 18L10.9301 14.7586C10.8978 14.7331 10.8718 14.7005 10.8541 14.6633C10.8364 14.6261 10.8275 14.5853 10.8281 14.5441V12.3398C10.8281 12.1008 11.1059 11.9707 11.2887 12.1254L18.0387 17.782C18.1758 17.8945 18.1758 18.102 18.0387 18.2145ZM25.1719 23.6602C25.1719 23.8148 25.0523 23.9414 24.9082 23.9414H18.4043C18.2602 23.9414 18.1406 23.8148 18.1406 23.6602V21.9727C18.1406 21.818 18.2602 21.6914 18.4043 21.6914H24.9082C25.0523 21.6914 25.1719 21.818 25.1719 21.9727V23.6602Z" fill="black" fill-opacity="0.85"/>
</svg>
