<svg width="36" height="36" viewBox="0 0 36 36" fill="none" xmlns="http://www.w3.org/2000/svg">
<path d="M30.0445 10.1496C30.2555 10.3605 30.375 10.6453 30.375 10.9441V32.625C30.375 33.2473 29.8723 33.75 29.25 33.75H6.75C6.12773 33.75 5.625 33.2473 5.625 32.625V3.375C5.625 2.75273 6.12773 2.25 6.75 2.25H21.6809C21.9797 2.25 22.268 2.36953 22.4789 2.58047L30.0445 10.1496ZM27.7805 11.4609L21.1641 4.84453V11.4609H27.7805ZM18 27.5625C18.373 27.5625 18.7306 27.4143 18.9944 27.1506C19.2581 26.8869 19.4062 26.5292 19.4062 26.1562C19.4062 25.7833 19.2581 25.4256 18.9944 25.1619C18.7306 24.8982 18.373 24.75 18 24.75C17.627 24.75 17.2694 24.8982 17.0056 25.1619C16.7419 25.4256 16.5938 25.7833 16.5938 26.1562C16.5938 26.5292 16.7419 26.8869 17.0056 27.1506C17.2694 27.4143 17.627 27.5625 18 27.5625ZM19.125 22.2188V15.75C19.125 15.6754 19.0954 15.6039 19.0426 15.5511C18.9899 15.4984 18.9183 15.4688 18.8438 15.4688H17.1562C17.0817 15.4688 17.0101 15.4984 16.9574 15.5511C16.9046 15.6039 16.875 15.6754 16.875 15.75V22.2188C16.875 22.2933 16.9046 22.3649 16.9574 22.4176C17.0101 22.4704 17.0817 22.5 17.1562 22.5H18.8438C18.9183 22.5 18.9899 22.4704 19.0426 22.4176C19.0954 22.3649 19.125 22.2933 19.125 22.2188Z" fill="black" fill-opacity="0.85"/>
</svg>
