<svg width="36" height="36" viewBox="0 0 36 36" fill="none" xmlns="http://www.w3.org/2000/svg">
<path d="M31.6268 9.72062L24.7854 13.9359L18.2252 5.18546C18.1988 5.15024 18.1646 5.12165 18.1252 5.10196C18.0859 5.08227 18.0425 5.07202 17.9985 5.07202C17.9544 5.07202 17.911 5.08227 17.8717 5.10196C17.8323 5.12165 17.7981 5.15024 17.7717 5.18546L11.2151 13.9359L4.37014 9.72062C4.16975 9.59757 3.90959 9.76281 3.94123 9.99835L6.62717 30.4101C6.66584 30.6878 6.9049 30.9023 7.18967 30.9023H28.8143C29.0955 30.9023 29.3381 30.6913 29.3733 30.4101L32.0592 9.99835C32.0873 9.76281 31.8307 9.59757 31.6268 9.72062ZM18.0002 25.8116C15.817 25.8116 14.0416 24.0363 14.0416 21.8531C14.0416 19.6698 15.817 17.8945 18.0002 17.8945C20.1834 17.8945 21.9588 19.6698 21.9588 21.8531C21.9588 24.0363 20.1834 25.8116 18.0002 25.8116ZM18.0002 20.155C17.0651 20.155 16.3057 20.9144 16.3057 21.8531C16.3057 22.7882 17.0651 23.5511 18.0002 23.5511C18.9354 23.5511 19.6947 22.7917 19.6947 21.8531C19.6947 20.9179 18.9354 20.155 18.0002 20.155Z" fill="black" fill-opacity="0.85"/>
</svg>
