<svg xmlns="http://www.w3.org/2000/svg" width="36" height="36" viewBox="0 0 36 36" fill="none">
  <path d="M5.625 31.4297C5.625 32.052 6.12773 32.5547 6.75 32.5547H16.8047V19.3359H5.625V31.4297ZM19.1953 32.5547H29.25C29.8723 32.5547 30.375 32.052 30.375 31.4297V19.3359H19.1953V32.5547ZM30.9375 10.8984H25.7484C26.2266 10.1461 26.5078 9.25313 26.5078 8.29688C26.5078 5.62148 24.3316 3.44531 21.6562 3.44531C20.2008 3.44531 18.8895 4.09219 18 5.11172C17.1105 4.09219 15.7992 3.44531 14.3438 3.44531C11.6684 3.44531 9.49219 5.62148 9.49219 8.29688C9.49219 9.25313 9.76992 10.1461 10.2516 10.8984H5.0625C4.44023 10.8984 3.9375 11.4012 3.9375 12.0234V16.9453H16.8047V10.8984H19.1953V16.9453H32.0625V12.0234C32.0625 11.4012 31.5598 10.8984 30.9375 10.8984ZM16.8047 10.7578H14.3438C12.9867 10.7578 11.8828 9.65391 11.8828 8.29688C11.8828 6.93984 12.9867 5.83594 14.3438 5.83594C15.7008 5.83594 16.8047 6.93984 16.8047 8.29688V10.7578ZM21.6562 10.7578H19.1953V8.29688C19.1953 6.93984 20.2992 5.83594 21.6562 5.83594C23.0133 5.83594 24.1172 6.93984 24.1172 8.29688C24.1172 9.65391 23.0133 10.7578 21.6562 10.7578Z" fill="black" fill-opacity="0.85"/>
</svg>