<svg width="36" height="36" viewBox="0 0 36 36" fill="none" xmlns="http://www.w3.org/2000/svg">
<path d="M30.9375 3.9375H5.0625C4.44023 3.9375 3.9375 4.44023 3.9375 5.0625V30.9375C3.9375 31.5598 4.44023 32.0625 5.0625 32.0625H30.9375C31.5598 32.0625 32.0625 31.5598 32.0625 30.9375V5.0625C32.0625 4.44023 31.5598 3.9375 30.9375 3.9375ZM15.4758 26.8945H13.6898C13.6125 26.8945 13.5316 26.8559 13.4824 26.7926L12.2344 25.2633L10.9863 26.7926C10.962 26.8244 10.9306 26.8502 10.8946 26.8679C10.8586 26.8856 10.819 26.8947 10.7789 26.8945H8.99297C8.76094 26.8945 8.63438 26.6168 8.78906 26.434L10.9934 23.734L8.8418 21.1008C8.69063 20.918 8.81719 20.6402 9.04922 20.6402H10.8387C10.916 20.6402 10.9969 20.6789 11.0461 20.7422L12.2414 22.2047L13.4367 20.7422C13.4895 20.6754 13.5633 20.6402 13.6441 20.6402H15.4301C15.6621 20.6402 15.7887 20.918 15.6375 21.1008L13.4824 23.7305L15.6867 26.4305C15.8344 26.6168 15.7078 26.8945 15.4758 26.8945ZM15.75 13.4648C15.75 13.5422 15.7008 13.6055 15.6375 13.6055H13.2188V16.0207C13.2188 16.0875 13.1555 16.1367 13.0781 16.1367H11.3906C11.3133 16.1367 11.25 16.0875 11.25 16.0242V13.6055H8.83125C8.76797 13.6055 8.71875 13.5422 8.71875 13.4648V11.7773C8.71875 11.7 8.76797 11.6367 8.83125 11.6367H11.25V9.21797C11.25 9.15469 11.3133 9.10547 11.3906 9.10547H13.0781C13.1555 9.10547 13.2188 9.15469 13.2188 9.21797V11.6367H15.634C15.7008 11.6367 15.75 11.7 15.75 11.7773V13.4648ZM27.2812 26.4375C27.2812 26.5148 27.232 26.5781 27.1687 26.5781H20.3625C20.2992 26.5781 20.25 26.5148 20.25 26.4375V24.75C20.25 24.6727 20.2992 24.6094 20.3625 24.6094H27.1652C27.232 24.6094 27.2812 24.6727 27.2812 24.75V26.4375ZM27.2812 22.7812C27.2812 22.8586 27.232 22.9219 27.1687 22.9219H20.3625C20.2992 22.9219 20.25 22.8586 20.25 22.7812V21.0938C20.25 21.0164 20.2992 20.9531 20.3625 20.9531H27.1652C27.232 20.9531 27.2812 21.0164 27.2812 21.0938V22.7812ZM27.2812 13.4648C27.2812 13.5422 27.232 13.6055 27.1687 13.6055H20.3625C20.2992 13.6055 20.25 13.5422 20.25 13.4648V11.7773C20.25 11.7 20.2992 11.6367 20.3625 11.6367H27.1652C27.232 11.6367 27.2812 11.7 27.2812 11.7773V13.4648Z" fill="black" fill-opacity="0.85"/>
</svg>
