<svg width="36" height="36" viewBox="0 0 36 36" fill="none" xmlns="http://www.w3.org/2000/svg">
<path d="M18 2.25C9.30234 2.25 2.25 9.30234 2.25 18C2.25 26.6977 9.30234 33.75 18 33.75C26.6977 33.75 33.75 26.6977 33.75 18C33.75 9.30234 26.6977 2.25 18 2.25ZM10.125 14.8008C10.134 14.3592 10.3158 13.9387 10.6313 13.6296C10.9467 13.3205 11.3708 13.1474 11.8125 13.1474C12.2542 13.1474 12.6783 13.3205 12.9937 13.6296C13.3092 13.9387 13.491 14.3592 13.5 14.8008C13.491 15.2424 13.3092 15.6628 12.9937 15.9719C12.6783 16.2811 12.2542 16.4542 11.8125 16.4542C11.3708 16.4542 10.9467 16.2811 10.6313 15.9719C10.3158 15.6628 10.134 15.2424 10.125 14.8008ZM23.625 21.832C23.625 21.9867 23.4984 22.1133 23.3438 22.1133H12.6562C12.5016 22.1133 12.375 21.9867 12.375 21.832V20.1445C12.375 19.9898 12.5016 19.8633 12.6562 19.8633H23.3438C23.4984 19.8633 23.625 19.9898 23.625 20.1445V21.832ZM24.1875 16.4883C23.7459 16.4793 23.3254 16.2975 23.0163 15.982C22.7072 15.6665 22.5341 15.2425 22.5341 14.8008C22.5341 14.3591 22.7072 13.935 23.0163 13.6195C23.3254 13.304 23.7459 13.1223 24.1875 13.1133C24.6291 13.1223 25.0496 13.304 25.3587 13.6195C25.6678 13.935 25.8409 14.3591 25.8409 14.8008C25.8409 15.2425 25.6678 15.6665 25.3587 15.982C25.0496 16.2975 24.6291 16.4793 24.1875 16.4883Z" fill="black" fill-opacity="0.85"/>
</svg>
