<svg width="36" height="36" viewBox="0 0 36 36" fill="none" xmlns="http://www.w3.org/2000/svg">
<path d="M30.9375 10.4906H18.3164L14.1926 6.54609C14.1401 6.49697 14.0711 6.46937 13.9992 6.46875H5.0625C4.44023 6.46875 3.9375 6.97148 3.9375 7.59375V28.4062C3.9375 29.0285 4.44023 29.5312 5.0625 29.5312H30.9375C31.5598 29.5312 32.0625 29.0285 32.0625 28.4062V11.6156C32.0625 10.9934 31.5598 10.4906 30.9375 10.4906ZM22.2188 20.2852C22.2188 20.4187 22.0992 20.5312 21.9551 20.5312H18.9844V23.516C18.9844 23.6531 18.8719 23.7656 18.7383 23.7656H17.2617C17.1281 23.7656 17.0156 23.6531 17.0156 23.516V20.5312H14.0449C13.9008 20.5312 13.7812 20.4187 13.7812 20.2852V18.8086C13.7812 18.675 13.9008 18.5625 14.0449 18.5625H17.0156V15.5777C17.0156 15.4406 17.1281 15.3281 17.2617 15.3281H18.7383C18.8719 15.3281 18.9844 15.4406 18.9844 15.5777V18.5625H21.9551C22.0992 18.5625 22.2188 18.675 22.2188 18.8086V20.2852Z" fill="black" fill-opacity="0.85"/>
</svg>
