<svg width="36" height="36" viewBox="0 0 36 36" fill="none" xmlns="http://www.w3.org/2000/svg">
<path d="M32.5125 13.5563C31.7219 11.6849 30.5757 9.98475 29.1375 8.55C27.7028 7.11179 26.0026 5.96561 24.1313 5.175C22.1871 4.35234 20.127 3.9375 18 3.9375C15.873 3.9375 13.8129 4.35234 11.8688 5.175C9.99741 5.96561 8.29725 7.11179 6.8625 8.55C5.42429 9.98475 4.27811 11.6849 3.4875 13.5563C2.66484 15.5004 2.25 17.5605 2.25 19.6875C2.25 24.3527 4.29961 28.7473 7.87148 31.7496L7.93125 31.7988C8.13516 31.9676 8.3918 32.0625 8.65547 32.0625H27.348C27.6117 32.0625 27.8684 31.9676 28.0723 31.7988L28.132 31.7496C31.7004 28.7473 33.75 24.3527 33.75 19.6875C33.75 17.5605 33.3316 15.5004 32.5125 13.5563ZM16.9453 8.15625C16.9453 8.00156 17.0719 7.875 17.2266 7.875H18.7734C18.9281 7.875 19.0547 8.00156 19.0547 8.15625V10.9688C19.0547 11.1234 18.9281 11.25 18.7734 11.25H17.2266C17.0719 11.25 16.9453 11.1234 16.9453 10.9688V8.15625ZM9.49219 20.4609C9.49219 20.6156 9.36562 20.7422 9.21094 20.7422H6.39844C6.24375 20.7422 6.11719 20.6156 6.11719 20.4609V18.9141C6.11719 18.7594 6.24375 18.6328 6.39844 18.6328H9.21094C9.36562 18.6328 9.49219 18.7594 9.49219 18.9141V20.4609ZM12.6809 13.2715L11.5875 14.3648C11.5346 14.4172 11.4633 14.4465 11.3889 14.4465C11.3145 14.4465 11.2431 14.4172 11.1902 14.3648L9.20039 12.375C9.14805 12.3221 9.11869 12.2508 9.11869 12.1764C9.11869 12.102 9.14805 12.0306 9.20039 11.9777L10.2937 10.8844C10.4027 10.7754 10.582 10.7754 10.691 10.8844L12.6809 12.8742C12.7898 12.9832 12.7898 13.1625 12.6809 13.2715ZM22.9148 16.2105L19.9441 19.1812C20.1199 19.8387 19.9512 20.5664 19.4344 21.0832C19.2517 21.2663 19.0347 21.4115 18.7958 21.5106C18.5569 21.6096 18.3008 21.6606 18.0422 21.6606C17.7836 21.6606 17.5275 21.6096 17.2886 21.5106C17.0497 21.4115 16.8327 21.2663 16.65 21.0832C16.467 20.9005 16.3217 20.6835 16.2227 20.4446C16.1236 20.2057 16.0726 19.9496 16.0726 19.691C16.0726 19.4324 16.1236 19.1763 16.2227 18.9374C16.3217 18.6985 16.467 18.4815 16.65 18.2988C16.8941 18.054 17.1985 17.8779 17.5325 17.7884C17.8664 17.6989 18.2181 17.6991 18.552 17.7891L21.5227 14.8184C21.6316 14.7094 21.8109 14.7094 21.9199 14.8184L22.9148 15.8133C23.0238 15.9223 23.0238 16.098 22.9148 16.2105ZM24.4266 14.3684L23.3332 13.275C23.2809 13.2221 23.2515 13.1508 23.2515 13.0764C23.2515 13.002 23.2809 12.9306 23.3332 12.8777L25.323 10.8879C25.432 10.7789 25.6113 10.7789 25.7203 10.8879L26.8137 11.9812C26.9227 12.0902 26.9227 12.2695 26.8137 12.3785L24.8238 14.3684C24.771 14.4207 24.6996 14.4501 24.6252 14.4501C24.5508 14.4501 24.4794 14.4207 24.4266 14.3684ZM29.7422 20.4609C29.7422 20.6156 29.6156 20.7422 29.4609 20.7422H26.6484C26.4937 20.7422 26.3672 20.6156 26.3672 20.4609V18.9141C26.3672 18.7594 26.4937 18.6328 26.6484 18.6328H29.4609C29.6156 18.6328 29.7422 18.7594 29.7422 18.9141V20.4609Z" fill="black" fill-opacity="0.85"/>
</svg>
