<svg width="36" height="36" viewBox="0 0 36 36" fill="none" xmlns="http://www.w3.org/2000/svg">
<path d="M32.625 7.875H27V5.90625C27 5.75156 26.8734 5.625 26.7188 5.625H24.75C24.5953 5.625 24.4688 5.75156 24.4688 5.90625V7.875H19.2656V5.90625C19.2656 5.75156 19.1391 5.625 18.9844 5.625H17.0156C16.8609 5.625 16.7344 5.75156 16.7344 5.90625V7.875H11.5312V5.90625C11.5312 5.75156 11.4047 5.625 11.25 5.625H9.28125C9.12656 5.625 9 5.75156 9 5.90625V7.875H3.375C2.75273 7.875 2.25 8.37773 2.25 9V29.25C2.25 29.8723 2.75273 30.375 3.375 30.375H32.625C33.2473 30.375 33.75 29.8723 33.75 29.25V9C33.75 8.37773 33.2473 7.875 32.625 7.875ZM23.2383 25.875H21.6949C21.5473 25.875 21.4277 25.759 21.4172 25.6113C21.2836 23.8324 19.8 22.4297 18 22.4297C16.2 22.4297 14.7164 23.8359 14.5828 25.6113C14.5723 25.759 14.4527 25.875 14.3051 25.875H12.7617C12.7236 25.875 12.6858 25.8673 12.6507 25.8523C12.6157 25.8373 12.584 25.8153 12.5577 25.7877C12.5314 25.7601 12.511 25.7274 12.4977 25.6916C12.4844 25.6559 12.4786 25.6178 12.4805 25.5797C12.5789 23.7059 13.6055 22.0746 15.1031 21.1465C14.4427 20.4205 14.0777 19.4737 14.0801 18.4922C14.0801 16.316 15.8344 14.5547 17.9965 14.5547C20.1586 14.5547 21.9129 16.316 21.9129 18.4922C21.9129 19.5152 21.5262 20.4434 20.8898 21.1465C22.391 22.0781 23.4141 23.7059 23.5125 25.5797C23.5266 25.7414 23.4 25.875 23.2383 25.875ZM18 16.6641C16.998 16.6641 16.1824 17.4832 16.1824 18.4922C16.1824 19.5012 16.998 20.3203 18 20.3203C19.002 20.3203 19.8176 19.5012 19.8176 18.4922C19.8176 17.4832 19.002 16.6641 18 16.6641Z" fill="black" fill-opacity="0.85"/>
</svg>
