<svg xmlns="http://www.w3.org/2000/svg" width="36" height="36" viewBox="0 0 36 36" fill="none">
  <path d="M32.625 5.625H3.375C2.75273 5.625 2.25 6.12773 2.25 6.75V29.25C2.25 29.8723 2.75273 30.375 3.375 30.375H32.625C33.2473 30.375 33.75 29.8723 33.75 29.25V6.75C33.75 6.12773 33.2473 5.625 32.625 5.625ZM11.8828 10.6875C13.1238 10.6875 14.1328 11.6965 14.1328 12.9375C14.1328 14.1785 13.1238 15.1875 11.8828 15.1875C10.6418 15.1875 9.63281 14.1785 9.63281 12.9375C9.63281 11.6965 10.6418 10.6875 11.8828 10.6875ZM29.9496 26.0543C29.8984 26.0973 29.8337 26.121 29.7668 26.1211H6.22969C6.075 26.1211 5.94844 25.9945 5.94844 25.8398C5.94844 25.773 5.97305 25.7098 6.01523 25.657L12.0023 18.5555C12.1008 18.4359 12.2801 18.4219 12.3996 18.5203C12.4102 18.5309 12.4242 18.5414 12.4348 18.5555L15.9293 22.7039L21.4875 16.1121C21.5859 15.9926 21.7652 15.9785 21.8848 16.077C21.8953 16.0875 21.9094 16.098 21.9199 16.1121L29.9918 25.6605C30.0832 25.7766 30.0691 25.9559 29.9496 26.0543Z" fill="black" fill-opacity="0.85"/>
</svg>