<svg width="36" height="36" viewBox="0 0 36 36" fill="none" xmlns="http://www.w3.org/2000/svg">
<path d="M32.625 7.875H27V5.90625C27 5.75156 26.8734 5.625 26.7188 5.625H24.75C24.5953 5.625 24.4688 5.75156 24.4688 5.90625V7.875H19.2656V5.90625C19.2656 5.75156 19.1391 5.625 18.9844 5.625H17.0156C16.8609 5.625 16.7344 5.75156 16.7344 5.90625V7.875H11.5312V5.90625C11.5312 5.75156 11.4047 5.625 11.25 5.625H9.28125C9.12656 5.625 9 5.75156 9 5.90625V7.875H3.375C2.75273 7.875 2.25 8.37773 2.25 9V29.25C2.25 29.8723 2.75273 30.375 3.375 30.375H32.625C33.2473 30.375 33.75 29.8723 33.75 29.25V9C33.75 8.37773 33.2473 7.875 32.625 7.875ZM14.9062 24.1875C14.9062 24.3422 14.7797 24.4688 14.625 24.4688H8.15625C8.00156 24.4688 7.875 24.3422 7.875 24.1875V22.5C7.875 22.3453 8.00156 22.2188 8.15625 22.2188H14.625C14.7797 22.2188 14.9062 22.3453 14.9062 22.5V24.1875ZM14.9062 19.4062C14.9062 19.5609 14.7797 19.6875 14.625 19.6875H8.15625C8.00156 19.6875 7.875 19.5609 7.875 19.4062V17.7188C7.875 17.5641 8.00156 17.4375 8.15625 17.4375H14.625C14.7797 17.4375 14.9062 17.5641 14.9062 17.7188V19.4062ZM28.0723 16.1965L22.2715 24.2367C22.2197 24.3086 22.1516 24.3671 22.0727 24.4075C21.9939 24.4479 21.9066 24.4689 21.818 24.4689C21.7294 24.4689 21.6421 24.4479 21.5632 24.4075C21.4844 24.3671 21.4162 24.3086 21.3645 24.2367L17.3496 18.675C17.216 18.4887 17.3496 18.2285 17.5781 18.2285H19.5082C19.6875 18.2285 19.8562 18.3164 19.9617 18.4605L21.818 21.0305L25.4637 15.9785C25.5691 15.8309 25.7379 15.7465 25.9172 15.7465H27.8438C28.0723 15.75 28.2059 16.0102 28.0723 16.1965Z" fill="black" fill-opacity="0.85"/>
</svg>
