<svg width="36" height="36" viewBox="0 0 36 36" fill="none" xmlns="http://www.w3.org/2000/svg">
<path d="M30.0445 10.1496C30.2555 10.3605 30.375 10.6453 30.375 10.9441V32.625C30.375 33.2473 29.8723 33.75 29.25 33.75H6.75C6.12773 33.75 5.625 33.2473 5.625 32.625V3.375C5.625 2.75273 6.12773 2.25 6.75 2.25H21.6809C21.9797 2.25 22.268 2.36953 22.4789 2.58047L30.0445 10.1496ZM27.7805 11.4609L21.1641 4.84453V11.4609H27.7805ZM14.1328 19.3008C14.1328 19.4906 14.2875 19.6348 14.4773 19.6348H15.6164C15.8063 19.6348 15.9609 19.4871 15.9609 19.3043C15.9609 18.3129 16.868 17.4902 18 17.4902C19.132 17.4902 20.0391 18.3129 20.0391 19.3008C20.0391 20.1902 19.3008 20.9602 18.3059 21.0902C17.6273 21.1887 17.093 21.8039 17.0859 22.5V23.625C17.0859 23.8184 17.2441 23.9766 17.4375 23.9766H18.5625C18.7559 23.9766 18.9141 23.8184 18.9141 23.625V23.1961C18.9141 22.9852 19.0547 22.7918 19.2551 22.7285C20.823 22.2223 21.8918 20.8301 21.8672 19.2516C21.8391 17.3004 20.1375 15.7078 18.0527 15.6797C15.8941 15.6551 14.1328 17.2828 14.1328 19.3008ZM18 27.2812C18.2984 27.2812 18.5845 27.1627 18.7955 26.9517C19.0065 26.7408 19.125 26.4546 19.125 26.1562C19.125 25.8579 19.0065 25.5717 18.7955 25.3608C18.5845 25.1498 18.2984 25.0312 18 25.0312C17.7016 25.0312 17.4155 25.1498 17.2045 25.3608C16.9935 25.5717 16.875 25.8579 16.875 26.1562C16.875 26.4546 16.9935 26.7408 17.2045 26.9517C17.4155 27.1627 17.7016 27.2812 18 27.2812Z" fill="black" fill-opacity="0.85"/>
</svg>
