<svg width="36" height="36" viewBox="0 0 36 36" fill="none" xmlns="http://www.w3.org/2000/svg">
<path d="M7.69551 22.3699L9.19316 23.3051C9.19668 23.3086 9.20371 23.3121 9.20723 23.3156L9.65371 23.5969L9.66426 23.6074C10.6696 24.1887 11.8111 24.4932 12.9725 24.4898C14.551 24.4898 16.0381 23.9379 17.2264 22.95C18.8508 21.5878 20.9036 20.8422 23.0236 20.8441C24.8623 20.8441 26.6166 21.3961 28.1072 22.4086L28.385 22.5844L24.4615 12.4242V6.32109H26.6939C26.8486 6.32109 26.9752 6.19453 26.9752 6.03984V4.21875C26.9752 4.06406 26.8486 3.9375 26.6939 3.9375H9.30566C9.15098 3.9375 9.02441 4.06406 9.02441 4.21875V6.04336C9.02441 6.19805 9.15098 6.32461 9.30566 6.32461H11.5381V12.4277L7.69551 22.3699ZM19.4025 15.2297C20.176 15.2297 20.8053 15.859 20.8053 16.6324C20.8053 17.4059 20.176 18.0352 19.4025 18.0352C18.6291 18.0352 17.9998 17.4059 17.9998 16.6324C17.9998 15.859 18.6291 15.2297 19.4025 15.2297ZM30.867 29.0074L29.8158 26.2863L26.8029 24.4055L26.7994 24.409C26.7748 24.3914 26.7467 24.3738 26.7221 24.3562L26.4373 24.1805L26.4268 24.1699C25.4072 23.5547 24.2365 23.2277 23.0166 23.2277C21.4381 23.2277 19.951 23.7797 18.7627 24.7676C17.1382 26.1297 15.0854 26.8754 12.9654 26.8734C11.1021 26.8734 9.32676 26.3074 7.82559 25.2703L6.80957 24.634L5.13262 29.0074C5.03418 29.2676 4.98145 29.5418 4.98145 29.816C4.98145 31.0535 5.98691 32.059 7.22441 32.059H28.7717C29.0494 32.059 29.3236 32.0062 29.5803 31.9078C29.8558 31.8027 30.1079 31.6441 30.3219 31.4412C30.5359 31.2383 30.7077 30.995 30.8273 30.7254C30.9469 30.4558 31.0119 30.1652 31.0188 29.8704C31.0256 29.5755 30.974 29.2823 30.867 29.0074Z" fill="black" fill-opacity="0.85"/>
</svg>
