<svg xmlns="http://www.w3.org/2000/svg" width="36" height="36" viewBox="0 0 36 36" fill="none">
  <path d="M30.8779 13.7848L22.2154 5.12227C21.9869 4.89375 21.6881 4.78125 21.3892 4.78125C21.0904 4.78125 20.7916 4.89375 20.5631 5.12227L14.8994 10.7895C14.4705 10.7402 14.0381 10.7191 13.6056 10.7191C11.0322 10.7191 8.45876 11.5664 6.34587 13.2609C5.80446 13.6934 5.76227 14.5055 6.25094 14.9977L12.6388 21.3855L5.06618 28.9512C4.97338 29.0434 4.91611 29.1654 4.90446 29.2957L4.78493 30.6035C4.75329 30.934 5.01696 31.2152 5.34391 31.2152C5.36149 31.2152 5.37907 31.2152 5.39665 31.2117L6.70446 31.0922C6.83454 31.0816 6.95758 31.0219 7.04899 30.9305L14.6216 23.3578L21.0095 29.7457C21.2381 29.9742 21.5369 30.0867 21.8357 30.0867C22.1767 30.0867 22.5142 29.9391 22.7463 29.6508C24.7256 27.1793 25.5482 24.0855 25.2142 21.0938L30.8779 15.4301C31.3314 14.9801 31.3314 14.2418 30.8779 13.7848Z" fill="black" fill-opacity="0.85"/>
</svg>