<svg width="36" height="36" viewBox="0 0 36 36" fill="none" xmlns="http://www.w3.org/2000/svg">
<path d="M32.625 5.66016H24.5813C22.8551 5.66016 21.1676 6.15586 19.7156 7.09102L18 8.19141L16.2844 7.09102C14.8339 6.15604 13.1445 5.65923 11.4187 5.66016H3.375C2.75273 5.66016 2.25 6.16289 2.25 6.78516V26.7539C2.25 27.3762 2.75273 27.8789 3.375 27.8789H11.4187C13.1449 27.8789 14.8324 28.3746 16.2844 29.3098L17.8453 30.3152C17.891 30.3434 17.9437 30.3609 17.9965 30.3609C18.0492 30.3609 18.102 30.3469 18.1477 30.3152L19.7086 29.3098C21.1641 28.3746 22.8551 27.8789 24.5813 27.8789H32.625C33.2473 27.8789 33.75 27.3762 33.75 26.7539V6.78516C33.75 6.16289 33.2473 5.66016 32.625 5.66016ZM14.2031 19.459C14.2031 19.6031 14.0906 19.7227 13.9535 19.7227H7.42148C7.28438 19.7227 7.17188 19.6031 7.17188 19.459V17.877C7.17188 17.7328 7.28438 17.6133 7.42148 17.6133H13.95C14.0871 17.6133 14.1996 17.7328 14.1996 17.877V19.459H14.2031ZM14.2031 14.5371C14.2031 14.6813 14.0906 14.8008 13.9535 14.8008H7.42148C7.28438 14.8008 7.17188 14.6813 7.17188 14.5371V12.9551C7.17188 12.8109 7.28438 12.6914 7.42148 12.6914H13.95C14.0871 12.6914 14.1996 12.8109 14.1996 12.9551V14.5371H14.2031ZM28.8281 19.459C28.8281 19.6031 28.7156 19.7227 28.5785 19.7227H22.0465C21.9094 19.7227 21.7969 19.6031 21.7969 19.459V17.877C21.7969 17.7328 21.9094 17.6133 22.0465 17.6133H28.575C28.7121 17.6133 28.8246 17.7328 28.8246 17.877V19.459H28.8281ZM28.8281 14.5371C28.8281 14.6813 28.7156 14.8008 28.5785 14.8008H22.0465C21.9094 14.8008 21.7969 14.6813 21.7969 14.5371V12.9551C21.7969 12.8109 21.9094 12.6914 22.0465 12.6914H28.575C28.7121 12.6914 28.8246 12.8109 28.8246 12.9551V14.5371H28.8281Z" fill="black" fill-opacity="0.85"/>
</svg>
