<svg width="36" height="36" viewBox="0 0 36 36" fill="none" xmlns="http://www.w3.org/2000/svg">
<g clip-path="url(#clip0_82_928)">
<path d="M30.9375 3.9375H5.0625C4.44023 3.9375 3.9375 4.44023 3.9375 5.0625V30.9375C3.9375 31.5598 4.44023 32.0625 5.0625 32.0625H30.9375C31.5598 32.0625 32.0625 31.5598 32.0625 30.9375V5.0625C32.0625 4.44023 31.5598 3.9375 30.9375 3.9375ZM29.8125 20.25H18.5625V15.75H29.8125V20.25ZM20.3906 18C20.3906 18.373 20.5388 18.7306 20.8025 18.9944C21.0662 19.2581 21.4239 19.4062 21.7969 19.4062C22.1698 19.4062 22.5275 19.2581 22.7912 18.9944C23.055 18.7306 23.2031 18.373 23.2031 18C23.2031 17.627 23.055 17.2694 22.7912 17.0056C22.5275 16.7419 22.1698 16.5938 21.7969 16.5938C21.4239 16.5938 21.0662 16.7419 20.8025 17.0056C20.5388 17.2694 20.3906 17.627 20.3906 18Z" fill="black" fill-opacity="0.85"/>
</g>
<defs>
<clipPath id="clip0_82_928">
<rect width="36" height="36" fill="white"/>
</clipPath>
</defs>
</svg>
