<svg width="36" height="36" viewBox="0 0 36 36" fill="none" xmlns="http://www.w3.org/2000/svg">
<path d="M30.9375 6.46875H25.0312V4.21875C25.0312 4.06406 24.9047 3.9375 24.75 3.9375H22.7812C22.6266 3.9375 22.5 4.06406 22.5 4.21875V6.46875H13.5V4.21875C13.5 4.06406 13.3734 3.9375 13.2188 3.9375H11.25C11.0953 3.9375 10.9688 4.06406 10.9688 4.21875V6.46875H5.0625C4.44023 6.46875 3.9375 6.97148 3.9375 7.59375V30.9375C3.9375 31.5598 4.44023 32.0625 5.0625 32.0625H30.9375C31.5598 32.0625 32.0625 31.5598 32.0625 30.9375V7.59375C32.0625 6.97148 31.5598 6.46875 30.9375 6.46875ZM24.416 15.2121L16.9418 25.5023C16.8893 25.5743 16.8205 25.6328 16.7411 25.6731C16.6616 25.7134 16.5738 25.7344 16.4848 25.7344C16.3957 25.7344 16.3079 25.7134 16.2285 25.6731C16.1491 25.6328 16.0803 25.5743 16.0277 25.5023L11.584 19.3852C11.4504 19.1988 11.584 18.9387 11.8125 18.9387H13.7531C13.9324 18.9387 14.1047 19.0266 14.2102 19.1707L16.4848 22.2996L21.7898 14.9941C21.8953 14.85 22.0641 14.7621 22.2469 14.7621H24.1875C24.416 14.7656 24.5496 15.0258 24.416 15.2121Z" fill="black" fill-opacity="0.85"/>
</svg>
