<svg xmlns="http://www.w3.org/2000/svg" width="36" height="36" viewBox="0 0 36 36" fill="none">
  <path d="M31.1344 8.09297L27.3902 4.35234C27.1261 4.08707 26.8122 3.87659 26.4665 3.733C26.1208 3.58941 25.7501 3.51554 25.3758 3.51563C24.6129 3.51563 23.8957 3.81445 23.3578 4.35234L19.3289 8.38125C19.0636 8.64537 18.8532 8.95929 18.7096 9.305C18.566 9.6507 18.4921 10.0214 18.4922 10.3957C18.4922 11.1586 18.791 11.8758 19.3289 12.4137L22.275 15.3598C21.5854 16.8798 20.6266 18.2626 19.4449 19.4414C18.2662 20.626 16.8835 21.5882 15.3633 22.282L12.4172 19.3359C12.1531 19.0707 11.8391 18.8602 11.4934 18.7166C11.1477 18.573 10.7771 18.4991 10.4027 18.4992C9.63985 18.4992 8.92266 18.798 8.38477 19.3359L4.35235 23.3613C4.08674 23.6259 3.87608 23.9404 3.73249 24.2868C3.58889 24.6331 3.51519 25.0044 3.51563 25.3793C3.51563 26.1422 3.81446 26.8594 4.35235 27.3973L8.08946 31.1344C8.94727 31.9957 10.132 32.4844 11.3484 32.4844C11.6051 32.4844 11.8512 32.4633 12.0938 32.4211C16.8328 31.6406 21.5332 29.1199 25.3266 25.3301C29.1164 21.5438 31.6336 16.8469 32.4246 12.0938C32.6637 10.6418 32.182 9.14766 31.1344 8.09297Z" fill="black" fill-opacity="0.85"/>
</svg>