<svg width="36" height="36" viewBox="0 0 36 36" fill="none" xmlns="http://www.w3.org/2000/svg">
<path d="M30.0445 10.1496C30.2555 10.3605 30.375 10.6453 30.375 10.9441V32.625C30.375 33.2473 29.8723 33.75 29.25 33.75H6.75C6.12773 33.75 5.625 33.2473 5.625 32.625V3.375C5.625 2.75273 6.12773 2.25 6.75 2.25H21.6809C21.9797 2.25 22.268 2.36953 22.4789 2.58047L30.0445 10.1496ZM27.7805 11.4609L21.1641 4.84453V11.4609H27.7805ZM11.25 16.9453C11.1754 16.9453 11.1039 16.9749 11.0511 17.0277C10.9984 17.0804 10.9688 17.152 10.9688 17.2266V18.9141C10.9688 18.9887 10.9984 19.0602 11.0511 19.1129C11.1039 19.1657 11.1754 19.1953 11.25 19.1953H24.75C24.8246 19.1953 24.8961 19.1657 24.9489 19.1129C25.0016 19.0602 25.0312 18.9887 25.0312 18.9141V17.2266C25.0312 17.152 25.0016 17.0804 24.9489 17.0277C24.8961 16.9749 24.8246 16.9453 24.75 16.9453H11.25ZM11.25 21.7266C11.1754 21.7266 11.1039 21.7562 11.0511 21.8089C10.9984 21.8617 10.9688 21.9332 10.9688 22.0078V23.6953C10.9688 23.7699 10.9984 23.8414 11.0511 23.8942C11.1039 23.9469 11.1754 23.9766 11.25 23.9766H17.7188C17.7933 23.9766 17.8649 23.9469 17.9176 23.8942C17.9704 23.8414 18 23.7699 18 23.6953V22.0078C18 21.9332 17.9704 21.8617 17.9176 21.8089C17.8649 21.7562 17.7933 21.7266 17.7188 21.7266H11.25Z" fill="black" fill-opacity="0.85"/>
</svg>
