<svg width="36" height="36" viewBox="0 0 36 36" fill="none" xmlns="http://www.w3.org/2000/svg">
<path d="M16.875 20.3906H13.0781C13.0035 20.3906 12.932 20.4203 12.8793 20.473C12.8265 20.5257 12.7969 20.5973 12.7969 20.6719V22.3594C12.7969 22.434 12.8265 22.5055 12.8793 22.5582C12.932 22.611 13.0035 22.6406 13.0781 22.6406H16.875V26.4375C16.875 26.5121 16.9046 26.5836 16.9574 26.6364C17.0101 26.6891 17.0817 26.7188 17.1562 26.7188H18.8438C18.9183 26.7188 18.9899 26.6891 19.0426 26.6364C19.0954 26.5836 19.125 26.5121 19.125 26.4375V22.6406H22.9219C22.9965 22.6406 23.068 22.611 23.1207 22.5582C23.1735 22.5055 23.2031 22.434 23.2031 22.3594V20.6719C23.2031 20.5973 23.1735 20.5257 23.1207 20.473C23.068 20.4203 22.9965 20.3906 22.9219 20.3906H19.125V16.5938C19.125 16.5192 19.0954 16.4476 19.0426 16.3949C18.9899 16.3421 18.9183 16.3125 18.8438 16.3125H17.1562C17.0817 16.3125 17.0101 16.3421 16.9574 16.3949C16.9046 16.4476 16.875 16.5192 16.875 16.5938V20.3906ZM30.0445 10.1496C30.2555 10.3605 30.375 10.6453 30.375 10.9441V32.625C30.375 33.2473 29.8723 33.75 29.25 33.75H6.75C6.12773 33.75 5.625 33.2473 5.625 32.625V3.375C5.625 2.75273 6.12773 2.25 6.75 2.25H21.6809C21.9797 2.25 22.268 2.36953 22.4789 2.58047L30.0445 10.1496ZM27.7805 11.4609L21.1641 4.84453V11.4609H27.7805Z" fill="black" fill-opacity="0.85"/>
</svg>
