<svg width="36" height="36" viewBox="0 0 36 36" fill="none" xmlns="http://www.w3.org/2000/svg">
<path d="M30.5859 4.42969H23.3367C22.725 4.42969 22.1801 4.84805 22.0359 5.45977C21.5965 7.31602 19.9336 8.64844 18 8.64844C16.0664 8.64844 14.4035 7.31602 13.9641 5.45977C13.8955 5.16636 13.7296 4.90483 13.4934 4.71777C13.2572 4.53072 12.9646 4.42917 12.6633 4.42969H5.41406C5.00381 4.42969 4.61035 4.59266 4.32026 4.88276C4.03016 5.17285 3.86719 5.56631 3.86719 5.97656V14.8359C3.86719 15.2462 4.03016 15.6397 4.32026 15.9297C4.61035 16.2198 5.00381 16.3828 5.41406 16.3828H8.05078V30.0234C8.05078 30.4337 8.21376 30.8271 8.50385 31.1172C8.79395 31.4073 9.1874 31.5703 9.59766 31.5703H26.4023C26.8126 31.5703 27.2061 31.4073 27.4961 31.1172C27.7862 30.8271 27.9492 30.4337 27.9492 30.0234V16.3828H30.5859C30.9962 16.3828 31.3896 16.2198 31.6797 15.9297C31.9698 15.6397 32.1328 15.2462 32.1328 14.8359V5.97656C32.1328 5.56631 31.9698 5.17285 31.6797 4.88276C31.3896 4.59266 30.9962 4.42969 30.5859 4.42969Z" fill="black" fill-opacity="0.85"/>
</svg>
