<svg width="36" height="36" viewBox="0 0 36 36" fill="none" xmlns="http://www.w3.org/2000/svg">
<path d="M17.9998 8.57812C24.1936 8.57812 29.2146 13.5991 29.2146 19.793V27.9844C29.2146 28.2827 29.0961 28.5689 28.8851 28.7799C28.6741 28.9908 28.388 29.1094 28.0896 29.1094H7.90994C7.61157 29.1094 7.32542 28.9908 7.11444 28.7799C6.90346 28.5689 6.78494 28.2827 6.78494 27.9844V19.793C6.78494 13.5991 11.806 8.57812 17.9998 8.57812ZM17.0154 2.39062H18.9842C19.0587 2.39062 19.1303 2.42026 19.183 2.473C19.2358 2.52575 19.2654 2.59728 19.2654 2.67188V6.04688C19.2654 6.12147 19.2358 6.193 19.183 6.24575C19.1303 6.29849 19.0587 6.32812 18.9842 6.32812H17.0154C16.9408 6.32812 16.8693 6.29849 16.8165 6.24575C16.7638 6.193 16.7342 6.12147 16.7342 6.04688V2.67188C16.7342 2.59728 16.7638 2.52575 16.8165 2.473C16.8693 2.42026 16.9408 2.39062 17.0154 2.39062ZM6.23123 6.73805C6.25735 6.7119 6.28837 6.69115 6.32251 6.677C6.35665 6.66285 6.39325 6.65556 6.43021 6.65556C6.46717 6.65556 6.50377 6.66285 6.53791 6.677C6.57206 6.69115 6.60308 6.7119 6.6292 6.73805L9.0156 9.12445C9.06831 9.17719 9.09791 9.2487 9.09791 9.32326C9.09791 9.39782 9.06831 9.46933 9.0156 9.52207L7.62341 10.9143C7.57068 10.967 7.49917 10.9966 7.42461 10.9966C7.35005 10.9966 7.27854 10.967 7.2258 10.9143L4.83939 8.52785C4.78669 8.47511 4.75708 8.4036 4.75708 8.32904C4.75708 8.25448 4.78669 8.18297 4.83939 8.13023L6.23158 6.73805H6.23123ZM29.7719 6.73805L31.164 8.13023C31.2166 8.18296 31.2462 8.25439 31.2462 8.32887C31.2462 8.40334 31.2166 8.47477 31.164 8.5275L28.7776 10.9146C28.7515 10.9408 28.7205 10.9615 28.6863 10.9757C28.6522 10.9898 28.6156 10.9971 28.5786 10.9971C28.5417 10.9971 28.5051 10.9898 28.4709 10.9757C28.4368 10.9615 28.4058 10.9408 28.3797 10.9146L26.9875 9.52242C26.9613 9.4963 26.9406 9.46528 26.9264 9.43114C26.9123 9.397 26.905 9.3604 26.905 9.32344C26.905 9.28648 26.9123 9.24988 26.9264 9.21574C26.9406 9.18159 26.9613 9.15057 26.9875 9.12445L29.3742 6.73805C29.427 6.68534 29.4985 6.65574 29.573 6.65574C29.6476 6.65574 29.7191 6.68534 29.7719 6.73805ZM6.74978 31.3594H29.2498C29.5481 31.3594 29.8343 31.4779 30.0453 31.6889C30.2563 31.8999 30.3748 32.186 30.3748 32.4844V33.3281C30.3748 33.4027 30.3451 33.4743 30.2924 33.527C30.2397 33.5797 30.1681 33.6094 30.0935 33.6094H5.90603C5.83144 33.6094 5.7599 33.5797 5.70716 33.527C5.65441 33.4743 5.62478 33.4027 5.62478 33.3281V32.4844C5.62478 32.186 5.74331 31.8999 5.95429 31.6889C6.16527 31.4779 6.45141 31.3594 6.74978 31.3594ZM11.9529 20.2148V29.1094H14.2029V20.2148H11.9529Z" fill="black" fill-opacity="0.85"/>
</svg>
