<svg width="36" height="36" viewBox="0 0 36 36" fill="none" xmlns="http://www.w3.org/2000/svg">
<path d="M30.9375 3.9375H5.0625C4.44023 3.9375 3.9375 4.44023 3.9375 5.0625V30.9375C3.9375 31.5598 4.44023 32.0625 5.0625 32.0625H30.9375C31.5598 32.0625 32.0625 31.5598 32.0625 30.9375V5.0625C32.0625 4.44023 31.5598 3.9375 30.9375 3.9375ZM14.2031 24.0117V26.7188C14.2031 26.8734 14.0766 27 13.9219 27H12.2344C12.0797 27 11.9531 26.8734 11.9531 26.7188V24.0117C10.4871 23.5336 9.42188 22.1555 9.42188 20.5312C9.42188 18.907 10.4871 17.5254 11.9531 17.0508V9.28125C11.9531 9.12656 12.0797 9 12.2344 9H13.9219C14.0766 9 14.2031 9.12656 14.2031 9.28125V17.0508C15.6691 17.5289 16.7344 18.907 16.7344 20.5312C16.7344 22.1555 15.6691 23.5371 14.2031 24.0117ZM24.0328 18.9527C24.0398 18.9527 24.0434 18.9492 24.0469 18.9492V26.7188C24.0469 26.8734 23.9203 27 23.7656 27H22.0781C21.9234 27 21.7969 26.8734 21.7969 26.7188V18.9492C21.8039 18.9492 21.8074 18.9527 21.8109 18.9527C20.3344 18.4816 19.2656 17.1 19.2656 15.4688C19.2656 13.8375 20.3344 12.4559 21.8109 11.9848C21.8039 11.9848 21.8004 11.9883 21.7969 11.9883V9.28125C21.7969 9.12656 21.9234 9 22.0781 9H23.7656C23.9203 9 24.0469 9.12656 24.0469 9.28125V11.9883C24.0398 11.9883 24.0363 11.9848 24.0328 11.9848C25.5094 12.4559 26.5781 13.8375 26.5781 15.4688C26.5781 17.1 25.5094 18.4816 24.0328 18.9527ZM21.6562 15.4688C21.6562 15.8044 21.7896 16.1263 22.0269 16.3637C22.2643 16.601 22.5862 16.7344 22.9219 16.7344C23.2575 16.7344 23.5795 16.601 23.8168 16.3637C24.0542 16.1263 24.1875 15.8044 24.1875 15.4688C24.1875 15.1331 24.0542 14.8112 23.8168 14.5738C23.5795 14.3365 23.2575 14.2031 22.9219 14.2031C22.5862 14.2031 22.2643 14.3365 22.0269 14.5738C21.7896 14.8112 21.6562 15.1331 21.6562 15.4688ZM14.182 19.916L14.1293 19.8316C14.1293 19.8281 14.1258 19.8281 14.1258 19.8246L14.0941 19.7824C14.0906 19.7789 14.0871 19.7754 14.0871 19.7719C14.052 19.7262 14.0168 19.684 13.9746 19.6453L13.9676 19.6383C13.9535 19.6242 13.9395 19.6102 13.9254 19.5996C13.8973 19.5715 13.8656 19.5469 13.834 19.5258H13.8305L13.7883 19.4941C13.7848 19.4906 13.7777 19.4871 13.7742 19.4836C13.732 19.4555 13.6863 19.4273 13.6371 19.4062C13.6301 19.4027 13.6195 19.3992 13.6125 19.3922C13.5984 19.3852 13.5879 19.3816 13.5738 19.3746C13.5633 19.3711 13.5492 19.3641 13.5387 19.3605C13.5211 19.3535 13.5035 19.3465 13.4859 19.343C13.4719 19.3395 13.4543 19.3324 13.4402 19.3289L13.4086 19.3184L13.3594 19.3078C13.3523 19.3043 13.3418 19.3043 13.3348 19.3008C13.3102 19.2973 13.2855 19.2902 13.2609 19.2867C13.2539 19.2867 13.2469 19.2867 13.2398 19.2832C13.2188 19.2797 13.2012 19.2797 13.1801 19.2762C13.173 19.2762 13.166 19.2762 13.1555 19.2727C13.1273 19.2727 13.1027 19.2691 13.0746 19.2691C13.0465 19.2691 13.0219 19.2691 12.9938 19.2727C12.9867 19.2727 12.9797 19.2727 12.9691 19.2762C12.948 19.2762 12.927 19.2797 12.9094 19.2832C12.9023 19.2832 12.8953 19.2832 12.8883 19.2867C12.8637 19.2902 12.8391 19.2937 12.8145 19.3008C12.8074 19.3043 12.7969 19.3043 12.7898 19.3078L12.7406 19.3184L12.709 19.3289C12.6949 19.3324 12.6773 19.3395 12.6633 19.343C12.6457 19.35 12.6281 19.357 12.6105 19.3605C12.6 19.3641 12.5859 19.3711 12.5754 19.3746C12.5613 19.3816 12.5508 19.3852 12.5367 19.3922C12.5297 19.3957 12.5191 19.3992 12.5121 19.4062C12.4664 19.4309 12.4207 19.4555 12.375 19.4836C12.3715 19.4871 12.3645 19.4906 12.3609 19.4941L12.3187 19.5258H12.3152C12.2836 19.5504 12.252 19.575 12.2238 19.5996C12.2098 19.6137 12.1957 19.6242 12.1816 19.6383L12.1746 19.6453C12.1353 19.6858 12.0977 19.7281 12.0621 19.7719C12.0586 19.7754 12.0551 19.7789 12.0551 19.7824L12.0234 19.8246C12.0234 19.8281 12.0199 19.8281 12.0199 19.8316L11.9672 19.916C11.9637 19.923 11.9602 19.9266 11.9566 19.9336C11.8617 20.1129 11.8055 20.3168 11.8055 20.5312C11.8055 20.7457 11.8617 20.9531 11.9566 21.1289C11.9602 21.1359 11.9637 21.1395 11.9672 21.1465L12.0199 21.2309C12.0199 21.2344 12.0234 21.2344 12.0234 21.2379L12.0551 21.2801C12.0586 21.2836 12.0621 21.2871 12.0621 21.2906C12.0973 21.3363 12.1324 21.3785 12.1746 21.4172L12.1816 21.4242C12.1957 21.4383 12.2098 21.4523 12.2238 21.4629C12.252 21.491 12.2836 21.5156 12.3152 21.5367H12.3187L12.3609 21.5684C12.3645 21.5719 12.3715 21.5754 12.375 21.5789C12.4172 21.607 12.4629 21.6352 12.5121 21.6562C12.5191 21.6598 12.5297 21.6633 12.5367 21.6703C12.5508 21.6773 12.5613 21.6809 12.5754 21.6879C12.5859 21.6914 12.6 21.6984 12.6105 21.702C12.6281 21.709 12.6457 21.716 12.6633 21.7195C12.6773 21.723 12.6949 21.7301 12.709 21.7336L12.7406 21.7441L12.7898 21.7547C12.7969 21.7582 12.8074 21.7582 12.8145 21.7617C12.8391 21.7652 12.8637 21.7723 12.8883 21.7758C12.8953 21.7758 12.9023 21.7758 12.9094 21.7793C12.9305 21.7828 12.948 21.7828 12.9691 21.7863C12.9762 21.7863 12.9832 21.7863 12.9938 21.7898C13.0219 21.7898 13.0465 21.7934 13.0746 21.7934C13.1027 21.7934 13.1273 21.7934 13.1555 21.7898C13.1625 21.7898 13.1695 21.7898 13.1801 21.7863C13.2012 21.7863 13.2223 21.7828 13.2398 21.7793C13.2469 21.7793 13.2539 21.7793 13.2609 21.7758C13.2855 21.7723 13.3102 21.7687 13.3348 21.7617C13.3418 21.7582 13.3523 21.7582 13.3594 21.7547L13.4086 21.7441L13.4402 21.7336C13.4543 21.7301 13.4719 21.723 13.4859 21.7195C13.5035 21.7125 13.5211 21.7055 13.5387 21.702C13.5492 21.6984 13.5633 21.6914 13.5738 21.6879C13.5879 21.6809 13.5984 21.6773 13.6125 21.6703C13.6195 21.6668 13.6301 21.6633 13.6371 21.6562C13.6828 21.6316 13.7285 21.607 13.7742 21.5789C13.7777 21.5754 13.7848 21.5719 13.7883 21.5684L13.8305 21.5367H13.834C13.8656 21.5121 13.8973 21.4875 13.9254 21.4629C13.9395 21.4488 13.9535 21.4383 13.9676 21.4242L13.9746 21.4172C14.0133 21.3785 14.052 21.3328 14.0871 21.2906C14.0906 21.2871 14.0941 21.2836 14.0941 21.2801L14.1258 21.2379C14.1258 21.2344 14.1293 21.2344 14.1293 21.2309L14.182 21.1465C14.1855 21.1395 14.1891 21.1359 14.1926 21.1289C14.2875 20.9496 14.3438 20.7457 14.3438 20.5312C14.3438 20.3168 14.2875 20.1094 14.1926 19.9336C14.1891 19.9266 14.1855 19.9195 14.182 19.916Z" fill="black" fill-opacity="0.85"/>
</svg>
