<svg xmlns="http://www.w3.org/2000/svg" width="36" height="36" viewBox="0 0 36 36" fill="none">
  <path d="M33.2752 17.7537L18.7943 3.28342C18.6901 3.17895 18.5662 3.09607 18.4299 3.03952C18.2936 2.98297 18.1474 2.95386 17.9998 2.95386C17.8522 2.95386 17.7061 2.98297 17.5697 3.03952C17.4334 3.09607 17.3095 3.17895 17.2053 3.28342L2.72441 17.7537C2.30254 18.1756 2.06348 18.7487 2.06348 19.3463C2.06348 20.5873 3.07246 21.5963 4.31348 21.5963H5.83926V31.9217C5.83926 32.544 6.34199 33.0467 6.96426 33.0467H15.7498V25.1717H19.6873V33.0467H29.0354C29.6576 33.0467 30.1604 32.544 30.1604 31.9217V21.5963H31.6861C32.2838 21.5963 32.8568 21.3608 33.2787 20.9354C34.1541 20.0565 34.1541 18.6326 33.2752 17.7537Z" fill="black" fill-opacity="0.85"/>
</svg>