<svg width="36" height="36" viewBox="0 0 36 36" fill="none" xmlns="http://www.w3.org/2000/svg">
<path d="M33.7146 14.5335L32.8814 13.078C32.844 13.0139 32.7827 12.9671 32.7109 12.948C32.6391 12.9289 32.5626 12.939 32.4982 12.9761L30.7158 14.0167L27.9631 6.41592C27.8177 5.96238 27.532 5.56677 27.1472 5.2862C26.7624 5.00563 26.2983 4.85462 25.8221 4.85498H10.5889C9.36893 4.85498 8.28612 5.64248 7.90995 6.80615L5.28729 14.0202L3.50135 12.9796C3.43697 12.9425 3.36053 12.9324 3.28873 12.9515C3.21693 12.9706 3.15561 13.0174 3.11815 13.0815L2.28495 14.5335C2.20761 14.6671 2.25331 14.8358 2.3869 14.9132L4.51034 16.1507L4.00057 17.5569C3.95839 17.6694 3.93729 17.789 3.93729 17.9085V30.1499C3.93729 30.7019 4.35214 31.1483 4.8619 31.1483H7.23846C7.67089 31.1483 8.04706 30.8214 8.13846 30.3644L8.40917 29.039H27.5904L27.8611 30.3644C27.956 30.8214 28.3287 31.1483 28.7611 31.1483H31.1377C31.6474 31.1483 32.0623 30.7019 32.0623 30.1499V17.9085C32.0623 17.789 32.0412 17.6694 31.999 17.5569L31.4892 16.1507L33.6092 14.9132C33.673 14.8763 33.7198 14.8159 33.7395 14.7449C33.7592 14.6739 33.7503 14.598 33.7146 14.5335ZM9.28104 21.8319C8.50409 21.8319 7.87479 21.2026 7.87479 20.4257C7.87479 19.6487 8.50409 19.0194 9.28104 19.0194C10.058 19.0194 10.6873 19.6487 10.6873 20.4257C10.6873 21.2026 10.058 21.8319 9.28104 21.8319ZM22.9217 24.4687C22.9217 24.6233 22.7951 24.7499 22.6404 24.7499H13.3592C13.2045 24.7499 13.0779 24.6233 13.0779 24.4687V21.5155C13.0779 21.3608 13.2045 21.2343 13.3592 21.2343H14.7654C14.9201 21.2343 15.0467 21.3608 15.0467 21.5155V22.7812H20.9529V21.5155C20.9529 21.3608 21.0795 21.2343 21.2342 21.2343H22.6404C22.7951 21.2343 22.9217 21.3608 22.9217 21.5155V24.4687ZM26.7185 21.8319C25.9416 21.8319 25.3123 21.2026 25.3123 20.4257C25.3123 19.6487 25.9416 19.0194 26.7185 19.0194C27.4955 19.0194 28.1248 19.6487 28.1248 20.4257C28.1248 21.2026 27.4955 21.8319 26.7185 21.8319ZM7.73417 14.6952L10.29 7.66748L10.3076 7.62178L10.3217 7.57607C10.3603 7.46006 10.4658 7.38272 10.5889 7.38272H25.6217L28.2724 14.6952H7.73417Z" fill="black" fill-opacity="0.85"/>
</svg>
