<svg width="36" height="36" viewBox="0 0 36 36" fill="none" xmlns="http://www.w3.org/2000/svg">
<path d="M29.25 2.25H6.75C6.12773 2.25 5.625 2.75273 5.625 3.375V21.9727C5.625 21.9516 5.63906 21.9375 5.66016 21.9375H13.3699L13.5527 22.8059C13.9781 24.9082 15.8484 26.4375 18 26.4375C20.1516 26.4375 22.0219 24.9082 22.4438 22.8059L22.6266 21.9375H30.3398C30.3609 21.9375 30.375 21.9516 30.375 21.9727V3.375C30.375 2.75273 29.8723 2.25 29.25 2.25ZM25.0312 17.332C25.0312 17.4867 24.9047 17.6133 24.75 17.6133H11.25C11.0953 17.6133 10.9688 17.4867 10.9688 17.332V15.6445C10.9688 15.4898 11.0953 15.3633 11.25 15.3633H24.75C24.9047 15.3633 25.0312 15.4898 25.0312 15.6445V17.332ZM25.0312 11.707C25.0312 11.8617 24.9047 11.9883 24.75 11.9883H11.25C11.0953 11.9883 10.9688 11.8617 10.9688 11.707V10.0195C10.9688 9.86484 11.0953 9.73828 11.25 9.73828H24.75C24.9047 9.73828 25.0312 9.86484 25.0312 10.0195V11.707ZM30.3398 24.1523H24.402C23.9941 25.3055 23.277 26.3426 22.3242 27.1301C21.1113 28.1355 19.575 28.6875 18 28.6875C16.425 28.6875 14.8887 28.132 13.6758 27.1301C12.7269 26.3435 12.0089 25.3144 11.598 24.1523H5.66016C5.63906 24.1523 5.625 24.1383 5.625 24.1172V32.625C5.625 33.2473 6.12773 33.75 6.75 33.75H29.25C29.8723 33.75 30.375 33.2473 30.375 32.625V24.1172C30.375 24.1383 30.3609 24.1523 30.3398 24.1523Z" fill="black" fill-opacity="0.85"/>
</svg>
