<svg width="36" height="36" viewBox="0 0 36 36" fill="none" xmlns="http://www.w3.org/2000/svg">
<path d="M30.0445 10.1496C30.2555 10.3605 30.375 10.6453 30.375 10.9441V32.625C30.375 33.2473 29.8723 33.75 29.25 33.75H6.75C6.12773 33.75 5.625 33.2473 5.625 32.625V3.375C5.625 2.75273 6.12773 2.25 6.75 2.25H21.6809C21.9797 2.25 22.268 2.36953 22.4789 2.58047L30.0445 10.1496ZM27.7805 11.4609L21.1641 4.84453V11.4609H27.7805ZM18 19.902L19.8566 26.8277C19.8806 26.9175 19.9336 26.9969 20.0074 27.0535C20.0811 27.11 20.1715 27.1407 20.2644 27.1406H21.3813C21.4742 27.1407 21.5645 27.1102 21.6382 27.0537C21.7119 26.9973 21.765 26.9181 21.7891 26.8284L24.4037 17.1253C24.4132 17.0895 24.4179 17.0526 24.4178 17.0156C24.4178 16.9037 24.3733 16.7964 24.2942 16.7173C24.2151 16.6382 24.1078 16.5938 23.9959 16.5938H22.7454C22.6499 16.5937 22.5572 16.6261 22.4825 16.6855C22.4078 16.745 22.3555 16.828 22.3341 16.9211L20.7246 23.9207L18.9752 16.9133C18.9524 16.8221 18.8998 16.741 18.8256 16.6831C18.7515 16.6252 18.6601 16.5938 18.566 16.5938H17.434C17.3399 16.5938 17.2485 16.6253 17.1743 16.6833C17.1001 16.7412 17.0475 16.8223 17.0248 16.9137L15.2789 23.9066L13.6582 16.9207C13.6367 16.8279 13.5844 16.7451 13.5098 16.6858C13.4353 16.6265 13.3428 16.5942 13.2476 16.5941H12.0034C11.9665 16.5941 11.9297 16.5989 11.8941 16.6085C11.7861 16.6376 11.694 16.7084 11.6382 16.8053C11.5824 16.9022 11.5673 17.0173 11.5963 17.1253L14.2038 26.8284C14.2279 26.918 14.2809 26.9971 14.3545 27.0535C14.4281 27.11 14.5182 27.1406 14.6109 27.1406H15.7356C15.8285 27.1406 15.9188 27.1099 15.9924 27.0534C16.0661 26.9968 16.1191 26.9175 16.143 26.8277L17.9996 19.902H18Z" fill="black" fill-opacity="0.85"/>
</svg>
