<svg width="36" height="36" viewBox="0 0 36 36" fill="none" xmlns="http://www.w3.org/2000/svg">
<path d="M18 2.25C9.30234 2.25 2.25 9.30234 2.25 18C2.25 26.6977 9.30234 33.75 18 33.75C26.6977 33.75 33.75 26.6977 33.75 18C33.75 9.30234 26.6977 2.25 18 2.25ZM11.5066 24.6938C11.4363 24.7254 11.352 24.6938 11.3203 24.6199C11.3062 24.5848 11.3062 24.5426 11.3203 24.5074L14.7902 16.5797L19.4344 21.2238L11.5066 24.6938ZM24.6938 11.5066L21.2238 19.4344L16.5797 14.7902L24.5074 11.3203C24.5777 11.2887 24.6621 11.3203 24.6938 11.3941C24.7078 11.4293 24.7078 11.468 24.6938 11.5066Z" fill="black" fill-opacity="0.85"/>
</svg>
