<svg width="36" height="36" viewBox="0 0 36 36" fill="none" xmlns="http://www.w3.org/2000/svg">
<path d="M30.0445 10.1496L22.4789 2.58047C22.268 2.36953 21.9797 2.25 21.6809 2.25H6.75C6.12773 2.25 5.625 2.75273 5.625 3.375V32.625C5.625 33.2473 6.12773 33.75 6.75 33.75H29.25C29.8723 33.75 30.375 33.2473 30.375 32.625V10.9441C30.375 10.6453 30.2555 10.3605 30.0445 10.1496ZM14.0625 14.1328C14.8395 14.1328 15.4688 14.7621 15.4688 15.5391C15.4688 16.316 14.8395 16.9453 14.0625 16.9453C13.2855 16.9453 12.6562 16.316 12.6562 15.5391C12.6562 14.7621 13.2855 14.1328 14.0625 14.1328ZM24.4688 24.4688H11.5312C11.2957 24.4688 11.1656 24.198 11.3098 24.0152L14.8184 19.5434C14.8447 19.5097 14.8783 19.4826 14.9167 19.4639C14.955 19.4452 14.9972 19.4354 15.0398 19.4354C15.0825 19.4354 15.1247 19.4452 15.163 19.4639C15.2014 19.4826 15.235 19.5097 15.2613 19.5434L16.7063 21.3855L19.4414 17.898C19.4677 17.8644 19.5013 17.8372 19.5397 17.8185C19.5781 17.7999 19.6202 17.7901 19.6629 17.7901C19.7056 17.7901 19.7477 17.7999 19.7861 17.8185C19.8245 17.8372 19.8581 17.8644 19.8844 17.898L24.6832 24.0152C24.8344 24.198 24.7008 24.4688 24.4688 24.4688ZM21.1641 11.4609V4.84453L27.7805 11.4609H21.1641Z" fill="black" fill-opacity="0.85"/>
</svg>
