<svg width="36" height="36" viewBox="0 0 36 36" fill="none" xmlns="http://www.w3.org/2000/svg">
<path d="M29.25 2.25H6.75C6.12773 2.25 5.625 2.75273 5.625 3.375V11.25H30.375V3.375C30.375 2.75273 29.8723 2.25 29.25 2.25ZM10.125 8.15625C9.34805 8.15625 8.71875 7.52695 8.71875 6.75C8.71875 5.97305 9.34805 5.34375 10.125 5.34375C10.902 5.34375 11.5312 5.97305 11.5312 6.75C11.5312 7.52695 10.902 8.15625 10.125 8.15625ZM5.625 32.625C5.625 33.2473 6.12773 33.75 6.75 33.75H29.25C29.8723 33.75 30.375 33.2473 30.375 32.625V24.75H5.625V32.625ZM10.125 27.8438C10.902 27.8438 11.5312 28.473 11.5312 29.25C11.5312 30.027 10.902 30.6562 10.125 30.6562C9.34805 30.6562 8.71875 30.027 8.71875 29.25C8.71875 28.473 9.34805 27.8438 10.125 27.8438ZM5.625 22.5H30.375V13.5H5.625V22.5ZM10.125 16.5938C10.902 16.5938 11.5312 17.223 11.5312 18C11.5312 18.777 10.902 19.4062 10.125 19.4062C9.34805 19.4062 8.71875 18.777 8.71875 18C8.71875 17.223 9.34805 16.5938 10.125 16.5938Z" fill="black" fill-opacity="0.85"/>
</svg>
