<svg width="36" height="36" viewBox="0 0 36 36" fill="none" xmlns="http://www.w3.org/2000/svg">
<path d="M13.1133 14.4492C12.1113 14.4492 11.2957 15.2684 11.2957 16.2773C11.2957 17.2863 12.1113 18.1055 13.1133 18.1055C14.1152 18.1055 14.9309 17.2863 14.9309 16.2773C14.9309 15.2684 14.1152 14.4492 13.1133 14.4492ZM32.625 5.625H3.375C2.75273 5.625 2.25 6.12773 2.25 6.75V29.25C2.25 29.8723 2.75273 30.375 3.375 30.375H32.625C33.2473 30.375 33.75 29.8723 33.75 29.25V6.75C33.75 6.12773 33.2473 5.625 32.625 5.625ZM21.375 14.7656C21.375 14.6109 21.4102 14.4844 21.4559 14.4844H25.7941C25.8398 14.4844 25.875 14.6109 25.875 14.7656V16.4531C25.875 16.6078 25.8398 16.7344 25.7941 16.7344H21.4559C21.4102 16.7344 21.375 16.6078 21.375 16.4531V14.7656ZM18.3516 23.6602H16.8082C16.6605 23.6602 16.541 23.5441 16.5305 23.3965C16.3969 21.6211 14.9133 20.2148 13.1133 20.2148C11.3133 20.2148 9.82969 21.6211 9.69609 23.3965C9.68555 23.5441 9.56602 23.6602 9.41836 23.6602H7.875C7.83685 23.6602 7.79909 23.6525 7.76402 23.6375C7.72895 23.6225 7.69729 23.6005 7.67098 23.5729C7.64468 23.5452 7.62426 23.5126 7.61098 23.4768C7.59771 23.441 7.59184 23.4029 7.59375 23.3648C7.69219 21.491 8.71875 19.8598 10.2164 18.9316C9.55595 18.2056 9.19102 17.2588 9.19336 16.2773C9.19336 14.1012 10.9477 12.3398 13.1098 12.3398C15.2719 12.3398 17.0262 14.1012 17.0262 16.2773C17.0262 17.3004 16.6395 18.2285 16.0031 18.9316C17.5043 19.8633 18.5273 21.491 18.6258 23.3648C18.6398 23.5266 18.5133 23.6602 18.3516 23.6602ZM28.1566 21.7969H21.6246C21.4875 21.7969 21.375 21.6703 21.375 21.5156V19.8281C21.375 19.6734 21.4875 19.5469 21.6246 19.5469H28.1531C28.2902 19.5469 28.4027 19.6734 28.4027 19.8281V21.5156H28.4062C28.4062 21.6703 28.2938 21.7969 28.1566 21.7969Z" fill="black" fill-opacity="0.85"/>
</svg>
