<svg width="36" height="36" viewBox="0 0 36 36" fill="none" xmlns="http://www.w3.org/2000/svg">
<path d="M32.0625 10.6277L27.5625 13.2188V7.875C27.5625 6.63398 26.5535 5.625 25.3125 5.625H4.5C3.25898 5.625 2.25 6.63398 2.25 7.875V28.125C2.25 29.366 3.25898 30.375 4.5 30.375H25.3125C26.5535 30.375 27.5625 29.366 27.5625 28.125V22.7812L32.0625 25.3723C32.8113 25.8047 33.75 25.2633 33.75 24.402V11.6016C33.75 10.7367 32.8113 10.1953 32.0625 10.6277ZM11.5312 12.375C11.5312 12.5297 11.4047 12.6562 11.25 12.6562H7.3125C7.15781 12.6562 7.03125 12.5297 7.03125 12.375V10.6875C7.03125 10.5328 7.15781 10.4062 7.3125 10.4062H11.25C11.4047 10.4062 11.5312 10.5328 11.5312 10.6875V12.375ZM31.2188 21.9727L27.5625 19.8703V16.1332L31.2188 14.0273V21.9727Z" fill="black" fill-opacity="0.85"/>
</svg>
