<svg width="36" height="36" viewBox="0 0 36 36" fill="none" xmlns="http://www.w3.org/2000/svg">
<path d="M18 2.25C9.30234 2.25 2.25 9.30234 2.25 18C2.25 26.6977 9.30234 33.75 18 33.75C26.6977 33.75 33.75 26.6977 33.75 18C33.75 9.30234 26.6977 2.25 18 2.25ZM18.1898 25.8047C14.3227 25.8047 12.0938 23.2312 12.0938 18.9527V17.1141C12.0938 12.8039 14.3227 10.1953 18.1863 10.1953C21.5016 10.1953 23.9062 12.3293 23.9062 15.3773C23.9062 15.4688 23.8324 15.5426 23.741 15.5426H21.7477C21.6 15.5426 21.4805 15.4301 21.4664 15.2824C21.3258 13.5422 20.0602 12.3504 18.1969 12.3504C15.9012 12.3504 14.6074 14.0555 14.6074 17.1141V18.9633C14.6074 21.9762 15.9047 23.6602 18.1969 23.6602C20.0531 23.6602 21.3152 22.5457 21.4664 20.925C21.4805 20.7809 21.6 20.6684 21.7477 20.6684H23.7445C23.8359 20.6684 23.9098 20.7422 23.9098 20.8336C23.9098 23.7375 21.4945 25.8047 18.1898 25.8047Z" fill="black" fill-opacity="0.85"/>
</svg>
