<svg width="36" height="36" viewBox="0 0 36 36" fill="none" xmlns="http://www.w3.org/2000/svg">
<path d="M30.0445 10.1496C30.2555 10.3605 30.375 10.6453 30.375 10.9441V32.625C30.375 33.2473 29.8723 33.75 29.25 33.75H6.75C6.12773 33.75 5.625 33.2473 5.625 32.625V3.375C5.625 2.75273 6.12773 2.25 6.75 2.25H21.6809C21.9797 2.25 22.268 2.36953 22.4789 2.58047L30.0445 10.1496ZM27.7805 11.4609L21.1641 4.84453V11.4609H27.7805ZM10.4062 4.78125V7.03125H12.6562V4.78125H10.4062ZM12.6562 7.03125V9.28125H14.9062V7.03125H12.6562ZM10.4062 9.28125V11.5312H12.6562V9.28125H10.4062ZM12.6562 11.5312V13.7812H14.9062V11.5312H12.6562ZM10.4062 13.7812V16.0312H12.6562V13.7812H10.4062ZM12.6562 16.0312V18.2812H14.9062V16.0312H12.6562ZM10.4062 18.2812V20.5312H12.6562V18.2812H10.4062ZM10.4062 20.5312V26.1562H14.9062V20.5312H10.4062ZM12.0938 22.2188H13.2188V24.4688H12.0938V22.2188Z" fill="black" fill-opacity="0.85"/>
</svg>
