<svg xmlns="http://www.w3.org/2000/svg" width="36" height="36" viewBox="0 0 36 36" fill="none">
  <path d="M3.9375 30.9375C3.9375 31.5598 4.44023 32.0625 5.0625 32.0625H30.9375C31.5598 32.0625 32.0625 31.5598 32.0625 30.9375V16.1719H3.9375V30.9375ZM30.9375 6.46875H25.0312V4.21875C25.0312 4.06406 24.9047 3.9375 24.75 3.9375H22.7812C22.6266 3.9375 22.5 4.06406 22.5 4.21875V6.46875H13.5V4.21875C13.5 4.06406 13.3734 3.9375 13.2188 3.9375H11.25C11.0953 3.9375 10.9688 4.06406 10.9688 4.21875V6.46875H5.0625C4.44023 6.46875 3.9375 6.97148 3.9375 7.59375V13.7812H32.0625V7.59375C32.0625 6.97148 31.5598 6.46875 30.9375 6.46875Z" fill="black" fill-opacity="0.85"/>
</svg>