<svg width="36" height="36" viewBox="0 0 36 36" fill="none" xmlns="http://www.w3.org/2000/svg">
<path d="M30.0445 10.1496C30.2555 10.3605 30.375 10.6453 30.375 10.9441V32.625C30.375 33.2473 29.8723 33.75 29.25 33.75H6.75C6.12773 33.75 5.625 33.2473 5.625 32.625V3.375C5.625 2.75273 6.12773 2.25 6.75 2.25H21.6809C21.9797 2.25 22.268 2.36953 22.4789 2.58047L30.0445 10.1496ZM27.7805 11.4609L21.1641 4.84453V11.4609H27.7805ZM20.2268 16.7991L18.0745 20.3955L15.9012 16.7977C15.8636 16.7355 15.8106 16.6841 15.7474 16.6485C15.6841 16.6128 15.6127 16.5941 15.5401 16.5941H14.1887C14.1091 16.5941 14.0311 16.6167 13.9637 16.6591C13.9168 16.6887 13.8762 16.7272 13.8442 16.7725C13.8122 16.8177 13.7894 16.8688 13.7771 16.9229C13.7649 16.977 13.7634 17.0329 13.7728 17.0876C13.7822 17.1422 13.8023 17.1945 13.8319 17.2413L16.7266 21.8264L13.7929 26.4945C13.7506 26.5617 13.7281 26.6396 13.7282 26.7191C13.7282 26.831 13.7726 26.9383 13.8517 27.0174C13.9308 27.0965 14.0382 27.141 14.15 27.141H15.3615C15.4335 27.141 15.5042 27.1225 15.5671 27.0875C15.6299 27.0524 15.6827 27.0018 15.7205 26.9406L17.9248 23.3733L20.115 26.9399C20.1528 27.0014 20.2056 27.0521 20.2686 27.0873C20.3316 27.1225 20.4025 27.141 20.4746 27.141H21.7923C21.8731 27.141 21.9521 27.1178 22.0201 27.0742C22.0667 27.0443 22.107 27.0055 22.1387 26.96C22.1703 26.9145 22.1927 26.8632 22.2045 26.8091C22.2163 26.755 22.2173 26.699 22.2075 26.6445C22.1977 26.59 22.1773 26.5379 22.1474 26.4913L19.2002 21.9016L22.1991 17.2445C22.2428 17.1763 22.266 17.097 22.2659 17.016C22.2659 16.9041 22.2214 16.7968 22.1423 16.7177C22.0632 16.6385 21.9559 16.5941 21.844 16.5941H20.5889C20.516 16.5942 20.4444 16.6131 20.381 16.6491C20.3176 16.6851 20.2646 16.7369 20.2271 16.7994L20.2268 16.7991Z" fill="black" fill-opacity="0.85"/>
</svg>
