<svg xmlns="http://www.w3.org/2000/svg" width="36" height="36" viewBox="0 0 36 36" fill="none">
  <path d="M31.0082 9.56602V5.0625C31.0082 4.44023 30.5055 3.9375 29.8832 3.9375H6.11758C5.49531 3.9375 4.99258 4.44023 4.99258 5.0625V9.56602C4.40547 9.60117 3.93789 10.0898 3.93789 10.6875V15.3176C3.93564 16.1685 4.10794 17.0109 4.44414 17.7926C4.59531 18.1512 4.78164 18.4887 4.99258 18.8086V30.9375C4.99258 31.5562 5.49531 32.0625 6.11758 32.0625H15.7504V25.875H20.2504V32.0625H29.8832C30.5055 32.0625 31.0082 31.5598 31.0082 30.9375V18.8086C31.2225 18.4879 31.4061 18.1477 31.5566 17.7926C31.8906 17.0086 32.0629 16.1754 32.0629 15.3176V10.6875C32.0629 10.0898 31.5953 9.60117 31.0082 9.56602ZM28.4769 29.5348H22.5004V24.75C22.5004 24.1277 21.9977 23.625 21.3754 23.625H14.6254C14.0031 23.625 13.5004 24.1277 13.5004 24.75V29.5348H7.52383V21.0199C7.62578 21.0691 7.73125 21.1184 7.84023 21.1605C8.62422 21.491 9.45742 21.6562 10.3152 21.6562C11.173 21.6562 12.0027 21.491 12.7902 21.1605C13.2754 20.9566 13.7324 20.6965 14.1508 20.3836C14.1578 20.3801 14.1648 20.3801 14.1719 20.3836C14.5915 20.6978 15.0485 20.9588 15.5324 21.1605C16.3164 21.491 17.1496 21.6562 18.0074 21.6562C18.8652 21.6562 19.6949 21.491 20.4824 21.1605C20.9676 20.9566 21.4246 20.6965 21.843 20.3836C21.85 20.3801 21.857 20.3801 21.8641 20.3836C22.2837 20.6978 22.7407 20.9588 23.2246 21.1605C24.0086 21.491 24.8418 21.6562 25.6996 21.6562C26.5574 21.6562 27.3871 21.491 28.1746 21.1605C28.2801 21.1148 28.3855 21.0691 28.491 21.0199V29.5348H28.4769ZM28.4769 9.5625H7.52383V6.46875H28.4769V9.5625Z" fill="black" fill-opacity="0.85"/>
</svg>