<svg width="36" height="36" viewBox="0 0 36 36" fill="none" xmlns="http://www.w3.org/2000/svg">
<path d="M18 2.25C9.30234 2.25 2.25 9.30234 2.25 18C2.25 26.6977 9.30234 33.75 18 33.75C26.6977 33.75 33.75 26.6977 33.75 18C33.75 9.30234 26.6977 2.25 18 2.25ZM10.125 14.8008C10.134 14.3592 10.3158 13.9387 10.6313 13.6296C10.9467 13.3205 11.3708 13.1474 11.8125 13.1474C12.2542 13.1474 12.6783 13.3205 12.9937 13.6296C13.3092 13.9387 13.491 14.3592 13.5 14.8008C13.491 15.2424 13.3092 15.6628 12.9937 15.9719C12.6783 16.2811 12.2542 16.4542 11.8125 16.4542C11.3708 16.4542 10.9467 16.2811 10.6313 15.9719C10.3158 15.6628 10.134 15.2424 10.125 14.8008ZM18 24.3633C14.9941 24.3633 12.5297 21.9973 12.375 19.0336C12.3731 18.9955 12.379 18.9574 12.3922 18.9216C12.4055 18.8859 12.4259 18.8532 12.4522 18.8256C12.4785 18.7979 12.5102 18.776 12.5453 18.761C12.5803 18.7459 12.6181 18.7382 12.6562 18.7383H14.3473C14.4949 18.7383 14.6215 18.8508 14.632 18.9984C14.7656 20.7387 16.2246 22.1133 18 22.1133C19.7754 22.1133 21.2379 20.7387 21.368 18.9984C21.3785 18.8508 21.5051 18.7383 21.6527 18.7383H23.3438C23.3819 18.7382 23.4197 18.7459 23.4547 18.761C23.4898 18.776 23.5215 18.7979 23.5478 18.8256C23.5741 18.8532 23.5945 18.8859 23.6078 18.9216C23.621 18.9574 23.6269 18.9955 23.625 19.0336C23.4703 21.9973 21.0059 24.3633 18 24.3633ZM24.1875 16.4883C23.7459 16.4793 23.3254 16.2975 23.0163 15.982C22.7072 15.6665 22.5341 15.2425 22.5341 14.8008C22.5341 14.3591 22.7072 13.935 23.0163 13.6195C23.3254 13.304 23.7459 13.1223 24.1875 13.1133C24.6291 13.1223 25.0496 13.304 25.3587 13.6195C25.6678 13.935 25.8409 14.3591 25.8409 14.8008C25.8409 15.2425 25.6678 15.6665 25.3587 15.982C25.0496 16.2975 24.6291 16.4793 24.1875 16.4883Z" fill="black" fill-opacity="0.85"/>
</svg>
